<ttFont>
    <TTGlyph name="A" xMin="54" yMin="-10" xMax="639" yMax="760">
      <contour>
        <pt x="476" y="241" on="1"/>
        <pt x="347" y="244" on="1"/>
        <pt x="251" y="244" on="0"/>
        <pt x="207" y="242" on="1"/>
        <pt x="196" y="209" on="0"/>
        <pt x="155" y="68" on="0"/>
        <pt x="129" y="-10" on="0"/>
        <pt x="96" y="-10" on="1"/>
        <pt x="77" y="-10" on="0"/>
        <pt x="54" y="14" on="0"/>
        <pt x="54" y="43" on="0"/>
        <pt x="57" y="61" on="0"/>
        <pt x="68" y="97" on="0"/>
        <pt x="74" y="113" on="1"/>
        <pt x="103" y="199" on="0"/>
        <pt x="116" y="239" on="1"/>
        <pt x="87" y="239" on="0"/>
        <pt x="54" y="264" on="0"/>
        <pt x="54" y="285" on="1"/>
        <pt x="54" y="332" on="0"/>
        <pt x="128" y="332" on="1"/>
        <pt x="146" y="332" on="1"/>
        <pt x="242" y="600" on="0"/>
        <pt x="271" y="677" on="0"/>
        <pt x="275" y="689" on="0"/>
        <pt x="284" y="712" on="0"/>
        <pt x="291" y="723" on="0"/>
        <pt x="301" y="739" on="0"/>
        <pt x="310" y="748" on="0"/>
        <pt x="316" y="752" on="1"/>
        <pt x="329" y="760" on="0"/>
        <pt x="358" y="760" on="0"/>
        <pt x="376" y="754" on="0"/>
        <pt x="392" y="738" on="0"/>
        <pt x="403" y="720" on="0"/>
        <pt x="418" y="682" on="0"/>
        <pt x="424" y="666" on="1"/>
        <pt x="472" y="519" on="0"/>
        <pt x="544" y="332" on="1"/>
        <pt x="580" y="333" on="1"/>
        <pt x="606" y="333" on="0"/>
        <pt x="639" y="305" on="0"/>
        <pt x="639" y="284" on="1"/>
        <pt x="639" y="240" on="0"/>
        <pt x="573" y="237" on="1"/>
        <pt x="583" y="205" on="0"/>
        <pt x="600" y="156" on="1"/>
        <pt x="639" y="50" on="0"/>
        <pt x="639" y="17" on="0"/>
        <pt x="616" y="-10" on="0"/>
        <pt x="596" y="-10" on="1"/>
        <pt x="560" y="-10" on="0"/>
        <pt x="544" y="29" on="1"/>
        <pt x="527" y="78" on="0"/>
      </contour>
      <contour>
        <pt x="232" y="328" on="1"/>
        <pt x="296" y="326" on="0"/>
        <pt x="415" y="326" on="0"/>
        <pt x="451" y="328" on="1"/>
        <pt x="346" y="630" on="0"/>
        <pt x="344" y="630" on="1"/>
        <pt x="338" y="630" on="0"/>
        <pt x="258" y="404" on="1"/>
      </contour>
    </TTGlyph>
    <TTGlyph name="AE" xMin="54" yMin="-10" xMax="865" yMax="756">
      <contour>
        <pt x="338" y="623" on="1"/>
        <pt x="332" y="623" on="0"/>
        <pt x="257" y="402" on="1"/>
        <pt x="232" y="328" on="1"/>
        <pt x="280" y="325" on="0"/>
        <pt x="340" y="325" on="0"/>
        <pt x="381" y="326" on="0"/>
        <pt x="392" y="326" on="1"/>
        <pt x="353" y="563" on="0"/>
      </contour>
      <contour>
        <pt x="676" y="0" on="1"/>
        <pt x="503" y="-5" on="1"/>
        <pt x="445" y="-5" on="0"/>
        <pt x="436" y="44" on="1"/>
        <pt x="420" y="131" on="0"/>
        <pt x="403" y="242" on="1"/>
        <pt x="377" y="243" on="0"/>
        <pt x="229" y="243" on="0"/>
        <pt x="207" y="242" on="1"/>
        <pt x="196" y="209" on="0"/>
        <pt x="155" y="68" on="0"/>
        <pt x="129" y="-10" on="0"/>
        <pt x="96" y="-10" on="1"/>
        <pt x="77" y="-10" on="0"/>
        <pt x="54" y="14" on="0"/>
        <pt x="54" y="43" on="0"/>
        <pt x="57" y="61" on="0"/>
        <pt x="68" y="97" on="0"/>
        <pt x="74" y="113" on="1"/>
        <pt x="103" y="199" on="0"/>
        <pt x="116" y="239" on="1"/>
        <pt x="87" y="239" on="0"/>
        <pt x="54" y="264" on="0"/>
        <pt x="54" y="285" on="1"/>
        <pt x="54" y="332" on="0"/>
        <pt x="128" y="332" on="1"/>
        <pt x="146" y="332" on="1"/>
        <pt x="203" y="492" on="0"/>
        <pt x="260" y="646" on="0"/>
        <pt x="270" y="675" on="0"/>
        <pt x="277" y="694" on="0"/>
        <pt x="292" y="723" on="0"/>
        <pt x="300" y="732" on="1"/>
        <pt x="319" y="755" on="0"/>
        <pt x="341" y="755" on="1"/>
        <pt x="548" y="750" on="1"/>
        <pt x="677" y="756" on="1"/>
        <pt x="704" y="756" on="0"/>
        <pt x="737" y="731" on="0"/>
        <pt x="737" y="687" on="0"/>
        <pt x="704" y="662" on="0"/>
        <pt x="677" y="662" on="1"/>
        <pt x="548" y="668" on="1"/>
        <pt x="476" y="668" on="0"/>
        <pt x="419" y="663" on="1"/>
        <pt x="420" y="662" on="0"/>
        <pt x="459" y="446" on="1"/>
        <pt x="493" y="444" on="0"/>
        <pt x="533" y="444" on="1"/>
        <pt x="682" y="449" on="1"/>
        <pt x="709" y="449" on="0"/>
        <pt x="741" y="424" on="0"/>
        <pt x="741" y="403" on="1"/>
        <pt x="741" y="359" on="0"/>
        <pt x="682" y="359" on="1"/>
        <pt x="533" y="363" on="1"/>
        <pt x="495" y="363" on="0"/>
        <pt x="475" y="362" on="1"/>
        <pt x="518" y="124" on="0"/>
        <pt x="527" y="89" on="1"/>
        <pt x="606" y="82" on="0"/>
        <pt x="676" y="82" on="1"/>
        <pt x="805" y="88" on="1"/>
        <pt x="832" y="88" on="0"/>
        <pt x="865" y="63" on="0"/>
        <pt x="865" y="19" on="0"/>
        <pt x="832" y="-6" on="0"/>
        <pt x="805" y="-6" on="1"/>
      </contour>
    </TTGlyph>
    <TTGlyph name="Aacute" xMin="54" yMin="-10" xMax="639" yMax="990">
      <contour>
        <pt x="476" y="241" on="1"/>
        <pt x="347" y="244" on="1"/>
        <pt x="251" y="244" on="0"/>
        <pt x="207" y="242" on="1"/>
        <pt x="196" y="209" on="0"/>
        <pt x="155" y="68" on="0"/>
        <pt x="129" y="-10" on="0"/>
        <pt x="96" y="-10" on="1"/>
        <pt x="77" y="-10" on="0"/>
        <pt x="54" y="14" on="0"/>
        <pt x="54" y="43" on="0"/>
        <pt x="57" y="61" on="0"/>
        <pt x="68" y="97" on="0"/>
        <pt x="74" y="113" on="1"/>
        <pt x="103" y="199" on="0"/>
        <pt x="116" y="239" on="1"/>
        <pt x="87" y="239" on="0"/>
        <pt x="54" y="264" on="0"/>
        <pt x="54" y="285" on="1"/>
        <pt x="54" y="332" on="0"/>
        <pt x="128" y="332" on="1"/>
        <pt x="146" y="332" on="1"/>
        <pt x="242" y="600" on="0"/>
        <pt x="271" y="677" on="0"/>
        <pt x="275" y="689" on="0"/>
        <pt x="284" y="712" on="0"/>
        <pt x="291" y="723" on="0"/>
        <pt x="301" y="739" on="0"/>
        <pt x="310" y="748" on="0"/>
        <pt x="316" y="752" on="1"/>
        <pt x="329" y="760" on="0"/>
        <pt x="358" y="760" on="0"/>
        <pt x="376" y="754" on="0"/>
        <pt x="392" y="738" on="0"/>
        <pt x="403" y="720" on="0"/>
        <pt x="418" y="682" on="0"/>
        <pt x="424" y="666" on="1"/>
        <pt x="472" y="519" on="0"/>
        <pt x="544" y="332" on="1"/>
        <pt x="580" y="333" on="1"/>
        <pt x="606" y="333" on="0"/>
        <pt x="639" y="305" on="0"/>
        <pt x="639" y="284" on="1"/>
        <pt x="639" y="240" on="0"/>
        <pt x="573" y="237" on="1"/>
        <pt x="583" y="205" on="0"/>
        <pt x="600" y="156" on="1"/>
        <pt x="639" y="50" on="0"/>
        <pt x="639" y="17" on="0"/>
        <pt x="616" y="-10" on="0"/>
        <pt x="596" y="-10" on="1"/>
        <pt x="560" y="-10" on="0"/>
        <pt x="544" y="29" on="1"/>
        <pt x="527" y="78" on="0"/>
      </contour>
      <contour>
        <pt x="232" y="328" on="1"/>
        <pt x="296" y="326" on="0"/>
        <pt x="415" y="326" on="0"/>
        <pt x="451" y="328" on="1"/>
        <pt x="346" y="630" on="0"/>
        <pt x="344" y="630" on="1"/>
        <pt x="338" y="630" on="0"/>
        <pt x="258" y="404" on="1"/>
      </contour>
      <contour>
        <pt x="466" y="946" on="1"/>
        <pt x="466" y="902" on="0"/>
        <pt x="371" y="813" on="0"/>
        <pt x="339" y="813" on="1"/>
        <pt x="323" y="813" on="0"/>
        <pt x="306" y="829" on="0"/>
        <pt x="306" y="853" on="0"/>
        <pt x="354" y="912" on="0"/>
        <pt x="372" y="952" on="0"/>
        <pt x="383" y="971" on="0"/>
        <pt x="408" y="990" on="0"/>
        <pt x="443" y="990" on="0"/>
        <pt x="466" y="963" on="0"/>
      </contour>
    </TTGlyph>
    <TTGlyph name="Acircumflex" xMin="54" yMin="-10" xMax="639" yMax="1010">
      <component glyphName="A" x="0" y="0" flags="0x1004"/>
      <component glyphName="circumflex" x="106" y="250" flags="0x1004"/>
    </TTGlyph>
    <TTGlyph name="Adieresis" xMin="54" yMin="-10" xMax="639" yMax="957">
      <component glyphName="A" x="0" y="0" flags="0x1004"/>
      <component glyphName="dieresis" x="108" y="250" flags="0x1004"/>
    </TTGlyph>
    <TTGlyph name="Agrave" xMin="54" yMin="-10" xMax="639" yMax="990">
      <component glyphName="A" x="0" y="0" flags="0x1004"/>
      <component glyphName="grave" x="151" y="250" flags="0x1004"/>
    </TTGlyph>
    <TTGlyph name="Aring" xMin="54" yMin="-10" xMax="639" yMax="1016">
      <contour>
        <pt x="476" y="241" on="1"/>
        <pt x="347" y="244" on="1"/>
        <pt x="251" y="244" on="0"/>
        <pt x="207" y="242" on="1"/>
        <pt x="196" y="209" on="0"/>
        <pt x="155" y="68" on="0"/>
        <pt x="129" y="-10" on="0"/>
        <pt x="96" y="-10" on="1"/>
        <pt x="77" y="-10" on="0"/>
        <pt x="54" y="14" on="0"/>
        <pt x="54" y="43" on="0"/>
        <pt x="57" y="61" on="0"/>
        <pt x="68" y="97" on="0"/>
        <pt x="74" y="113" on="1"/>
        <pt x="103" y="199" on="0"/>
        <pt x="116" y="239" on="1"/>
        <pt x="87" y="239" on="0"/>
        <pt x="54" y="264" on="0"/>
        <pt x="54" y="285" on="1"/>
        <pt x="54" y="332" on="0"/>
        <pt x="128" y="332" on="1"/>
        <pt x="146" y="332" on="1"/>
        <pt x="242" y="600" on="0"/>
        <pt x="271" y="677" on="0"/>
        <pt x="275" y="689" on="0"/>
        <pt x="284" y="712" on="0"/>
        <pt x="291" y="723" on="0"/>
        <pt x="301" y="739" on="0"/>
        <pt x="310" y="748" on="0"/>
        <pt x="316" y="752" on="1"/>
        <pt x="329" y="760" on="0"/>
        <pt x="358" y="760" on="0"/>
        <pt x="376" y="754" on="0"/>
        <pt x="392" y="738" on="0"/>
        <pt x="403" y="720" on="0"/>
        <pt x="418" y="682" on="0"/>
        <pt x="424" y="666" on="1"/>
        <pt x="472" y="519" on="0"/>
        <pt x="544" y="332" on="1"/>
        <pt x="580" y="333" on="1"/>
        <pt x="606" y="333" on="0"/>
        <pt x="639" y="305" on="0"/>
        <pt x="639" y="284" on="1"/>
        <pt x="639" y="240" on="0"/>
        <pt x="573" y="237" on="1"/>
        <pt x="583" y="205" on="0"/>
        <pt x="600" y="156" on="1"/>
        <pt x="639" y="50" on="0"/>
        <pt x="639" y="17" on="0"/>
        <pt x="616" y="-10" on="0"/>
        <pt x="596" y="-10" on="1"/>
        <pt x="560" y="-10" on="0"/>
        <pt x="544" y="29" on="1"/>
        <pt x="527" y="78" on="0"/>
      </contour>
      <contour>
        <pt x="232" y="328" on="1"/>
        <pt x="296" y="326" on="0"/>
        <pt x="415" y="326" on="0"/>
        <pt x="451" y="328" on="1"/>
        <pt x="346" y="630" on="0"/>
        <pt x="344" y="630" on="1"/>
        <pt x="338" y="630" on="0"/>
        <pt x="258" y="404" on="1"/>
      </contour>
      <contour>
        <pt x="390" y="1016" on="0"/>
        <pt x="449" y="956" on="0"/>
        <pt x="449" y="871" on="0"/>
        <pt x="392" y="815" on="0"/>
        <pt x="300" y="815" on="0"/>
        <pt x="243" y="871" on="0"/>
        <pt x="243" y="957" on="0"/>
        <pt x="302" y="1016" on="0"/>
      </contour>
      <contour>
        <pt x="384" y="899" on="0"/>
        <pt x="384" y="929" on="0"/>
        <pt x="360" y="955" on="0"/>
        <pt x="331" y="955" on="0"/>
        <pt x="308" y="930" on="0"/>
        <pt x="308" y="899" on="0"/>
        <pt x="330" y="875" on="0"/>
        <pt x="361" y="875" on="0"/>
      </contour>
    </TTGlyph>
    <TTGlyph name="Atilde" xMin="54" yMin="-10" xMax="639" yMax="955">
      <contour>
        <pt x="476" y="241" on="1"/>
        <pt x="347" y="244" on="1"/>
        <pt x="251" y="244" on="0"/>
        <pt x="207" y="242" on="1"/>
        <pt x="196" y="209" on="0"/>
        <pt x="155" y="68" on="0"/>
        <pt x="129" y="-10" on="0"/>
        <pt x="96" y="-10" on="1"/>
        <pt x="77" y="-10" on="0"/>
        <pt x="54" y="14" on="0"/>
        <pt x="54" y="43" on="0"/>
        <pt x="57" y="61" on="0"/>
        <pt x="68" y="97" on="0"/>
        <pt x="74" y="113" on="1"/>
        <pt x="103" y="199" on="0"/>
        <pt x="116" y="239" on="1"/>
        <pt x="87" y="239" on="0"/>
        <pt x="54" y="264" on="0"/>
        <pt x="54" y="285" on="1"/>
        <pt x="54" y="332" on="0"/>
        <pt x="128" y="332" on="1"/>
        <pt x="146" y="332" on="1"/>
        <pt x="242" y="600" on="0"/>
        <pt x="271" y="677" on="0"/>
        <pt x="275" y="689" on="0"/>
        <pt x="284" y="712" on="0"/>
        <pt x="291" y="723" on="0"/>
        <pt x="301" y="739" on="0"/>
        <pt x="310" y="748" on="0"/>
        <pt x="316" y="752" on="1"/>
        <pt x="329" y="760" on="0"/>
        <pt x="358" y="760" on="0"/>
        <pt x="376" y="754" on="0"/>
        <pt x="392" y="738" on="0"/>
        <pt x="403" y="720" on="0"/>
        <pt x="418" y="682" on="0"/>
        <pt x="424" y="666" on="1"/>
        <pt x="472" y="519" on="0"/>
        <pt x="544" y="332" on="1"/>
        <pt x="580" y="333" on="1"/>
        <pt x="606" y="333" on="0"/>
        <pt x="639" y="305" on="0"/>
        <pt x="639" y="284" on="1"/>
        <pt x="639" y="240" on="0"/>
        <pt x="573" y="237" on="1"/>
        <pt x="583" y="205" on="0"/>
        <pt x="600" y="156" on="1"/>
        <pt x="639" y="50" on="0"/>
        <pt x="639" y="17" on="0"/>
        <pt x="616" y="-10" on="0"/>
        <pt x="596" y="-10" on="1"/>
        <pt x="560" y="-10" on="0"/>
        <pt x="544" y="29" on="1"/>
        <pt x="527" y="78" on="0"/>
      </contour>
      <contour>
        <pt x="232" y="328" on="1"/>
        <pt x="296" y="326" on="0"/>
        <pt x="415" y="326" on="0"/>
        <pt x="451" y="328" on="1"/>
        <pt x="346" y="630" on="0"/>
        <pt x="344" y="630" on="1"/>
        <pt x="338" y="630" on="0"/>
        <pt x="258" y="404" on="1"/>
      </contour>
      <contour>
        <pt x="544" y="915" on="1"/>
        <pt x="544" y="879" on="0"/>
        <pt x="482" y="825" on="0"/>
        <pt x="404" y="825" on="0"/>
        <pt x="350" y="856" on="1"/>
        <pt x="306" y="878" on="0"/>
        <pt x="262" y="878" on="0"/>
        <pt x="213" y="819" on="0"/>
        <pt x="172" y="819" on="0"/>
        <pt x="147" y="844" on="0"/>
        <pt x="147" y="862" on="1"/>
        <pt x="147" y="898" on="0"/>
        <pt x="221" y="955" on="0"/>
        <pt x="319" y="955" on="0"/>
        <pt x="425" y="900" on="0"/>
        <pt x="460" y="900" on="0"/>
        <pt x="501" y="950" on="0"/>
        <pt x="528" y="950" on="0"/>
        <pt x="544" y="929" on="0"/>
      </contour>
    </TTGlyph>
    <TTGlyph name="B" xMin="74" yMin="-15" xMax="662" yMax="765">
      <contour>
        <pt x="662" y="212" on="1"/>
        <pt x="662" y="109" on="0"/>
        <pt x="483" y="-15" on="0"/>
        <pt x="339" y="-15" on="1"/>
        <pt x="223" y="-15" on="0"/>
        <pt x="74" y="32" on="0"/>
        <pt x="74" y="106" on="0"/>
        <pt x="124" y="106" on="1"/>
        <pt x="127" y="209" on="0"/>
        <pt x="127" y="549" on="0"/>
        <pt x="123" y="621" on="1"/>
        <pt x="80" y="634" on="0"/>
        <pt x="80" y="667" on="1"/>
        <pt x="80" y="692" on="0"/>
        <pt x="140" y="732" on="0"/>
        <pt x="183" y="743" on="1"/>
        <pt x="269" y="765" on="0"/>
        <pt x="407" y="765" on="0"/>
        <pt x="516" y="728" on="0"/>
        <pt x="546" y="698" on="1"/>
        <pt x="608" y="639" on="0"/>
        <pt x="608" y="574" on="1"/>
        <pt x="608" y="468" on="0"/>
        <pt x="511" y="409" on="1"/>
        <pt x="577" y="385" on="0"/>
        <pt x="662" y="276" on="0"/>
      </contour>
      <contour>
        <pt x="336" y="72" on="1"/>
        <pt x="441" y="72" on="0"/>
        <pt x="565" y="147" on="0"/>
        <pt x="565" y="218" on="1"/>
        <pt x="565" y="274" on="0"/>
        <pt x="456" y="349" on="0"/>
        <pt x="394" y="359" on="1"/>
        <pt x="333" y="345" on="0"/>
        <pt x="247" y="345" on="0"/>
        <pt x="218" y="349" on="1"/>
        <pt x="218" y="166" on="0"/>
        <pt x="221" y="85" on="1"/>
        <pt x="263" y="72" on="0"/>
      </contour>
      <contour>
        <pt x="336" y="679" on="1"/>
        <pt x="274" y="679" on="0"/>
        <pt x="221" y="659" on="1"/>
        <pt x="218" y="608" on="0"/>
        <pt x="218" y="439" on="1"/>
        <pt x="259" y="448" on="0"/>
        <pt x="343" y="448" on="0"/>
        <pt x="380" y="440" on="1"/>
        <pt x="420" y="442" on="0"/>
        <pt x="517" y="514" on="0"/>
        <pt x="517" y="573" on="1"/>
        <pt x="517" y="614" on="0"/>
        <pt x="428" y="679" on="0"/>
      </contour>
    </TTGlyph>
    <TTGlyph name="C" xMin="72" yMin="-15" xMax="655" yMax="765">
      <contour>
        <pt x="655" y="106" on="1"/>
        <pt x="655" y="70" on="0"/>
        <pt x="506" y="-15" on="0"/>
        <pt x="405" y="-15" on="1"/>
        <pt x="262" y="-15" on="0"/>
        <pt x="72" y="213" on="0"/>
        <pt x="72" y="539" on="0"/>
        <pt x="263" y="765" on="0"/>
        <pt x="407" y="765" on="1"/>
        <pt x="495" y="765" on="0"/>
        <pt x="634" y="699" on="0"/>
        <pt x="634" y="658" on="1"/>
        <pt x="634" y="638" on="0"/>
        <pt x="610" y="614" on="0"/>
        <pt x="569" y="614" on="0"/>
        <pt x="535" y="637" on="1"/>
        <pt x="471" y="678" on="0"/>
        <pt x="407" y="678" on="1"/>
        <pt x="303" y="678" on="0"/>
        <pt x="168" y="499" on="0"/>
        <pt x="168" y="254" on="0"/>
        <pt x="303" y="72" on="0"/>
        <pt x="499" y="72" on="0"/>
        <pt x="580" y="121" on="1"/>
        <pt x="613" y="139" on="0"/>
        <pt x="636" y="139" on="0"/>
        <pt x="655" y="120" on="0"/>
      </contour>
    </TTGlyph>
    <TTGlyph name="Ccedilla" xMin="72" yMin="-230" xMax="655" yMax="765">
      <contour>
        <pt x="515" y="-133" on="1"/>
        <pt x="515" y="-175" on="0"/>
        <pt x="440" y="-230" on="0"/>
        <pt x="336" y="-230" on="0"/>
        <pt x="273" y="-181" on="0"/>
        <pt x="273" y="-155" on="1"/>
        <pt x="273" y="-146" on="0"/>
        <pt x="288" y="-130" on="0"/>
        <pt x="311" y="-130" on="0"/>
        <pt x="362" y="-154" on="0"/>
        <pt x="400" y="-154" on="0"/>
        <pt x="424" y="-140" on="0"/>
        <pt x="424" y="-122" on="0"/>
        <pt x="395" y="-101" on="0"/>
        <pt x="361" y="-80" on="0"/>
        <pt x="331" y="-35" on="0"/>
        <pt x="331" y="-6" on="1"/>
        <pt x="215" y="22" on="0"/>
        <pt x="72" y="235" on="0"/>
        <pt x="72" y="376" on="1"/>
        <pt x="72" y="539" on="0"/>
        <pt x="263" y="765" on="0"/>
        <pt x="407" y="765" on="1"/>
        <pt x="495" y="765" on="0"/>
        <pt x="634" y="699" on="0"/>
        <pt x="634" y="658" on="1"/>
        <pt x="634" y="638" on="0"/>
        <pt x="610" y="614" on="0"/>
        <pt x="571" y="614" on="0"/>
        <pt x="535" y="637" on="1"/>
        <pt x="477" y="678" on="0"/>
        <pt x="407" y="678" on="1"/>
        <pt x="303" y="678" on="0"/>
        <pt x="168" y="499" on="0"/>
        <pt x="168" y="254" on="0"/>
        <pt x="303" y="72" on="0"/>
        <pt x="499" y="72" on="0"/>
        <pt x="580" y="121" on="1"/>
        <pt x="613" y="139" on="0"/>
        <pt x="636" y="139" on="0"/>
        <pt x="655" y="120" on="0"/>
        <pt x="655" y="106" on="1"/>
        <pt x="655" y="71" on="0"/>
        <pt x="511" y="-13" on="0"/>
        <pt x="412" y="-15" on="1"/>
        <pt x="415" y="-32" on="0"/>
        <pt x="467" y="-66" on="0"/>
        <pt x="515" y="-106" on="0"/>
      </contour>
    </TTGlyph>
    <TTGlyph name="D" xMin="75" yMin="-15" xMax="687" yMax="764">
      <contour>
        <pt x="128" y="376" on="1"/>
        <pt x="123" y="636" on="1"/>
        <pt x="79" y="640" on="0"/>
        <pt x="79" y="715" on="0"/>
        <pt x="237" y="764" on="0"/>
        <pt x="406" y="764" on="0"/>
        <pt x="552" y="698" on="0"/>
        <pt x="596" y="642" on="1"/>
        <pt x="687" y="528" on="0"/>
        <pt x="687" y="372" on="1"/>
        <pt x="687" y="220" on="0"/>
        <pt x="600" y="108" on="1"/>
        <pt x="557" y="52" on="0"/>
        <pt x="415" y="-15" on="0"/>
        <pt x="219" y="-15" on="0"/>
        <pt x="75" y="35" on="0"/>
        <pt x="75" y="74" on="1"/>
        <pt x="75" y="111" on="0"/>
        <pt x="125" y="111" on="1"/>
      </contour>
      <contour>
        <pt x="591" y="501" on="0"/>
        <pt x="448" y="678" on="0"/>
        <pt x="313" y="678" on="1"/>
        <pt x="256" y="678" on="0"/>
        <pt x="222" y="661" on="1"/>
        <pt x="219" y="599" on="0"/>
        <pt x="219" y="182" on="0"/>
        <pt x="224" y="85" on="1"/>
        <pt x="260" y="72" on="0"/>
        <pt x="390" y="72" on="0"/>
        <pt x="495" y="124" on="0"/>
        <pt x="526" y="168" on="1"/>
        <pt x="591" y="258" on="0"/>
      </contour>
    </TTGlyph>
    <TTGlyph name="E" xMin="61" yMin="-6" xMax="577" yMax="756">
      <contour>
        <pt x="514" y="662" on="1"/>
        <pt x="355" y="668" on="1"/>
        <pt x="278" y="668" on="0"/>
        <pt x="218" y="663" on="1"/>
        <pt x="218" y="441" on="1"/>
        <pt x="237" y="440" on="0"/>
        <pt x="284" y="440" on="1"/>
        <pt x="463" y="445" on="1"/>
        <pt x="490" y="445" on="0"/>
        <pt x="522" y="420" on="0"/>
        <pt x="522" y="399" on="1"/>
        <pt x="522" y="355" on="0"/>
        <pt x="463" y="355" on="1"/>
        <pt x="284" y="359" on="1"/>
        <pt x="241" y="359" on="0"/>
        <pt x="218" y="358" on="1"/>
        <pt x="218" y="279" on="1"/>
        <pt x="218" y="133" on="0"/>
        <pt x="222" y="87" on="1"/>
        <pt x="282" y="82" on="0"/>
        <pt x="358" y="82" on="1"/>
        <pt x="358" y="82" on="0"/>
        <pt x="517" y="88" on="1"/>
        <pt x="544" y="88" on="0"/>
        <pt x="577" y="63" on="0"/>
        <pt x="577" y="19" on="0"/>
        <pt x="544" y="-6" on="0"/>
        <pt x="517" y="-6" on="1"/>
        <pt x="358" y="0" on="1"/>
        <pt x="177" y="-5" on="1"/>
        <pt x="123" y="-5" on="0"/>
        <pt x="123" y="41" on="1"/>
        <pt x="123" y="76" on="0"/>
        <pt x="128" y="235" on="0"/>
        <pt x="128" y="355" on="1"/>
        <pt x="61" y="355" on="0"/>
        <pt x="61" y="399" on="1"/>
        <pt x="61" y="422" on="0"/>
        <pt x="99" y="445" on="0"/>
        <pt x="128" y="445" on="1"/>
        <pt x="126" y="632" on="0"/>
        <pt x="121" y="670" on="1"/>
        <pt x="109" y="689" on="0"/>
        <pt x="109" y="710" on="1"/>
        <pt x="109" y="755" on="0"/>
        <pt x="171" y="755" on="1"/>
        <pt x="355" y="750" on="1"/>
        <pt x="514" y="756" on="1"/>
        <pt x="541" y="756" on="0"/>
        <pt x="574" y="731" on="0"/>
        <pt x="574" y="687" on="0"/>
        <pt x="541" y="662" on="0"/>
      </contour>
    </TTGlyph>
    <TTGlyph name="Eacute" xMin="61" yMin="-6" xMax="577" yMax="990">
      <component glyphName="E" x="0" y="0" flags="0x1004"/>
      <component glyphName="acute" x="194" y="250" flags="0x1004"/>
    </TTGlyph>
    <TTGlyph name="Ecircumflex" xMin="61" yMin="-6" xMax="577" yMax="1010">
      <contour>
        <pt x="463" y="445" on="1"/>
        <pt x="284" y="440" on="1"/>
        <pt x="237" y="440" on="0"/>
        <pt x="218" y="441" on="1"/>
        <pt x="218" y="663" on="1"/>
        <pt x="278" y="668" on="0"/>
        <pt x="355" y="668" on="1"/>
        <pt x="514" y="662" on="1"/>
        <pt x="541" y="662" on="0"/>
        <pt x="574" y="687" on="0"/>
        <pt x="574" y="731" on="0"/>
        <pt x="541" y="756" on="0"/>
        <pt x="514" y="756" on="1"/>
        <pt x="355" y="750" on="1"/>
        <pt x="171" y="755" on="1"/>
        <pt x="109" y="755" on="0"/>
        <pt x="109" y="710" on="1"/>
        <pt x="109" y="689" on="0"/>
        <pt x="121" y="670" on="1"/>
        <pt x="126" y="632" on="0"/>
        <pt x="128" y="445" on="1"/>
        <pt x="99" y="445" on="0"/>
        <pt x="61" y="422" on="0"/>
        <pt x="61" y="399" on="1"/>
        <pt x="61" y="355" on="0"/>
        <pt x="128" y="355" on="1"/>
        <pt x="128" y="235" on="0"/>
        <pt x="123" y="76" on="0"/>
        <pt x="123" y="41" on="1"/>
        <pt x="123" y="-5" on="0"/>
        <pt x="177" y="-5" on="1"/>
        <pt x="358" y="0" on="1"/>
        <pt x="517" y="-6" on="1"/>
        <pt x="544" y="-6" on="0"/>
        <pt x="577" y="19" on="0"/>
        <pt x="577" y="63" on="0"/>
        <pt x="544" y="88" on="0"/>
        <pt x="517" y="88" on="1"/>
        <pt x="358" y="82" on="1"/>
        <pt x="282" y="82" on="0"/>
        <pt x="222" y="87" on="1"/>
        <pt x="218" y="133" on="0"/>
        <pt x="218" y="279" on="1"/>
        <pt x="218" y="358" on="1"/>
        <pt x="241" y="359" on="0"/>
        <pt x="284" y="359" on="1"/>
        <pt x="463" y="355" on="1"/>
        <pt x="522" y="355" on="0"/>
        <pt x="522" y="399" on="1"/>
        <pt x="522" y="420" on="0"/>
        <pt x="490" y="445" on="0"/>
      </contour>
      <contour>
        <pt x="415" y="842" on="1"/>
        <pt x="346" y="923" on="0"/>
        <pt x="332" y="923" on="1"/>
        <pt x="316" y="923" on="0"/>
        <pt x="252" y="846" on="1"/>
        <pt x="247" y="840" on="0"/>
        <pt x="244" y="838" on="1"/>
        <pt x="237" y="830" on="1"/>
        <pt x="224" y="817" on="0"/>
        <pt x="189" y="817" on="0"/>
        <pt x="167" y="838" on="0"/>
        <pt x="167" y="875" on="0"/>
        <pt x="219" y="918" on="0"/>
        <pt x="272" y="978" on="0"/>
        <pt x="310" y="1010" on="0"/>
        <pt x="353" y="1010" on="0"/>
        <pt x="392" y="978" on="0"/>
        <pt x="444" y="918" on="0"/>
        <pt x="497" y="874" on="0"/>
        <pt x="497" y="838" on="0"/>
        <pt x="475" y="817" on="0"/>
        <pt x="449" y="817" on="0"/>
        <pt x="440" y="822" on="1"/>
        <pt x="427" y="829" on="0"/>
      </contour>
    </TTGlyph>
    <TTGlyph name="Edieresis" xMin="61" yMin="-6" xMax="577" yMax="967">
      <component glyphName="E" x="0" y="0" flags="0x1004"/>
      <component glyphName="dieresis" x="98" y="260" flags="0x1004"/>
    </TTGlyph>
    <TTGlyph name="Egrave" xMin="61" yMin="-6" xMax="577" yMax="990">
      <component glyphName="E" x="0" y="0" flags="0x1004"/>
      <component glyphName="grave" x="144" y="250" flags="0x1004"/>
    </TTGlyph>
    <TTGlyph name="Eth" xMin="20" yMin="-15" xMax="697" yMax="764">
      <contour>
        <pt x="138" y="411" on="1"/>
        <pt x="133" y="636" on="1"/>
        <pt x="89" y="640" on="0"/>
        <pt x="89" y="715" on="0"/>
        <pt x="247" y="764" on="0"/>
        <pt x="416" y="764" on="0"/>
        <pt x="562" y="698" on="0"/>
        <pt x="606" y="642" on="1"/>
        <pt x="697" y="528" on="0"/>
        <pt x="697" y="372" on="1"/>
        <pt x="697" y="220" on="0"/>
        <pt x="610" y="108" on="1"/>
        <pt x="567" y="52" on="0"/>
        <pt x="425" y="-15" on="0"/>
        <pt x="229" y="-15" on="0"/>
        <pt x="85" y="35" on="0"/>
        <pt x="85" y="74" on="1"/>
        <pt x="85" y="111" on="0"/>
        <pt x="135" y="111" on="1"/>
        <pt x="138" y="334" on="1"/>
        <pt x="118" y="333" on="0"/>
        <pt x="47" y="333" on="0"/>
        <pt x="20" y="355" on="0"/>
        <pt x="20" y="391" on="0"/>
        <pt x="47" y="413" on="0"/>
        <pt x="98" y="413" on="0"/>
      </contour>
      <contour>
        <pt x="232" y="661" on="1"/>
        <pt x="229" y="606" on="0"/>
        <pt x="229" y="411" on="1"/>
        <pt x="273" y="413" on="0"/>
        <pt x="329" y="413" on="0"/>
        <pt x="356" y="391" on="0"/>
        <pt x="356" y="355" on="0"/>
        <pt x="329" y="333" on="0"/>
        <pt x="273" y="333" on="0"/>
        <pt x="229" y="335" on="1"/>
        <pt x="229" y="170" on="0"/>
        <pt x="234" y="85" on="1"/>
        <pt x="270" y="72" on="0"/>
        <pt x="400" y="72" on="0"/>
        <pt x="505" y="124" on="0"/>
        <pt x="536" y="168" on="1"/>
        <pt x="601" y="258" on="0"/>
        <pt x="601" y="501" on="0"/>
        <pt x="458" y="678" on="0"/>
        <pt x="323" y="678" on="1"/>
        <pt x="266" y="678" on="0"/>
      </contour>
    </TTGlyph>
    <TTGlyph name="Euro" xMin="66" yMin="-15" xMax="607" yMax="712">
      <contour>
        <pt x="237" y="450" on="1"/>
        <pt x="458" y="453" on="1"/>
        <pt x="480" y="453" on="0"/>
        <pt x="507" y="431" on="0"/>
        <pt x="507" y="395" on="0"/>
        <pt x="480" y="373" on="0"/>
        <pt x="458" y="373" on="1"/>
        <pt x="287" y="376" on="1"/>
        <pt x="115" y="373" on="1"/>
        <pt x="93" y="373" on="0"/>
        <pt x="66" y="395" on="0"/>
        <pt x="66" y="431" on="0"/>
        <pt x="93" y="453" on="0"/>
        <pt x="115" y="453" on="1"/>
        <pt x="151" y="452" on="1"/>
        <pt x="173" y="567" on="0"/>
        <pt x="315" y="712" on="0"/>
        <pt x="420" y="712" on="1"/>
        <pt x="497" y="712" on="0"/>
        <pt x="606" y="647" on="0"/>
        <pt x="606" y="610" on="1"/>
        <pt x="606" y="596" on="0"/>
        <pt x="586" y="573" on="0"/>
        <pt x="551" y="573" on="0"/>
        <pt x="525" y="590" on="0"/>
        <pt x="504" y="609" on="0"/>
        <pt x="454" y="626" on="0"/>
        <pt x="420" y="626" on="1"/>
        <pt x="347" y="626" on="0"/>
        <pt x="253" y="531" on="0"/>
      </contour>
      <contour>
        <pt x="288" y="321" on="1"/>
        <pt x="459" y="324" on="1"/>
        <pt x="481" y="324" on="0"/>
        <pt x="508" y="302" on="0"/>
        <pt x="508" y="266" on="0"/>
        <pt x="481" y="244" on="0"/>
        <pt x="431" y="244" on="0"/>
        <pt x="294" y="247" on="0"/>
        <pt x="238" y="247" on="1"/>
        <pt x="254" y="166" on="0"/>
        <pt x="348" y="71" on="0"/>
        <pt x="421" y="71" on="1"/>
        <pt x="486" y="71" on="0"/>
        <pt x="534" y="111" on="1"/>
        <pt x="549" y="124" on="0"/>
        <pt x="587" y="124" on="0"/>
        <pt x="607" y="101" on="0"/>
        <pt x="607" y="87" on="1"/>
        <pt x="607" y="50" on="0"/>
        <pt x="498" y="-15" on="0"/>
        <pt x="421" y="-15" on="1"/>
        <pt x="316" y="-15" on="0"/>
        <pt x="174" y="130" on="0"/>
        <pt x="152" y="245" on="1"/>
        <pt x="116" y="244" on="1"/>
        <pt x="94" y="244" on="0"/>
        <pt x="67" y="266" on="0"/>
        <pt x="67" y="302" on="0"/>
        <pt x="94" y="324" on="0"/>
        <pt x="116" y="324" on="1"/>
      </contour>
    </TTGlyph>
    <TTGlyph name="F" xMin="60" yMin="-10" xMax="575" yMax="756">
      <contour>
        <pt x="284" y="440" on="1"/>
        <pt x="454" y="445" on="1"/>
        <pt x="481" y="445" on="0"/>
        <pt x="513" y="420" on="0"/>
        <pt x="513" y="399" on="1"/>
        <pt x="513" y="355" on="0"/>
        <pt x="454" y="355" on="1"/>
        <pt x="284" y="359" on="1"/>
        <pt x="240" y="359" on="0"/>
        <pt x="217" y="358" on="1"/>
        <pt x="217" y="227" on="0"/>
        <pt x="223" y="69" on="0"/>
        <pt x="223" y="61" on="1"/>
        <pt x="223" y="-10" on="0"/>
        <pt x="121" y="-10" on="0"/>
        <pt x="121" y="61" on="1"/>
        <pt x="121" y="69" on="0"/>
        <pt x="122" y="108" on="1"/>
        <pt x="127" y="225" on="0"/>
        <pt x="127" y="355" on="1"/>
        <pt x="60" y="355" on="0"/>
        <pt x="60" y="399" on="1"/>
        <pt x="60" y="422" on="0"/>
        <pt x="98" y="445" on="0"/>
        <pt x="127" y="445" on="1"/>
        <pt x="125" y="632" on="0"/>
        <pt x="120" y="670" on="1"/>
        <pt x="108" y="689" on="0"/>
        <pt x="108" y="710" on="1"/>
        <pt x="108" y="755" on="0"/>
        <pt x="170" y="755" on="1"/>
        <pt x="355" y="750" on="1"/>
        <pt x="515" y="756" on="1"/>
        <pt x="542" y="756" on="0"/>
        <pt x="575" y="731" on="0"/>
        <pt x="575" y="687" on="0"/>
        <pt x="542" y="662" on="0"/>
        <pt x="515" y="662" on="1"/>
        <pt x="355" y="668" on="1"/>
        <pt x="277" y="668" on="0"/>
        <pt x="217" y="663" on="1"/>
        <pt x="217" y="441" on="1"/>
        <pt x="236" y="440" on="0"/>
      </contour>
    </TTGlyph>
    <TTGlyph name="G" xMin="72" yMin="-15" xMax="712" yMax="765">
      <contour>
        <pt x="526" y="398" on="1"/>
        <pt x="652" y="404" on="1"/>
        <pt x="679" y="404" on="0"/>
        <pt x="712" y="378" on="0"/>
        <pt x="712" y="353" on="1"/>
        <pt x="712" y="183" on="0"/>
        <pt x="541" y="-15" on="0"/>
        <pt x="262" y="-15" on="0"/>
        <pt x="72" y="213" on="0"/>
        <pt x="72" y="539" on="0"/>
        <pt x="268" y="765" on="0"/>
        <pt x="418" y="765" on="1"/>
        <pt x="511" y="765" on="0"/>
        <pt x="664" y="691" on="0"/>
        <pt x="664" y="648" on="1"/>
        <pt x="664" y="629" on="0"/>
        <pt x="641" y="607" on="0"/>
        <pt x="596" y="607" on="0"/>
        <pt x="558" y="634" on="1"/>
        <pt x="497" y="678" on="0"/>
        <pt x="418" y="678" on="1"/>
        <pt x="310" y="678" on="0"/>
        <pt x="168" y="500" on="0"/>
        <pt x="168" y="255" on="0"/>
        <pt x="304" y="72" on="0"/>
        <pt x="407" y="72" on="1"/>
        <pt x="492" y="72" on="0"/>
        <pt x="606" y="198" on="0"/>
        <pt x="610" y="314" on="1"/>
        <pt x="577" y="317" on="0"/>
        <pt x="526" y="317" on="1"/>
        <pt x="391" y="312" on="1"/>
        <pt x="364" y="312" on="0"/>
        <pt x="334" y="336" on="0"/>
        <pt x="334" y="377" on="0"/>
        <pt x="364" y="403" on="0"/>
        <pt x="391" y="403" on="1"/>
      </contour>
    </TTGlyph>
    <TTGlyph name="H" xMin="59" yMin="-10" xMax="709" yMax="760">
      <contour>
        <pt x="553" y="353" on="1"/>
        <pt x="381" y="355" on="1"/>
        <pt x="265" y="355" on="0"/>
        <pt x="213" y="354" on="1"/>
        <pt x="213" y="275" on="0"/>
        <pt x="219" y="66" on="0"/>
        <pt x="219" y="61" on="1"/>
        <pt x="219" y="-10" on="0"/>
        <pt x="117" y="-10" on="0"/>
        <pt x="117" y="61" on="1"/>
        <pt x="117" y="66" on="0"/>
        <pt x="123" y="272" on="0"/>
        <pt x="123" y="351" on="1"/>
        <pt x="59" y="351" on="0"/>
        <pt x="59" y="396" on="1"/>
        <pt x="59" y="417" on="0"/>
        <pt x="92" y="442" on="0"/>
        <pt x="123" y="442" on="1"/>
        <pt x="123" y="521" on="0"/>
        <pt x="117" y="684" on="0"/>
        <pt x="117" y="689" on="1"/>
        <pt x="117" y="760" on="0"/>
        <pt x="219" y="760" on="0"/>
        <pt x="219" y="689" on="1"/>
        <pt x="219" y="684" on="0"/>
        <pt x="213" y="518" on="0"/>
        <pt x="213" y="439" on="1"/>
        <pt x="311" y="437" on="0"/>
        <pt x="505" y="437" on="0"/>
        <pt x="553" y="439" on="1"/>
        <pt x="553" y="518" on="0"/>
        <pt x="548" y="684" on="0"/>
        <pt x="548" y="689" on="1"/>
        <pt x="548" y="760" on="0"/>
        <pt x="650" y="760" on="0"/>
        <pt x="650" y="689" on="1"/>
        <pt x="650" y="684" on="0"/>
        <pt x="644" y="522" on="0"/>
        <pt x="644" y="443" on="1"/>
        <pt x="674" y="443" on="0"/>
        <pt x="709" y="417" on="0"/>
        <pt x="709" y="375" on="0"/>
        <pt x="674" y="350" on="0"/>
        <pt x="644" y="350" on="1"/>
        <pt x="644" y="271" on="0"/>
        <pt x="650" y="66" on="0"/>
        <pt x="650" y="61" on="1"/>
        <pt x="650" y="-10" on="0"/>
        <pt x="548" y="-10" on="0"/>
        <pt x="548" y="61" on="1"/>
      </contour>
    </TTGlyph>
    <TTGlyph name="Hbar" xMin="32" yMin="-10" xMax="770" yMax="760">
      <contour>
        <pt x="569" y="353" on="1"/>
        <pt x="397" y="355" on="1"/>
        <pt x="282" y="355" on="0"/>
        <pt x="230" y="354" on="1"/>
        <pt x="230" y="275" on="0"/>
        <pt x="236" y="66" on="0"/>
        <pt x="236" y="61" on="1"/>
        <pt x="236" y="-10" on="0"/>
        <pt x="134" y="-10" on="0"/>
        <pt x="134" y="61" on="1"/>
        <pt x="134" y="66" on="0"/>
        <pt x="140" y="272" on="0"/>
        <pt x="140" y="351" on="1"/>
        <pt x="76" y="351" on="0"/>
        <pt x="76" y="396" on="1"/>
        <pt x="76" y="417" on="0"/>
        <pt x="109" y="442" on="0"/>
        <pt x="140" y="442" on="1"/>
        <pt x="140" y="477" on="0"/>
        <pt x="137" y="600" on="1"/>
        <pt x="81" y="600" on="1"/>
        <pt x="59" y="600" on="0"/>
        <pt x="32" y="622" on="0"/>
        <pt x="32" y="658" on="0"/>
        <pt x="59" y="680" on="0"/>
        <pt x="81" y="680" on="1"/>
        <pt x="134" y="680" on="1"/>
        <pt x="134" y="760" on="0"/>
        <pt x="236" y="760" on="0"/>
        <pt x="236" y="679" on="1"/>
        <pt x="401" y="677" on="1"/>
        <pt x="564" y="679" on="1"/>
        <pt x="564" y="760" on="0"/>
        <pt x="666" y="760" on="0"/>
        <pt x="666" y="680" on="1"/>
        <pt x="721" y="680" on="1"/>
        <pt x="743" y="680" on="0"/>
        <pt x="770" y="658" on="0"/>
        <pt x="770" y="622" on="0"/>
        <pt x="743" y="600" on="0"/>
        <pt x="721" y="600" on="1"/>
        <pt x="663" y="600" on="1"/>
        <pt x="660" y="540" on="0"/>
        <pt x="660" y="443" on="1"/>
        <pt x="690" y="443" on="0"/>
        <pt x="725" y="417" on="0"/>
        <pt x="725" y="375" on="0"/>
        <pt x="690" y="350" on="0"/>
        <pt x="660" y="350" on="1"/>
        <pt x="660" y="271" on="0"/>
        <pt x="666" y="66" on="0"/>
        <pt x="666" y="61" on="1"/>
        <pt x="666" y="-10" on="0"/>
        <pt x="564" y="-10" on="0"/>
        <pt x="564" y="61" on="1"/>
      </contour>
      <contour>
        <pt x="569" y="439" on="1"/>
        <pt x="569" y="538" on="0"/>
        <pt x="566" y="601" on="1"/>
        <pt x="507" y="603" on="0"/>
        <pt x="293" y="603" on="0"/>
        <pt x="233" y="601" on="1"/>
        <pt x="230" y="538" on="0"/>
        <pt x="230" y="439" on="1"/>
        <pt x="328" y="437" on="0"/>
        <pt x="521" y="437" on="0"/>
      </contour>
    </TTGlyph>
    <TTGlyph name="I" xMin="52" yMin="-6" xMax="434" yMax="756">
      <contour>
        <pt x="374" y="661" on="1"/>
        <pt x="292" y="665" on="1"/>
        <pt x="288" y="568" on="0"/>
        <pt x="288" y="205" on="0"/>
        <pt x="293" y="83" on="1"/>
        <pt x="374" y="87" on="1"/>
        <pt x="401" y="87" on="0"/>
        <pt x="434" y="62" on="0"/>
        <pt x="434" y="19" on="0"/>
        <pt x="401" y="-6" on="0"/>
        <pt x="374" y="-6" on="1"/>
        <pt x="243" y="0" on="1"/>
        <pt x="112" y="-6" on="1"/>
        <pt x="85" y="-6" on="0"/>
        <pt x="52" y="19" on="0"/>
        <pt x="52" y="62" on="0"/>
        <pt x="85" y="87" on="0"/>
        <pt x="112" y="87" on="1"/>
        <pt x="193" y="82" on="1"/>
        <pt x="198" y="204" on="0"/>
        <pt x="198" y="568" on="0"/>
        <pt x="194" y="665" on="1"/>
        <pt x="112" y="661" on="1"/>
        <pt x="85" y="661" on="0"/>
        <pt x="52" y="687" on="0"/>
        <pt x="52" y="731" on="0"/>
        <pt x="85" y="756" on="0"/>
        <pt x="112" y="756" on="1"/>
        <pt x="243" y="750" on="1"/>
        <pt x="374" y="756" on="1"/>
        <pt x="401" y="756" on="0"/>
        <pt x="434" y="731" on="0"/>
        <pt x="434" y="687" on="0"/>
        <pt x="401" y="661" on="0"/>
      </contour>
    </TTGlyph>
    <TTGlyph name="IJ" xMin="52" yMin="-16" xMax="954" yMax="756">
      <contour>
        <pt x="374" y="661" on="1"/>
        <pt x="292" y="665" on="1"/>
        <pt x="288" y="568" on="0"/>
        <pt x="288" y="205" on="0"/>
        <pt x="293" y="83" on="1"/>
        <pt x="374" y="87" on="1"/>
        <pt x="401" y="87" on="0"/>
        <pt x="434" y="62" on="0"/>
        <pt x="434" y="19" on="0"/>
        <pt x="401" y="-6" on="0"/>
        <pt x="374" y="-6" on="1"/>
        <pt x="243" y="0" on="1"/>
        <pt x="112" y="-6" on="1"/>
        <pt x="85" y="-6" on="0"/>
        <pt x="52" y="19" on="0"/>
        <pt x="52" y="62" on="0"/>
        <pt x="85" y="87" on="0"/>
        <pt x="112" y="87" on="1"/>
        <pt x="193" y="82" on="1"/>
        <pt x="198" y="204" on="0"/>
        <pt x="198" y="568" on="0"/>
        <pt x="194" y="665" on="1"/>
        <pt x="112" y="661" on="1"/>
        <pt x="85" y="661" on="0"/>
        <pt x="52" y="687" on="0"/>
        <pt x="52" y="731" on="0"/>
        <pt x="85" y="756" on="0"/>
        <pt x="112" y="756" on="1"/>
        <pt x="243" y="750" on="1"/>
        <pt x="374" y="756" on="1"/>
        <pt x="401" y="756" on="0"/>
        <pt x="434" y="731" on="0"/>
        <pt x="434" y="687" on="0"/>
        <pt x="401" y="661" on="0"/>
      </contour>
      <contour>
        <pt x="745" y="750" on="1"/>
        <pt x="894" y="756" on="1"/>
        <pt x="921" y="756" on="0"/>
        <pt x="954" y="731" on="0"/>
        <pt x="954" y="688" on="0"/>
        <pt x="916" y="662" on="0"/>
        <pt x="886" y="662" on="1"/>
        <pt x="885" y="600" on="0"/>
        <pt x="885" y="257" on="1"/>
        <pt x="885" y="184" on="0"/>
        <pt x="844" y="74" on="0"/>
        <pt x="810" y="44" on="1"/>
        <pt x="743" y="-15" on="0"/>
        <pt x="572" y="-15" on="0"/>
        <pt x="463" y="54" on="0"/>
        <pt x="463" y="87" on="1"/>
        <pt x="463" y="106" on="0"/>
        <pt x="485" y="129" on="0"/>
        <pt x="521" y="129" on="0"/>
        <pt x="557" y="101" on="0"/>
        <pt x="613" y="72" on="0"/>
        <pt x="654" y="72" on="1"/>
        <pt x="712" y="72" on="0"/>
        <pt x="795" y="171" on="0"/>
        <pt x="795" y="278" on="1"/>
        <pt x="792" y="667" on="1"/>
        <pt x="730" y="667" on="0"/>
        <pt x="628" y="661" on="0"/>
        <pt x="589" y="661" on="0"/>
        <pt x="556" y="686" on="0"/>
        <pt x="556" y="730" on="0"/>
        <pt x="589" y="755" on="0"/>
        <pt x="616" y="755" on="1"/>
      </contour>
    </TTGlyph>
    <TTGlyph name="Iacute" xMin="52" yMin="-7" xMax="450" yMax="990">
      <contour>
        <pt x="390" y="661" on="1"/>
        <pt x="300" y="665" on="1"/>
        <pt x="296" y="568" on="0"/>
        <pt x="296" y="205" on="0"/>
        <pt x="301" y="83" on="1"/>
        <pt x="390" y="88" on="1"/>
        <pt x="417" y="88" on="0"/>
        <pt x="450" y="63" on="0"/>
        <pt x="450" y="19" on="0"/>
        <pt x="417" y="-6" on="0"/>
        <pt x="390" y="-6" on="1"/>
        <pt x="390" y="-6" on="0"/>
        <pt x="251" y="0" on="1"/>
        <pt x="251" y="0" on="0"/>
        <pt x="112" y="-7" on="1"/>
        <pt x="85" y="-7" on="0"/>
        <pt x="52" y="18" on="0"/>
        <pt x="52" y="62" on="0"/>
        <pt x="85" y="87" on="0"/>
        <pt x="112" y="87" on="1"/>
        <pt x="201" y="82" on="1"/>
        <pt x="206" y="204" on="0"/>
        <pt x="206" y="568" on="0"/>
        <pt x="202" y="665" on="1"/>
        <pt x="112" y="661" on="1"/>
        <pt x="85" y="661" on="0"/>
        <pt x="52" y="686" on="0"/>
        <pt x="52" y="730" on="0"/>
        <pt x="85" y="755" on="0"/>
        <pt x="112" y="755" on="1"/>
        <pt x="251" y="750" on="1"/>
        <pt x="390" y="756" on="1"/>
        <pt x="417" y="756" on="0"/>
        <pt x="450" y="731" on="0"/>
        <pt x="450" y="687" on="0"/>
        <pt x="417" y="661" on="0"/>
      </contour>
      <contour>
        <pt x="360" y="946" on="1"/>
        <pt x="360" y="902" on="0"/>
        <pt x="265" y="813" on="0"/>
        <pt x="233" y="813" on="1"/>
        <pt x="217" y="813" on="0"/>
        <pt x="200" y="829" on="0"/>
        <pt x="200" y="853" on="0"/>
        <pt x="248" y="912" on="0"/>
        <pt x="266" y="952" on="0"/>
        <pt x="277" y="971" on="0"/>
        <pt x="302" y="990" on="0"/>
        <pt x="337" y="990" on="0"/>
        <pt x="360" y="963" on="0"/>
      </contour>
    </TTGlyph>
    <TTGlyph name="Icircumflex" xMin="52" yMin="-6" xMax="434" yMax="1010">
      <contour>
        <pt x="374" y="661" on="1"/>
        <pt x="292" y="665" on="1"/>
        <pt x="288" y="568" on="0"/>
        <pt x="288" y="205" on="0"/>
        <pt x="293" y="83" on="1"/>
        <pt x="374" y="87" on="1"/>
        <pt x="401" y="87" on="0"/>
        <pt x="434" y="62" on="0"/>
        <pt x="434" y="19" on="0"/>
        <pt x="401" y="-6" on="0"/>
        <pt x="374" y="-6" on="1"/>
        <pt x="243" y="0" on="1"/>
        <pt x="112" y="-6" on="1"/>
        <pt x="85" y="-6" on="0"/>
        <pt x="52" y="19" on="0"/>
        <pt x="52" y="62" on="0"/>
        <pt x="85" y="87" on="0"/>
        <pt x="112" y="87" on="1"/>
        <pt x="193" y="82" on="1"/>
        <pt x="198" y="204" on="0"/>
        <pt x="198" y="568" on="0"/>
        <pt x="194" y="665" on="1"/>
        <pt x="112" y="661" on="1"/>
        <pt x="85" y="661" on="0"/>
        <pt x="52" y="687" on="0"/>
        <pt x="52" y="731" on="0"/>
        <pt x="85" y="756" on="0"/>
        <pt x="112" y="756" on="1"/>
        <pt x="243" y="750" on="1"/>
        <pt x="374" y="756" on="1"/>
        <pt x="401" y="756" on="0"/>
        <pt x="434" y="731" on="0"/>
        <pt x="434" y="687" on="0"/>
        <pt x="401" y="661" on="0"/>
      </contour>
      <contour>
        <pt x="329" y="842" on="1"/>
        <pt x="260" y="923" on="0"/>
        <pt x="246" y="923" on="1"/>
        <pt x="230" y="923" on="0"/>
        <pt x="166" y="846" on="1"/>
        <pt x="161" y="840" on="0"/>
        <pt x="158" y="838" on="1"/>
        <pt x="151" y="830" on="1"/>
        <pt x="138" y="817" on="0"/>
        <pt x="103" y="817" on="0"/>
        <pt x="81" y="838" on="0"/>
        <pt x="81" y="875" on="0"/>
        <pt x="133" y="918" on="0"/>
        <pt x="186" y="978" on="0"/>
        <pt x="224" y="1010" on="0"/>
        <pt x="267" y="1010" on="0"/>
        <pt x="306" y="978" on="0"/>
        <pt x="358" y="918" on="0"/>
        <pt x="411" y="874" on="0"/>
        <pt x="411" y="838" on="0"/>
        <pt x="389" y="817" on="0"/>
        <pt x="363" y="817" on="0"/>
        <pt x="354" y="822" on="1"/>
        <pt x="341" y="829" on="0"/>
      </contour>
    </TTGlyph>
    <TTGlyph name="Idieresis" xMin="52" yMin="-6" xMax="434" yMax="967">
      <component glyphName="I" x="0" y="0" flags="0x1004"/>
      <component glyphName="dieresis" x="5" y="260" flags="0x1004"/>
    </TTGlyph>
    <TTGlyph name="Idot" xMin="52" yMin="-7" xMax="450" yMax="964">
      <contour>
        <pt x="282" y="964" on="0"/>
        <pt x="309" y="930" on="0"/>
        <pt x="309" y="878" on="0"/>
        <pt x="275" y="835" on="0"/>
        <pt x="226" y="835" on="0"/>
        <pt x="198" y="871" on="0"/>
        <pt x="198" y="923" on="0"/>
        <pt x="231" y="964" on="0"/>
      </contour>
      <contour>
        <pt x="390" y="661" on="1"/>
        <pt x="300" y="665" on="1"/>
        <pt x="296" y="568" on="0"/>
        <pt x="296" y="205" on="0"/>
        <pt x="301" y="83" on="1"/>
        <pt x="390" y="88" on="1"/>
        <pt x="417" y="88" on="0"/>
        <pt x="450" y="63" on="0"/>
        <pt x="450" y="19" on="0"/>
        <pt x="417" y="-6" on="0"/>
        <pt x="390" y="-6" on="1"/>
        <pt x="251" y="0" on="1"/>
        <pt x="112" y="-7" on="1"/>
        <pt x="85" y="-7" on="0"/>
        <pt x="52" y="18" on="0"/>
        <pt x="52" y="62" on="0"/>
        <pt x="85" y="87" on="0"/>
        <pt x="112" y="87" on="1"/>
        <pt x="201" y="82" on="1"/>
        <pt x="206" y="204" on="0"/>
        <pt x="206" y="568" on="0"/>
        <pt x="202" y="665" on="1"/>
        <pt x="112" y="661" on="1"/>
        <pt x="85" y="661" on="0"/>
        <pt x="52" y="686" on="0"/>
        <pt x="52" y="730" on="0"/>
        <pt x="85" y="755" on="0"/>
        <pt x="112" y="755" on="1"/>
        <pt x="251" y="750" on="1"/>
        <pt x="390" y="756" on="1"/>
        <pt x="417" y="756" on="0"/>
        <pt x="450" y="731" on="0"/>
        <pt x="450" y="687" on="0"/>
        <pt x="417" y="661" on="0"/>
      </contour>
    </TTGlyph>
    <TTGlyph name="Igrave" xMin="52" yMin="-6" xMax="434" yMax="990">
      <component glyphName="I" x="0" y="0" flags="0x1004"/>
      <component glyphName="grave" x="48" y="250" flags="0x1004"/>
    </TTGlyph>
    <TTGlyph name="Itilde" xMin="45" yMin="-6" xMax="442" yMax="964">
      <component glyphName="I" x="0" y="0" flags="0x1004"/>
      <component glyphName="tilde" x="-40" y="259" flags="0x1004"/>
    </TTGlyph>
    <TTGlyph name="J" xMin="46" yMin="-16" xMax="537" yMax="756">
      <contour>
        <pt x="328" y="750" on="1"/>
        <pt x="477" y="756" on="1"/>
        <pt x="504" y="756" on="0"/>
        <pt x="537" y="731" on="0"/>
        <pt x="537" y="688" on="0"/>
        <pt x="499" y="662" on="0"/>
        <pt x="469" y="662" on="1"/>
        <pt x="468" y="600" on="0"/>
        <pt x="468" y="257" on="1"/>
        <pt x="468" y="184" on="0"/>
        <pt x="427" y="74" on="0"/>
        <pt x="393" y="44" on="1"/>
        <pt x="326" y="-15" on="0"/>
        <pt x="155" y="-15" on="0"/>
        <pt x="46" y="54" on="0"/>
        <pt x="46" y="87" on="1"/>
        <pt x="46" y="106" on="0"/>
        <pt x="68" y="129" on="0"/>
        <pt x="104" y="129" on="0"/>
        <pt x="140" y="101" on="0"/>
        <pt x="196" y="72" on="0"/>
        <pt x="237" y="72" on="1"/>
        <pt x="295" y="72" on="0"/>
        <pt x="378" y="171" on="0"/>
        <pt x="378" y="278" on="1"/>
        <pt x="375" y="667" on="1"/>
        <pt x="312" y="667" on="0"/>
        <pt x="210" y="661" on="0"/>
        <pt x="172" y="661" on="0"/>
        <pt x="139" y="686" on="0"/>
        <pt x="139" y="730" on="0"/>
        <pt x="172" y="755" on="0"/>
        <pt x="199" y="755" on="1"/>
      </contour>
    </TTGlyph>
    <TTGlyph name="Jcircumflex" xMin="46" yMin="-15" xMax="537" yMax="1010">
      <component glyphName="J" x="0" y="0" flags="0x1004"/>
      <component glyphName="circumflex" x="93" y="250" flags="0x1004"/>
    </TTGlyph>
    <TTGlyph name="K" xMin="113" yMin="-10" xMax="659" yMax="760">
      <contour>
        <pt x="208" y="337" on="1"/>
        <pt x="213" y="47" on="1"/>
        <pt x="213" y="23" on="0"/>
        <pt x="183" y="-10" on="0"/>
        <pt x="142" y="-10" on="0"/>
        <pt x="113" y="23" on="0"/>
        <pt x="113" y="47" on="1"/>
        <pt x="113" y="47" on="0"/>
        <pt x="117" y="372" on="1"/>
        <pt x="113" y="702" on="1"/>
        <pt x="113" y="726" on="0"/>
        <pt x="142" y="759" on="0"/>
        <pt x="183" y="759" on="0"/>
        <pt x="213" y="726" on="0"/>
        <pt x="213" y="702" on="1"/>
        <pt x="210" y="612" on="1"/>
        <pt x="208" y="522" on="0"/>
        <pt x="208" y="434" on="1"/>
        <pt x="235" y="442" on="0"/>
        <pt x="277" y="442" on="1"/>
        <pt x="333" y="436" on="1"/>
        <pt x="380" y="471" on="0"/>
        <pt x="477" y="642" on="0"/>
        <pt x="493" y="714" on="1"/>
        <pt x="504" y="760" on="0"/>
        <pt x="541" y="760" on="1"/>
        <pt x="558" y="760" on="0"/>
        <pt x="583" y="734" on="0"/>
        <pt x="583" y="715" on="1"/>
        <pt x="583" y="653" on="0"/>
        <pt x="472" y="451" on="0"/>
        <pt x="408" y="386" on="1"/>
        <pt x="510" y="202" on="0"/>
        <pt x="575" y="119" on="1"/>
        <pt x="610" y="75" on="0"/>
        <pt x="641" y="75" on="1"/>
        <pt x="652" y="76" on="1"/>
        <pt x="659" y="76" on="0"/>
        <pt x="659" y="32" on="0"/>
        <pt x="623" y="-10" on="0"/>
        <pt x="567" y="-10" on="0"/>
        <pt x="540" y="14" on="1"/>
        <pt x="485" y="61" on="0"/>
        <pt x="324" y="341" on="1"/>
        <pt x="260" y="334" on="1"/>
        <pt x="224" y="334" on="0"/>
      </contour>
    </TTGlyph>
    <TTGlyph name="Kcommaaccent" xMin="113" yMin="-236" xMax="659" yMax="760">
      <contour>
        <pt x="229" y="-80" on="0"/>
        <pt x="253" y="-47" on="0"/>
        <pt x="298" y="-47" on="0"/>
        <pt x="323" y="-76" on="0"/>
        <pt x="323" y="-97" on="1"/>
        <pt x="323" y="-141" on="0"/>
        <pt x="241" y="-236" on="0"/>
        <pt x="214" y="-236" on="1"/>
        <pt x="200" y="-236" on="0"/>
        <pt x="182" y="-220" on="0"/>
        <pt x="182" y="-201" on="0"/>
        <pt x="211" y="-148" on="1"/>
        <pt x="216" y="-139" on="0"/>
      </contour>
      <contour>
        <pt x="208" y="337" on="1"/>
        <pt x="213" y="47" on="1"/>
        <pt x="213" y="23" on="0"/>
        <pt x="183" y="-10" on="0"/>
        <pt x="142" y="-10" on="0"/>
        <pt x="113" y="23" on="0"/>
        <pt x="113" y="47" on="1"/>
        <pt x="117" y="372" on="1"/>
        <pt x="113" y="702" on="1"/>
        <pt x="113" y="726" on="0"/>
        <pt x="142" y="759" on="0"/>
        <pt x="183" y="759" on="0"/>
        <pt x="213" y="726" on="0"/>
        <pt x="213" y="702" on="1"/>
        <pt x="210" y="612" on="1"/>
        <pt x="208" y="522" on="0"/>
        <pt x="208" y="434" on="1"/>
        <pt x="235" y="442" on="0"/>
        <pt x="277" y="442" on="1"/>
        <pt x="333" y="436" on="1"/>
        <pt x="380" y="471" on="0"/>
        <pt x="477" y="642" on="0"/>
        <pt x="493" y="714" on="1"/>
        <pt x="504" y="760" on="0"/>
        <pt x="541" y="760" on="1"/>
        <pt x="558" y="760" on="0"/>
        <pt x="583" y="734" on="0"/>
        <pt x="583" y="715" on="1"/>
        <pt x="583" y="653" on="0"/>
        <pt x="472" y="451" on="0"/>
        <pt x="408" y="386" on="1"/>
        <pt x="510" y="202" on="0"/>
        <pt x="575" y="119" on="1"/>
        <pt x="610" y="75" on="0"/>
        <pt x="641" y="75" on="1"/>
        <pt x="652" y="76" on="1"/>
        <pt x="659" y="76" on="0"/>
        <pt x="659" y="32" on="0"/>
        <pt x="623" y="-10" on="0"/>
        <pt x="567" y="-10" on="0"/>
        <pt x="540" y="14" on="1"/>
        <pt x="485" y="61" on="0"/>
        <pt x="324" y="341" on="1"/>
        <pt x="260" y="334" on="1"/>
        <pt x="224" y="334" on="0"/>
      </contour>
    </TTGlyph>
    <TTGlyph name="L" xMin="113" yMin="-5" xMax="547" yMax="760">
      <contour>
        <pt x="115" y="54" on="1"/>
        <pt x="119" y="380" on="1"/>
        <pt x="119" y="511" on="0"/>
        <pt x="113" y="681" on="0"/>
        <pt x="113" y="689" on="1"/>
        <pt x="113" y="760" on="0"/>
        <pt x="215" y="760" on="0"/>
        <pt x="215" y="689" on="1"/>
        <pt x="215" y="681" on="0"/>
        <pt x="214" y="638" on="1"/>
        <pt x="209" y="511" on="0"/>
        <pt x="209" y="300" on="0"/>
        <pt x="211" y="181" on="0"/>
        <pt x="215" y="98" on="0"/>
        <pt x="215" y="87" on="1"/>
        <pt x="263" y="82" on="0"/>
        <pt x="375" y="82" on="0"/>
        <pt x="481" y="89" on="0"/>
        <pt x="514" y="89" on="0"/>
        <pt x="547" y="64" on="0"/>
        <pt x="547" y="20" on="0"/>
        <pt x="514" y="-5" on="0"/>
        <pt x="487" y="-5" on="1"/>
        <pt x="338" y="0" on="1"/>
        <pt x="176" y="-5" on="1"/>
        <pt x="146" y="-5" on="0"/>
        <pt x="115" y="20" on="0"/>
      </contour>
    </TTGlyph>
    <TTGlyph name="Ldot" xMin="113" yMin="-5" xMax="547" yMax="760">
      <contour>
        <pt x="395" y="445" on="0"/>
        <pt x="422" y="411" on="0"/>
        <pt x="422" y="358" on="0"/>
        <pt x="388" y="316" on="0"/>
        <pt x="339" y="316" on="0"/>
        <pt x="311" y="352" on="0"/>
        <pt x="311" y="404" on="0"/>
        <pt x="344" y="445" on="0"/>
      </contour>
      <contour>
        <pt x="115" y="54" on="1"/>
        <pt x="119" y="380" on="1"/>
        <pt x="119" y="511" on="0"/>
        <pt x="113" y="681" on="0"/>
        <pt x="113" y="689" on="1"/>
        <pt x="113" y="760" on="0"/>
        <pt x="215" y="760" on="0"/>
        <pt x="215" y="689" on="1"/>
        <pt x="215" y="681" on="0"/>
        <pt x="214" y="638" on="1"/>
        <pt x="209" y="511" on="0"/>
        <pt x="209" y="300" on="0"/>
        <pt x="211" y="181" on="0"/>
        <pt x="215" y="98" on="0"/>
        <pt x="215" y="87" on="1"/>
        <pt x="263" y="82" on="0"/>
        <pt x="375" y="82" on="0"/>
        <pt x="481" y="89" on="0"/>
        <pt x="514" y="89" on="0"/>
        <pt x="547" y="64" on="0"/>
        <pt x="547" y="20" on="0"/>
        <pt x="514" y="-5" on="0"/>
        <pt x="487" y="-5" on="1"/>
        <pt x="338" y="0" on="1"/>
        <pt x="176" y="-5" on="1"/>
        <pt x="146" y="-5" on="0"/>
        <pt x="115" y="20" on="0"/>
      </contour>
    </TTGlyph>
    <TTGlyph name="Lslash" xMin="24" yMin="-5" xMax="564" yMax="760">
      <contour>
        <pt x="135" y="449" on="1"/>
        <pt x="130" y="689" on="1"/>
        <pt x="130" y="760" on="0"/>
        <pt x="232" y="760" on="0"/>
        <pt x="232" y="689" on="1"/>
        <pt x="232" y="682" on="0"/>
        <pt x="231" y="660" on="1"/>
        <pt x="228" y="587" on="0"/>
        <pt x="226" y="527" on="1"/>
        <pt x="285" y="582" on="1"/>
        <pt x="306" y="599" on="0"/>
        <pt x="336" y="599" on="0"/>
        <pt x="361" y="574" on="0"/>
        <pt x="361" y="540" on="0"/>
        <pt x="339" y="522" on="1"/>
        <pt x="226" y="429" on="1"/>
        <pt x="226" y="380" on="1"/>
        <pt x="226" y="222" on="0"/>
        <pt x="232" y="98" on="0"/>
        <pt x="232" y="87" on="1"/>
        <pt x="280" y="82" on="0"/>
        <pt x="393" y="82" on="0"/>
        <pt x="498" y="89" on="0"/>
        <pt x="531" y="89" on="0"/>
        <pt x="564" y="64" on="0"/>
        <pt x="564" y="20" on="0"/>
        <pt x="531" y="-5" on="0"/>
        <pt x="504" y="-5" on="1"/>
        <pt x="356" y="0" on="1"/>
        <pt x="193" y="-5" on="1"/>
        <pt x="163" y="-5" on="0"/>
        <pt x="132" y="20" on="0"/>
        <pt x="132" y="54" on="1"/>
        <pt x="132" y="62" on="0"/>
        <pt x="133" y="102" on="1"/>
        <pt x="135" y="182" on="0"/>
        <pt x="135" y="350" on="1"/>
        <pt x="99" y="317" on="1"/>
        <pt x="82" y="302" on="0"/>
        <pt x="48" y="302" on="0"/>
        <pt x="24" y="325" on="0"/>
        <pt x="24" y="361" on="0"/>
        <pt x="44" y="377" on="1"/>
      </contour>
    </TTGlyph>
    <TTGlyph name="M" xMin="113" yMin="-10" xMax="760" yMax="760">
      <contour>
        <pt x="214" y="48" on="1"/>
        <pt x="214" y="22" on="0"/>
        <pt x="186" y="-10" on="0"/>
        <pt x="141" y="-10" on="0"/>
        <pt x="113" y="22" on="0"/>
        <pt x="113" y="56" on="0"/>
        <pt x="114" y="104" on="1"/>
        <pt x="118" y="216" on="0"/>
        <pt x="118" y="475" on="0"/>
        <pt x="113" y="694" on="0"/>
        <pt x="113" y="697" on="1"/>
        <pt x="113" y="726" on="0"/>
        <pt x="142" y="760" on="0"/>
        <pt x="163" y="760" on="1"/>
        <pt x="195" y="760" on="0"/>
        <pt x="213" y="721" on="1"/>
        <pt x="436" y="242" on="1"/>
        <pt x="528" y="436" on="0"/>
        <pt x="639" y="684" on="1"/>
        <pt x="661" y="733" on="0"/>
        <pt x="685" y="760" on="0"/>
        <pt x="730" y="760" on="0"/>
        <pt x="759" y="727" on="0"/>
        <pt x="759" y="697" on="1"/>
        <pt x="754" y="671" on="0"/>
        <pt x="754" y="269" on="0"/>
        <pt x="760" y="51" on="0"/>
        <pt x="760" y="48" on="1"/>
        <pt x="760" y="22" on="0"/>
        <pt x="732" y="-10" on="0"/>
        <pt x="687" y="-10" on="0"/>
        <pt x="659" y="22" on="0"/>
        <pt x="659" y="57" on="0"/>
        <pt x="660" y="104" on="1"/>
        <pt x="666" y="279" on="0"/>
        <pt x="666" y="372" on="1"/>
        <pt x="666" y="525" on="1"/>
        <pt x="485" y="144" on="1"/>
        <pt x="468" y="109" on="0"/>
        <pt x="410" y="109" on="0"/>
        <pt x="392" y="146" on="1"/>
        <pt x="208" y="525" on="1"/>
        <pt x="208" y="372" on="1"/>
        <pt x="208" y="269" on="0"/>
        <pt x="214" y="51" on="0"/>
      </contour>
    </TTGlyph>
    <TTGlyph name="N" xMin="113" yMin="-10" xMax="632" yMax="760">
      <contour>
        <pt x="626" y="372" on="1"/>
        <pt x="629" y="62" on="1"/>
        <pt x="629" y="-10" on="0"/>
        <pt x="576" y="-10" on="1"/>
        <pt x="543" y="-10" on="0"/>
        <pt x="526" y="21" on="1"/>
        <pt x="209" y="567" on="1"/>
        <pt x="209" y="334" on="0"/>
        <pt x="214" y="56" on="0"/>
        <pt x="214" y="23" on="0"/>
        <pt x="184" y="-10" on="0"/>
        <pt x="143" y="-10" on="0"/>
        <pt x="114" y="23" on="0"/>
        <pt x="114" y="48" on="1"/>
        <pt x="118" y="372" on="1"/>
        <pt x="118" y="475" on="0"/>
        <pt x="113" y="687" on="0"/>
        <pt x="113" y="689" on="1"/>
        <pt x="113" y="760" on="0"/>
        <pt x="164" y="760" on="1"/>
        <pt x="201" y="760" on="0"/>
        <pt x="219" y="729" on="1"/>
        <pt x="510" y="229" on="0"/>
        <pt x="536" y="189" on="1"/>
        <pt x="536" y="472" on="0"/>
        <pt x="530" y="686" on="0"/>
        <pt x="530" y="689" on="1"/>
        <pt x="530" y="760" on="0"/>
        <pt x="632" y="760" on="0"/>
        <pt x="632" y="689" on="1"/>
        <pt x="632" y="681" on="0"/>
        <pt x="630" y="636" on="1"/>
        <pt x="626" y="503" on="0"/>
      </contour>
    </TTGlyph>
    <TTGlyph name="Nacute" xMin="113" yMin="-10" xMax="632" yMax="991">
      <contour>
        <pt x="626" y="372" on="1"/>
        <pt x="629" y="62" on="1"/>
        <pt x="629" y="-10" on="0"/>
        <pt x="576" y="-10" on="1"/>
        <pt x="543" y="-10" on="0"/>
        <pt x="526" y="21" on="1"/>
        <pt x="209" y="567" on="1"/>
        <pt x="209" y="334" on="0"/>
        <pt x="214" y="56" on="0"/>
        <pt x="214" y="23" on="0"/>
        <pt x="184" y="-10" on="0"/>
        <pt x="143" y="-10" on="0"/>
        <pt x="114" y="23" on="0"/>
        <pt x="114" y="48" on="1"/>
        <pt x="118" y="372" on="1"/>
        <pt x="118" y="475" on="0"/>
        <pt x="113" y="687" on="0"/>
        <pt x="113" y="689" on="1"/>
        <pt x="113" y="760" on="0"/>
        <pt x="164" y="760" on="1"/>
        <pt x="201" y="760" on="0"/>
        <pt x="219" y="729" on="1"/>
        <pt x="510" y="229" on="0"/>
        <pt x="536" y="189" on="1"/>
        <pt x="536" y="472" on="0"/>
        <pt x="530" y="686" on="0"/>
        <pt x="530" y="689" on="1"/>
        <pt x="530" y="760" on="0"/>
        <pt x="632" y="760" on="0"/>
        <pt x="632" y="689" on="1"/>
        <pt x="632" y="681" on="0"/>
        <pt x="630" y="636" on="1"/>
        <pt x="626" y="503" on="0"/>
      </contour>
      <contour>
        <pt x="491" y="947" on="1"/>
        <pt x="491" y="903" on="0"/>
        <pt x="396" y="814" on="0"/>
        <pt x="364" y="814" on="1"/>
        <pt x="348" y="814" on="0"/>
        <pt x="331" y="830" on="0"/>
        <pt x="331" y="854" on="0"/>
        <pt x="379" y="913" on="0"/>
        <pt x="397" y="953" on="0"/>
        <pt x="408" y="972" on="0"/>
        <pt x="433" y="991" on="0"/>
        <pt x="468" y="991" on="0"/>
        <pt x="491" y="964" on="0"/>
      </contour>
    </TTGlyph>
    <TTGlyph name="Ntilde" xMin="113" yMin="-10" xMax="632" yMax="965">
      <component glyphName="N" x="0" y="0" flags="0x1004"/>
      <component glyphName="tilde" x="95" y="260" flags="0x1004"/>
    </TTGlyph>
    <TTGlyph name="O" xMin="72" yMin="-15" xMax="752" yMax="765">
      <contour>
        <pt x="517" y="72" on="0"/>
        <pt x="656" y="256" on="0"/>
        <pt x="656" y="498" on="0"/>
        <pt x="518" y="679" on="0"/>
        <pt x="307" y="679" on="0"/>
        <pt x="168" y="498" on="0"/>
        <pt x="168" y="257" on="0"/>
        <pt x="308" y="72" on="0"/>
      </contour>
      <contour>
        <pt x="752" y="539" on="0"/>
        <pt x="752" y="213" on="0"/>
        <pt x="557" y="-15" on="0"/>
        <pt x="266" y="-15" on="0"/>
        <pt x="72" y="213" on="0"/>
        <pt x="72" y="539" on="0"/>
        <pt x="268" y="765" on="0"/>
        <pt x="559" y="765" on="0"/>
      </contour>
    </TTGlyph>
    <TTGlyph name="OE" xMin="72" yMin="-15" xMax="937" yMax="765">
      <contour>
        <pt x="478" y="72" on="0"/>
        <pt x="602" y="257" on="0"/>
        <pt x="602" y="498" on="0"/>
        <pt x="479" y="678" on="0"/>
        <pt x="295" y="678" on="0"/>
        <pt x="168" y="498" on="0"/>
        <pt x="168" y="257" on="0"/>
        <pt x="295" y="72" on="0"/>
      </contour>
      <contour>
        <pt x="878" y="665" on="1"/>
        <pt x="638" y="670" on="1"/>
        <pt x="613" y="670" on="0"/>
        <pt x="597" y="668" on="1"/>
        <pt x="676" y="578" on="0"/>
        <pt x="693" y="441" on="1"/>
        <pt x="791" y="443" on="0"/>
        <pt x="824" y="443" on="1"/>
        <pt x="883" y="443" on="0"/>
        <pt x="883" y="355" on="0"/>
        <pt x="824" y="355" on="1"/>
        <pt x="796" y="355" on="0"/>
        <pt x="698" y="357" on="1"/>
        <pt x="694" y="196" on="0"/>
        <pt x="596" y="82" on="1"/>
        <pt x="660" y="80" on="0"/>
        <pt x="714" y="80" on="1"/>
        <pt x="878" y="85" on="1"/>
        <pt x="937" y="85" on="0"/>
        <pt x="937" y="40" on="1"/>
        <pt x="937" y="19" on="0"/>
        <pt x="905" y="-5" on="0"/>
        <pt x="878" y="-5" on="1"/>
        <pt x="714" y="0" on="1"/>
        <pt x="714" y="0" on="0"/>
        <pt x="539" y="-5" on="1"/>
        <pt x="513" y="-5" on="0"/>
        <pt x="498" y="8" on="1"/>
        <pt x="451" y="-15" on="0"/>
        <pt x="387" y="-15" on="1"/>
        <pt x="253" y="-15" on="0"/>
        <pt x="72" y="214" on="0"/>
        <pt x="72" y="538" on="0"/>
        <pt x="254" y="765" on="0"/>
        <pt x="389" y="765" on="1"/>
        <pt x="445" y="765" on="0"/>
        <pt x="489" y="746" on="1"/>
        <pt x="502" y="755" on="0"/>
        <pt x="533" y="755" on="1"/>
        <pt x="725" y="750" on="1"/>
        <pt x="878" y="755" on="1"/>
        <pt x="905" y="755" on="0"/>
        <pt x="937" y="731" on="0"/>
        <pt x="937" y="689" on="0"/>
        <pt x="905" y="665" on="0"/>
      </contour>
    </TTGlyph>
    <TTGlyph name="Oacute" xMin="72" yMin="-15" xMax="752" yMax="990">
      <component glyphName="O" x="0" y="0" flags="0x1004"/>
      <component glyphName="acute" x="277" y="250" flags="0x1004"/>
    </TTGlyph>
    <TTGlyph name="Ocircumflex" xMin="72" yMin="-15" xMax="752" yMax="1010">
      <contour>
        <pt x="517" y="72" on="0"/>
        <pt x="656" y="256" on="0"/>
        <pt x="656" y="498" on="0"/>
        <pt x="518" y="679" on="0"/>
        <pt x="307" y="679" on="0"/>
        <pt x="168" y="498" on="0"/>
        <pt x="168" y="257" on="0"/>
        <pt x="308" y="72" on="0"/>
      </contour>
      <contour>
        <pt x="752" y="539" on="0"/>
        <pt x="752" y="213" on="0"/>
        <pt x="557" y="-15" on="0"/>
        <pt x="266" y="-15" on="0"/>
        <pt x="72" y="213" on="0"/>
        <pt x="72" y="539" on="0"/>
        <pt x="268" y="765" on="0"/>
        <pt x="559" y="765" on="0"/>
      </contour>
      <contour>
        <pt x="498" y="842" on="1"/>
        <pt x="429" y="923" on="0"/>
        <pt x="414" y="923" on="1"/>
        <pt x="399" y="923" on="0"/>
        <pt x="335" y="846" on="1"/>
        <pt x="330" y="840" on="0"/>
        <pt x="328" y="838" on="1"/>
        <pt x="320" y="830" on="1"/>
        <pt x="307" y="817" on="0"/>
        <pt x="272" y="817" on="0"/>
        <pt x="250" y="838" on="0"/>
        <pt x="250" y="875" on="0"/>
        <pt x="302" y="918" on="0"/>
        <pt x="355" y="978" on="0"/>
        <pt x="393" y="1010" on="0"/>
        <pt x="436" y="1010" on="0"/>
        <pt x="475" y="978" on="0"/>
        <pt x="527" y="918" on="0"/>
        <pt x="580" y="874" on="0"/>
        <pt x="580" y="838" on="0"/>
        <pt x="558" y="817" on="0"/>
        <pt x="532" y="817" on="0"/>
        <pt x="524" y="822" on="1"/>
        <pt x="510" y="829" on="0"/>
      </contour>
    </TTGlyph>
    <TTGlyph name="Odieresis" xMin="72" yMin="-15" xMax="752" yMax="967">
      <contour>
        <pt x="517" y="72" on="0"/>
        <pt x="656" y="256" on="0"/>
        <pt x="656" y="498" on="0"/>
        <pt x="518" y="679" on="0"/>
        <pt x="307" y="679" on="0"/>
        <pt x="168" y="498" on="0"/>
        <pt x="168" y="257" on="0"/>
        <pt x="308" y="72" on="0"/>
      </contour>
      <contour>
        <pt x="752" y="539" on="0"/>
        <pt x="752" y="213" on="0"/>
        <pt x="557" y="-15" on="0"/>
        <pt x="266" y="-15" on="0"/>
        <pt x="72" y="213" on="0"/>
        <pt x="72" y="539" on="0"/>
        <pt x="268" y="765" on="0"/>
        <pt x="559" y="765" on="0"/>
      </contour>
      <contour>
        <pt x="538" y="967" on="0"/>
        <pt x="565" y="933" on="0"/>
        <pt x="565" y="881" on="0"/>
        <pt x="531" y="838" on="0"/>
        <pt x="482" y="838" on="0"/>
        <pt x="454" y="874" on="0"/>
        <pt x="454" y="926" on="0"/>
        <pt x="487" y="967" on="0"/>
      </contour>
      <contour>
        <pt x="343" y="967" on="0"/>
        <pt x="370" y="933" on="0"/>
        <pt x="370" y="881" on="0"/>
        <pt x="336" y="838" on="0"/>
        <pt x="287" y="838" on="0"/>
        <pt x="259" y="874" on="0"/>
        <pt x="259" y="926" on="0"/>
        <pt x="292" y="967" on="0"/>
      </contour>
    </TTGlyph>
    <TTGlyph name="Ograve" xMin="72" yMin="-15" xMax="752" yMax="990">
      <component glyphName="O" x="0" y="0" flags="0x1004"/>
      <component glyphName="grave" x="217" y="250" flags="0x1004"/>
    </TTGlyph>
    <TTGlyph name="Omega" xMin="43" yMin="-7" xMax="834" yMax="713">
      <contour>
        <pt x="216" y="0" on="1"/>
        <pt x="99" y="-6" on="1"/>
        <pt x="73" y="-6" on="0"/>
        <pt x="43" y="19" on="0"/>
        <pt x="43" y="60" on="0"/>
        <pt x="73" y="85" on="0"/>
        <pt x="121" y="85" on="0"/>
        <pt x="215" y="80" on="0"/>
        <pt x="242" y="80" on="1"/>
        <pt x="118" y="217" on="0"/>
        <pt x="118" y="375" on="1"/>
        <pt x="118" y="513" on="0"/>
        <pt x="309" y="713" on="0"/>
        <pt x="569" y="713" on="0"/>
        <pt x="759" y="516" on="0"/>
        <pt x="759" y="378" on="1"/>
        <pt x="759" y="216" on="0"/>
        <pt x="635" y="79" on="1"/>
        <pt x="778" y="84" on="1"/>
        <pt x="804" y="84" on="0"/>
        <pt x="834" y="59" on="0"/>
        <pt x="834" y="18" on="0"/>
        <pt x="804" y="-7" on="0"/>
        <pt x="778" y="-7" on="1"/>
        <pt x="661" y="-1" on="1"/>
        <pt x="554" y="-7" on="1"/>
        <pt x="528" y="-7" on="0"/>
        <pt x="494" y="18" on="0"/>
        <pt x="494" y="64" on="0"/>
        <pt x="523" y="79" on="1"/>
        <pt x="582" y="114" on="0"/>
        <pt x="664" y="289" on="0"/>
        <pt x="664" y="482" on="0"/>
        <pt x="537" y="626" on="0"/>
        <pt x="342" y="626" on="0"/>
        <pt x="213" y="479" on="0"/>
        <pt x="213" y="284" on="0"/>
        <pt x="293" y="113" on="0"/>
        <pt x="354" y="80" on="1"/>
        <pt x="383" y="65" on="0"/>
        <pt x="383" y="19" on="0"/>
        <pt x="349" y="-6" on="0"/>
        <pt x="323" y="-6" on="1"/>
      </contour>
    </TTGlyph>
    <TTGlyph name="Oslash" xMin="72" yMin="-84" xMax="752" yMax="835">
      <contour>
        <pt x="656" y="376" on="1"/>
        <pt x="656" y="464" on="0"/>
        <pt x="580" y="614" on="0"/>
        <pt x="516" y="651" on="1"/>
        <pt x="431" y="329" on="0"/>
        <pt x="376" y="75" on="1"/>
        <pt x="392" y="72" on="0"/>
        <pt x="412" y="72" on="1"/>
        <pt x="517" y="72" on="0"/>
        <pt x="656" y="256" on="0"/>
      </contour>
      <contour>
        <pt x="429" y="678" on="1"/>
        <pt x="412" y="679" on="1"/>
        <pt x="307" y="679" on="0"/>
        <pt x="168" y="498" on="0"/>
        <pt x="168" y="376" on="1"/>
        <pt x="168" y="297" on="0"/>
        <pt x="234" y="153" on="0"/>
        <pt x="291" y="112" on="1"/>
        <pt x="327" y="224" on="0"/>
      </contour>
      <contour>
        <pt x="752" y="376" on="1"/>
        <pt x="752" y="213" on="0"/>
        <pt x="557" y="-15" on="0"/>
        <pt x="411" y="-15" on="1"/>
        <pt x="393" y="-15" on="0"/>
        <pt x="357" y="-11" on="1"/>
        <pt x="339" y="-84" on="0"/>
        <pt x="298" y="-84" on="1"/>
        <pt x="279" y="-84" on="0"/>
        <pt x="256" y="-56" on="0"/>
        <pt x="256" y="-11" on="0"/>
        <pt x="267" y="20" on="1"/>
        <pt x="178" y="66" on="0"/>
        <pt x="72" y="258" on="0"/>
        <pt x="72" y="376" on="1"/>
        <pt x="72" y="539" on="0"/>
        <pt x="268" y="765" on="0"/>
        <pt x="413" y="765" on="1"/>
        <pt x="425" y="765" on="0"/>
        <pt x="447" y="763" on="1"/>
        <pt x="457" y="803" on="0"/>
        <pt x="483" y="835" on="0"/>
        <pt x="525" y="835" on="0"/>
        <pt x="548" y="807" on="0"/>
        <pt x="548" y="767" on="0"/>
        <pt x="538" y="739" on="1"/>
        <pt x="635" y="697" on="0"/>
        <pt x="752" y="499" on="0"/>
      </contour>
    </TTGlyph>
    <TTGlyph name="Otilde" xMin="72" yMin="-15" xMax="752" yMax="967">
      <component glyphName="O" x="0" y="0" flags="0x1004"/>
      <component glyphName="tilde" x="128" y="262" flags="0x1004"/>
    </TTGlyph>
    <TTGlyph name="P" xMin="72" yMin="-13" xMax="624" yMax="765">
      <contour>
        <pt x="324" y="679" on="1"/>
        <pt x="258" y="679" on="0"/>
        <pt x="214" y="656" on="1"/>
        <pt x="211" y="608" on="0"/>
        <pt x="211" y="418" on="0"/>
        <pt x="213" y="374" on="1"/>
        <pt x="274" y="359" on="0"/>
        <pt x="421" y="359" on="0"/>
        <pt x="528" y="449" on="0"/>
        <pt x="528" y="590" on="0"/>
        <pt x="420" y="679" on="0"/>
      </contour>
      <contour>
        <pt x="114" y="45" on="1"/>
        <pt x="122" y="382" on="1"/>
        <pt x="122" y="629" on="0"/>
        <pt x="116" y="629" on="1"/>
        <pt x="94" y="632" on="0"/>
        <pt x="72" y="656" on="0"/>
        <pt x="72" y="695" on="0"/>
        <pt x="130" y="733" on="0"/>
        <pt x="172" y="744" on="1"/>
        <pt x="256" y="765" on="0"/>
        <pt x="318" y="765" on="1"/>
        <pt x="468" y="765" on="0"/>
        <pt x="624" y="623" on="0"/>
        <pt x="624" y="417" on="0"/>
        <pt x="468" y="274" on="0"/>
        <pt x="344" y="274" on="1"/>
        <pt x="251" y="274" on="0"/>
        <pt x="211" y="285" on="1"/>
        <pt x="216" y="45" on="1"/>
        <pt x="216" y="19" on="0"/>
        <pt x="188" y="-13" on="0"/>
        <pt x="143" y="-13" on="0"/>
        <pt x="114" y="19" on="0"/>
      </contour>
    </TTGlyph>
    <TTGlyph name="Q" xMin="72" yMin="-94" xMax="752" yMax="765">
      <contour>
        <pt x="752" y="376" on="1"/>
        <pt x="752" y="271" on="0"/>
        <pt x="665" y="95" on="0"/>
        <pt x="592" y="43" on="1"/>
        <pt x="599" y="31" on="0"/>
        <pt x="614" y="8" on="1"/>
        <pt x="644" y="-37" on="0"/>
        <pt x="644" y="-71" on="0"/>
        <pt x="622" y="-94" on="0"/>
        <pt x="582" y="-94" on="0"/>
        <pt x="566" y="-67" on="1"/>
        <pt x="527" y="3" on="1"/>
        <pt x="468" y="-15" on="0"/>
        <pt x="411" y="-15" on="1"/>
        <pt x="266" y="-15" on="0"/>
        <pt x="72" y="213" on="0"/>
        <pt x="72" y="539" on="0"/>
        <pt x="268" y="765" on="0"/>
        <pt x="559" y="765" on="0"/>
        <pt x="752" y="539" on="0"/>
      </contour>
      <contour>
        <pt x="656" y="376" on="1"/>
        <pt x="656" y="498" on="0"/>
        <pt x="518" y="679" on="0"/>
        <pt x="307" y="679" on="0"/>
        <pt x="168" y="498" on="0"/>
        <pt x="168" y="257" on="0"/>
        <pt x="308" y="72" on="0"/>
        <pt x="412" y="72" on="1"/>
        <pt x="451" y="72" on="0"/>
        <pt x="484" y="81" on="1"/>
        <pt x="468" y="106" on="0"/>
        <pt x="450" y="132" on="1"/>
        <pt x="422" y="172" on="0"/>
        <pt x="422" y="212" on="0"/>
        <pt x="444" y="234" on="0"/>
        <pt x="483" y="234" on="0"/>
        <pt x="500" y="207" on="1"/>
        <pt x="501" y="205" on="0"/>
        <pt x="538" y="116" on="1"/>
        <pt x="593" y="158" on="0"/>
        <pt x="656" y="298" on="0"/>
      </contour>
    </TTGlyph>
    <TTGlyph name="R" xMin="72" yMin="-15" xMax="654" yMax="765">
      <contour>
        <pt x="504" y="533" on="1"/>
        <pt x="504" y="599" on="0"/>
        <pt x="404" y="679" on="0"/>
        <pt x="309" y="679" on="1"/>
        <pt x="262" y="679" on="0"/>
        <pt x="212" y="661" on="1"/>
        <pt x="209" y="571" on="0"/>
        <pt x="209" y="408" on="0"/>
        <pt x="210" y="395" on="1"/>
        <pt x="258" y="404" on="0"/>
        <pt x="342" y="404" on="0"/>
        <pt x="395" y="395" on="1"/>
        <pt x="431" y="405" on="0"/>
        <pt x="504" y="486" on="0"/>
      </contour>
      <contour>
        <pt x="629" y="76" on="1"/>
        <pt x="645" y="78" on="1"/>
        <pt x="654" y="78" on="0"/>
        <pt x="654" y="30" on="0"/>
        <pt x="612" y="-10" on="0"/>
        <pt x="586" y="-10" on="1"/>
        <pt x="541" y="-10" on="0"/>
        <pt x="500" y="48" on="1"/>
        <pt x="447" y="120" on="0"/>
        <pt x="365" y="301" on="1"/>
        <pt x="320" y="295" on="0"/>
        <pt x="263" y="295" on="1"/>
        <pt x="211" y="299" on="1"/>
        <pt x="211" y="229" on="0"/>
        <pt x="217" y="86" on="0"/>
        <pt x="217" y="56" on="1"/>
        <pt x="217" y="-15" on="0"/>
        <pt x="115" y="-15" on="0"/>
        <pt x="115" y="56" on="1"/>
        <pt x="115" y="96" on="0"/>
        <pt x="122" y="298" on="0"/>
        <pt x="122" y="491" on="0"/>
        <pt x="116" y="627" on="1"/>
        <pt x="72" y="636" on="0"/>
        <pt x="72" y="672" on="1"/>
        <pt x="72" y="715" on="0"/>
        <pt x="238" y="765" on="0"/>
        <pt x="303" y="765" on="1"/>
        <pt x="449" y="765" on="0"/>
        <pt x="600" y="634" on="0"/>
        <pt x="600" y="539" on="1"/>
        <pt x="600" y="478" on="0"/>
        <pt x="518" y="361" on="0"/>
        <pt x="452" y="330" on="1"/>
        <pt x="498" y="224" on="0"/>
        <pt x="573" y="104" on="0"/>
        <pt x="611" y="76" on="0"/>
      </contour>
    </TTGlyph>
    <TTGlyph name="Racute" xMin="72" yMin="-15" xMax="654" yMax="992">
      <component glyphName="R" x="0" y="0" flags="0x1004"/>
      <component glyphName="acute" x="194" y="252" flags="0x1004"/>
    </TTGlyph>
    <TTGlyph name="Rcaron" xMin="72" yMin="-15" xMax="654" yMax="1010">
      <component glyphName="R" x="0" y="0" flags="0x1004"/>
      <component glyphName="caron" x="83" y="250" flags="0x1004"/>
    </TTGlyph>
    <TTGlyph name="Rcommaaccent" xMin="72" yMin="-236" xMax="654" yMax="765">
      <contour>
        <pt x="504" y="533" on="1"/>
        <pt x="504" y="599" on="0"/>
        <pt x="404" y="679" on="0"/>
        <pt x="309" y="679" on="1"/>
        <pt x="262" y="679" on="0"/>
        <pt x="212" y="661" on="1"/>
        <pt x="209" y="571" on="0"/>
        <pt x="209" y="408" on="0"/>
        <pt x="210" y="395" on="1"/>
        <pt x="258" y="404" on="0"/>
        <pt x="342" y="404" on="0"/>
        <pt x="395" y="395" on="1"/>
        <pt x="431" y="405" on="0"/>
        <pt x="504" y="486" on="0"/>
      </contour>
      <contour>
        <pt x="629" y="76" on="1"/>
        <pt x="645" y="78" on="1"/>
        <pt x="654" y="78" on="0"/>
        <pt x="654" y="30" on="0"/>
        <pt x="612" y="-10" on="0"/>
        <pt x="586" y="-10" on="1"/>
        <pt x="541" y="-10" on="0"/>
        <pt x="500" y="48" on="1"/>
        <pt x="447" y="120" on="0"/>
        <pt x="365" y="301" on="1"/>
        <pt x="320" y="295" on="0"/>
        <pt x="263" y="295" on="1"/>
        <pt x="211" y="299" on="1"/>
        <pt x="211" y="229" on="0"/>
        <pt x="217" y="86" on="0"/>
        <pt x="217" y="56" on="1"/>
        <pt x="217" y="-15" on="0"/>
        <pt x="115" y="-15" on="0"/>
        <pt x="115" y="56" on="1"/>
        <pt x="115" y="96" on="0"/>
        <pt x="122" y="298" on="0"/>
        <pt x="122" y="491" on="0"/>
        <pt x="116" y="627" on="1"/>
        <pt x="72" y="636" on="0"/>
        <pt x="72" y="672" on="1"/>
        <pt x="72" y="715" on="0"/>
        <pt x="238" y="765" on="0"/>
        <pt x="303" y="765" on="1"/>
        <pt x="449" y="765" on="0"/>
        <pt x="600" y="634" on="0"/>
        <pt x="600" y="539" on="1"/>
        <pt x="600" y="478" on="0"/>
        <pt x="518" y="361" on="0"/>
        <pt x="452" y="330" on="1"/>
        <pt x="498" y="224" on="0"/>
        <pt x="573" y="104" on="0"/>
        <pt x="611" y="76" on="0"/>
      </contour>
      <contour>
        <pt x="234" y="-80" on="0"/>
        <pt x="258" y="-47" on="0"/>
        <pt x="303" y="-47" on="0"/>
        <pt x="328" y="-76" on="0"/>
        <pt x="328" y="-97" on="1"/>
        <pt x="328" y="-141" on="0"/>
        <pt x="246" y="-236" on="0"/>
        <pt x="219" y="-236" on="1"/>
        <pt x="205" y="-236" on="0"/>
        <pt x="187" y="-220" on="0"/>
        <pt x="187" y="-201" on="0"/>
        <pt x="216" y="-148" on="1"/>
        <pt x="221" y="-139" on="0"/>
      </contour>
    </TTGlyph>
    <TTGlyph name="S" xMin="57" yMin="-15" xMax="547" yMax="765">
      <contour>
        <pt x="547" y="204" on="1"/>
        <pt x="547" y="111" on="0"/>
        <pt x="406" y="-15" on="0"/>
        <pt x="294" y="-15" on="1"/>
        <pt x="207" y="-15" on="0"/>
        <pt x="57" y="69" on="0"/>
        <pt x="57" y="109" on="1"/>
        <pt x="57" y="127" on="0"/>
        <pt x="81" y="151" on="0"/>
        <pt x="118" y="151" on="0"/>
        <pt x="156" y="126" on="0"/>
        <pt x="188" y="97" on="0"/>
        <pt x="253" y="72" on="0"/>
        <pt x="294" y="72" on="1"/>
        <pt x="362" y="72" on="0"/>
        <pt x="451" y="142" on="0"/>
        <pt x="451" y="204" on="1"/>
        <pt x="451" y="245" on="0"/>
        <pt x="375" y="319" on="0"/>
        <pt x="267" y="379" on="0"/>
        <pt x="159" y="442" on="0"/>
        <pt x="83" y="533" on="0"/>
        <pt x="83" y="586" on="1"/>
        <pt x="83" y="659" on="0"/>
        <pt x="211" y="765" on="0"/>
        <pt x="385" y="765" on="0"/>
        <pt x="507" y="706" on="0"/>
        <pt x="507" y="668" on="1"/>
        <pt x="507" y="649" on="0"/>
        <pt x="483" y="627" on="0"/>
        <pt x="443" y="627" on="0"/>
        <pt x="405" y="653" on="0"/>
        <pt x="349" y="679" on="0"/>
        <pt x="255" y="679" on="0"/>
        <pt x="179" y="627" on="0"/>
        <pt x="179" y="551" on="0"/>
        <pt x="255" y="486" on="0"/>
        <pt x="363" y="426" on="0"/>
        <pt x="471" y="360" on="0"/>
        <pt x="547" y="262" on="0"/>
      </contour>
    </TTGlyph>
    <TTGlyph name="T" xMin="42" yMin="-10" xMax="554" yMax="756">
      <contour>
        <pt x="102" y="756" on="1"/>
        <pt x="301" y="750" on="1"/>
        <pt x="494" y="756" on="1"/>
        <pt x="521" y="756" on="0"/>
        <pt x="554" y="731" on="0"/>
        <pt x="554" y="687" on="0"/>
        <pt x="521" y="662" on="0"/>
        <pt x="494" y="662" on="1"/>
        <pt x="350" y="668" on="1"/>
        <pt x="346" y="571" on="0"/>
        <pt x="346" y="372" on="1"/>
        <pt x="352" y="48" on="1"/>
        <pt x="352" y="22" on="0"/>
        <pt x="324" y="-10" on="0"/>
        <pt x="279" y="-10" on="0"/>
        <pt x="250" y="22" on="0"/>
        <pt x="250" y="48" on="1"/>
        <pt x="256" y="372" on="1"/>
        <pt x="256" y="546" on="0"/>
        <pt x="251" y="668" on="1"/>
        <pt x="102" y="662" on="1"/>
        <pt x="75" y="662" on="0"/>
        <pt x="42" y="687" on="0"/>
        <pt x="42" y="731" on="0"/>
        <pt x="75" y="756" on="0"/>
      </contour>
    </TTGlyph>
    <TTGlyph name="Thorn" xMin="113" yMin="-10" xMax="574" yMax="760">
      <contour>
        <pt x="209" y="524" on="1"/>
        <pt x="208" y="487" on="0"/>
        <pt x="208" y="372" on="0"/>
        <pt x="210" y="298" on="1"/>
        <pt x="262" y="284" on="0"/>
        <pt x="396" y="284" on="0"/>
        <pt x="479" y="354" on="0"/>
        <pt x="479" y="468" on="0"/>
        <pt x="395" y="538" on="0"/>
        <pt x="261" y="538" on="0"/>
      </contour>
      <contour>
        <pt x="119" y="375" on="1"/>
        <pt x="113" y="689" on="1"/>
        <pt x="113" y="760" on="0"/>
        <pt x="215" y="760" on="0"/>
        <pt x="215" y="689" on="1"/>
        <pt x="215" y="674" on="0"/>
        <pt x="210" y="627" on="0"/>
        <pt x="210" y="612" on="1"/>
        <pt x="258" y="625" on="0"/>
        <pt x="328" y="625" on="1"/>
        <pt x="438" y="625" on="0"/>
        <pt x="574" y="502" on="0"/>
        <pt x="574" y="319" on="0"/>
        <pt x="439" y="197" on="0"/>
        <pt x="329" y="197" on="1"/>
        <pt x="261" y="197" on="0"/>
        <pt x="210" y="209" on="1"/>
        <pt x="215" y="96" on="0"/>
        <pt x="215" y="61" on="1"/>
        <pt x="215" y="-10" on="0"/>
        <pt x="113" y="-10" on="0"/>
        <pt x="113" y="61" on="1"/>
      </contour>
    </TTGlyph>
    <TTGlyph name="U" xMin="96" yMin="-15" xMax="647" yMax="760">
      <contour>
        <pt x="638" y="138" on="0"/>
        <pt x="500" y="-15" on="0"/>
        <pt x="243" y="-15" on="0"/>
        <pt x="105" y="139" on="0"/>
        <pt x="103" y="249" on="1"/>
        <pt x="102" y="301" on="0"/>
        <pt x="102" y="455" on="0"/>
        <pt x="99" y="596" on="0"/>
        <pt x="96" y="681" on="0"/>
        <pt x="96" y="689" on="1"/>
        <pt x="96" y="760" on="0"/>
        <pt x="198" y="760" on="0"/>
        <pt x="198" y="689" on="1"/>
        <pt x="198" y="681" on="0"/>
        <pt x="196" y="626" on="1"/>
        <pt x="192" y="459" on="0"/>
        <pt x="192" y="272" on="0"/>
        <pt x="207" y="188" on="0"/>
        <pt x="226" y="150" on="1"/>
        <pt x="263" y="72" on="0"/>
        <pt x="371" y="72" on="1"/>
        <pt x="524" y="72" on="0"/>
        <pt x="546" y="249" on="1"/>
        <pt x="551" y="284" on="0"/>
        <pt x="551" y="403" on="0"/>
        <pt x="548" y="570" on="0"/>
        <pt x="545" y="681" on="0"/>
        <pt x="545" y="689" on="1"/>
        <pt x="545" y="760" on="0"/>
        <pt x="647" y="760" on="0"/>
        <pt x="647" y="689" on="1"/>
        <pt x="647" y="681" on="0"/>
        <pt x="646" y="638" on="1"/>
        <pt x="641" y="511" on="0"/>
        <pt x="641" y="301" on="0"/>
        <pt x="640" y="249" on="1"/>
      </contour>
    </TTGlyph>
    <TTGlyph name="Uacute" xMin="96" yMin="-15" xMax="647" yMax="990">
      <contour>
        <pt x="479" y="946" on="1"/>
        <pt x="479" y="902" on="0"/>
        <pt x="384" y="813" on="0"/>
        <pt x="352" y="813" on="1"/>
        <pt x="336" y="813" on="0"/>
        <pt x="319" y="829" on="0"/>
        <pt x="319" y="853" on="0"/>
        <pt x="367" y="912" on="0"/>
        <pt x="385" y="952" on="0"/>
        <pt x="396" y="971" on="0"/>
        <pt x="421" y="990" on="0"/>
        <pt x="456" y="990" on="0"/>
        <pt x="479" y="963" on="0"/>
      </contour>
      <contour>
        <pt x="638" y="138" on="0"/>
        <pt x="500" y="-15" on="0"/>
        <pt x="243" y="-15" on="0"/>
        <pt x="105" y="139" on="0"/>
        <pt x="103" y="249" on="1"/>
        <pt x="102" y="301" on="0"/>
        <pt x="102" y="455" on="0"/>
        <pt x="99" y="596" on="0"/>
        <pt x="96" y="681" on="0"/>
        <pt x="96" y="689" on="1"/>
        <pt x="96" y="760" on="0"/>
        <pt x="198" y="760" on="0"/>
        <pt x="198" y="689" on="1"/>
        <pt x="198" y="681" on="0"/>
        <pt x="196" y="626" on="1"/>
        <pt x="192" y="459" on="0"/>
        <pt x="192" y="272" on="0"/>
        <pt x="207" y="188" on="0"/>
        <pt x="226" y="150" on="1"/>
        <pt x="263" y="72" on="0"/>
        <pt x="371" y="72" on="1"/>
        <pt x="524" y="72" on="0"/>
        <pt x="546" y="249" on="1"/>
        <pt x="551" y="284" on="0"/>
        <pt x="551" y="403" on="0"/>
        <pt x="548" y="570" on="0"/>
        <pt x="545" y="681" on="0"/>
        <pt x="545" y="689" on="1"/>
        <pt x="545" y="760" on="0"/>
        <pt x="647" y="760" on="0"/>
        <pt x="647" y="689" on="1"/>
        <pt x="647" y="681" on="0"/>
        <pt x="646" y="638" on="1"/>
        <pt x="641" y="511" on="0"/>
        <pt x="641" y="301" on="0"/>
        <pt x="640" y="249" on="1"/>
      </contour>
    </TTGlyph>
    <TTGlyph name="Ucircumflex" xMin="96" yMin="-15" xMax="647" yMax="1010">
      <contour>
        <pt x="638" y="138" on="0"/>
        <pt x="500" y="-15" on="0"/>
        <pt x="243" y="-15" on="0"/>
        <pt x="105" y="139" on="0"/>
        <pt x="103" y="249" on="1"/>
        <pt x="102" y="301" on="0"/>
        <pt x="102" y="455" on="0"/>
        <pt x="99" y="596" on="0"/>
        <pt x="96" y="681" on="0"/>
        <pt x="96" y="689" on="1"/>
        <pt x="96" y="760" on="0"/>
        <pt x="198" y="760" on="0"/>
        <pt x="198" y="689" on="1"/>
        <pt x="198" y="681" on="0"/>
        <pt x="196" y="626" on="1"/>
        <pt x="192" y="459" on="0"/>
        <pt x="192" y="272" on="0"/>
        <pt x="207" y="188" on="0"/>
        <pt x="226" y="150" on="1"/>
        <pt x="263" y="72" on="0"/>
        <pt x="371" y="72" on="1"/>
        <pt x="524" y="72" on="0"/>
        <pt x="546" y="249" on="1"/>
        <pt x="551" y="284" on="0"/>
        <pt x="551" y="403" on="0"/>
        <pt x="548" y="570" on="0"/>
        <pt x="545" y="681" on="0"/>
        <pt x="545" y="689" on="1"/>
        <pt x="545" y="760" on="0"/>
        <pt x="647" y="760" on="0"/>
        <pt x="647" y="689" on="1"/>
        <pt x="647" y="681" on="0"/>
        <pt x="646" y="638" on="1"/>
        <pt x="641" y="511" on="0"/>
        <pt x="641" y="301" on="0"/>
        <pt x="640" y="249" on="1"/>
      </contour>
      <contour>
        <pt x="457" y="842" on="1"/>
        <pt x="388" y="923" on="0"/>
        <pt x="374" y="923" on="1"/>
        <pt x="358" y="923" on="0"/>
        <pt x="294" y="846" on="1"/>
        <pt x="289" y="840" on="0"/>
        <pt x="286" y="838" on="1"/>
        <pt x="279" y="830" on="1"/>
        <pt x="266" y="817" on="0"/>
        <pt x="231" y="817" on="0"/>
        <pt x="209" y="838" on="0"/>
        <pt x="209" y="875" on="0"/>
        <pt x="261" y="918" on="0"/>
        <pt x="314" y="978" on="0"/>
        <pt x="352" y="1010" on="0"/>
        <pt x="395" y="1010" on="0"/>
        <pt x="434" y="978" on="0"/>
        <pt x="486" y="918" on="0"/>
        <pt x="539" y="874" on="0"/>
        <pt x="539" y="838" on="0"/>
        <pt x="517" y="817" on="0"/>
        <pt x="491" y="817" on="0"/>
        <pt x="482" y="822" on="1"/>
        <pt x="469" y="829" on="0"/>
      </contour>
    </TTGlyph>
    <TTGlyph name="Udieresis" xMin="96" yMin="-15" xMax="647" yMax="967">
      <component glyphName="U" x="0" y="0" flags="0x1004"/>
      <component glyphName="dieresis" x="132" y="260" flags="0x1004"/>
    </TTGlyph>
    <TTGlyph name="Ugrave" xMin="96" yMin="-15" xMax="647" yMax="990">
      <component glyphName="U" x="0" y="0" flags="0x1004"/>
      <component glyphName="grave" x="180" y="250" flags="0x1004"/>
    </TTGlyph>
    <TTGlyph name="V" xMin="40" yMin="-10" xMax="633" yMax="760">
      <contour>
        <pt x="397" y="40" on="1"/>
        <pt x="380" y="-10" on="0"/>
        <pt x="293" y="-10" on="0"/>
        <pt x="276" y="40" on="1"/>
        <pt x="130" y="450" on="0"/>
        <pt x="111" y="509" on="0"/>
        <pt x="64" y="637" on="0"/>
        <pt x="40" y="702" on="0"/>
        <pt x="40" y="730" on="0"/>
        <pt x="65" y="760" on="0"/>
        <pt x="87" y="760" on="1"/>
        <pt x="125" y="760" on="0"/>
        <pt x="140" y="715" on="1"/>
        <pt x="330" y="133" on="0"/>
        <pt x="337" y="133" on="1"/>
        <pt x="348" y="133" on="0"/>
        <pt x="538" y="715" on="1"/>
        <pt x="553" y="760" on="0"/>
        <pt x="586" y="760" on="1"/>
        <pt x="608" y="760" on="0"/>
        <pt x="633" y="730" on="0"/>
        <pt x="633" y="702" on="0"/>
        <pt x="621" y="670" on="1"/>
        <pt x="564" y="515" on="0"/>
        <pt x="543" y="450" on="0"/>
      </contour>
    </TTGlyph>
    <TTGlyph name="W" xMin="42" yMin="-10" xMax="914" yMax="760">
      <contour>
        <pt x="714" y="38" on="1"/>
        <pt x="697" y="-10" on="0"/>
        <pt x="610" y="-10" on="0"/>
        <pt x="593" y="35" on="1"/>
        <pt x="580" y="71" on="0"/>
        <pt x="481" y="404" on="0"/>
        <pt x="477" y="404" on="0"/>
        <pt x="434" y="258" on="0"/>
        <pt x="380" y="70" on="0"/>
        <pt x="370" y="38" on="1"/>
        <pt x="355" y="-10" on="0"/>
        <pt x="266" y="-10" on="0"/>
        <pt x="250" y="35" on="1"/>
        <pt x="245" y="48" on="0"/>
        <pt x="209" y="165" on="0"/>
        <pt x="158" y="327" on="0"/>
        <pt x="134" y="402" on="0"/>
        <pt x="100" y="505" on="0"/>
        <pt x="78" y="572" on="0"/>
        <pt x="66" y="611" on="1"/>
        <pt x="42" y="689" on="0"/>
        <pt x="42" y="733" on="0"/>
        <pt x="68" y="760" on="0"/>
        <pt x="86" y="760" on="1"/>
        <pt x="126" y="760" on="0"/>
        <pt x="140" y="715" on="1"/>
        <pt x="202" y="518" on="0"/>
        <pt x="314" y="119" on="0"/>
        <pt x="315" y="119" on="1"/>
        <pt x="319" y="119" on="0"/>
        <pt x="410" y="433" on="0"/>
        <pt x="424" y="495" on="1"/>
        <pt x="429" y="517" on="0"/>
        <pt x="460" y="550" on="0"/>
        <pt x="482" y="550" on="1"/>
        <pt x="527" y="550" on="0"/>
        <pt x="541" y="499" on="1"/>
        <pt x="652" y="119" on="0"/>
        <pt x="660" y="119" on="1"/>
        <pt x="695" y="247" on="1"/>
        <pt x="730" y="375" on="0"/>
        <pt x="812" y="679" on="0"/>
        <pt x="822" y="715" on="1"/>
        <pt x="834" y="760" on="0"/>
        <pt x="867" y="760" on="1"/>
        <pt x="890" y="760" on="0"/>
        <pt x="914" y="731" on="0"/>
        <pt x="914" y="687" on="0"/>
        <pt x="820" y="379" on="0"/>
        <pt x="790" y="280" on="1"/>
        <pt x="732" y="93" on="0"/>
      </contour>
    </TTGlyph>
    <TTGlyph name="X" xMin="48" yMin="-13" xMax="648" yMax="763">
      <contour>
        <pt x="328" y="311" on="1"/>
        <pt x="307" y="278" on="0"/>
        <pt x="213" y="125" on="0"/>
        <pt x="191" y="92" on="0"/>
        <pt x="170" y="58" on="0"/>
        <pt x="165" y="50" on="1"/>
        <pt x="165" y="50" on="0"/>
        <pt x="152" y="31" on="1"/>
        <pt x="143" y="17" on="0"/>
        <pt x="131" y="6" on="1"/>
        <pt x="114" y="-10" on="0"/>
        <pt x="79" y="-10" on="0"/>
        <pt x="55" y="14" on="0"/>
        <pt x="55" y="42" on="0"/>
        <pt x="68" y="71" on="0"/>
        <pt x="105" y="128" on="0"/>
        <pt x="126" y="160" on="1"/>
        <pt x="219" y="294" on="0"/>
        <pt x="278" y="387" on="1"/>
        <pt x="188" y="547" on="0"/>
        <pt x="130" y="636" on="1"/>
        <pt x="106" y="672" on="0"/>
        <pt x="74" y="672" on="1"/>
        <pt x="56" y="672" on="0"/>
        <pt x="48" y="684" on="0"/>
        <pt x="48" y="695" on="1"/>
        <pt x="48" y="726" on="0"/>
        <pt x="85" y="763" on="0"/>
        <pt x="135" y="763" on="0"/>
        <pt x="174" y="737" on="0"/>
        <pt x="201" y="698" on="1"/>
        <pt x="211" y="682" on="0"/>
        <pt x="336" y="465" on="1"/>
        <pt x="361" y="505" on="0"/>
        <pt x="454" y="660" on="0"/>
        <pt x="474" y="693" on="0"/>
        <pt x="483" y="709" on="0"/>
        <pt x="498" y="732" on="0"/>
        <pt x="508" y="743" on="0"/>
        <pt x="514" y="749" on="1"/>
        <pt x="526" y="760" on="0"/>
        <pt x="562" y="760" on="0"/>
        <pt x="585" y="735" on="0"/>
        <pt x="585" y="701" on="0"/>
        <pt x="545" y="632" on="0"/>
        <pt x="415" y="433" on="0"/>
        <pt x="386" y="388" on="1"/>
        <pt x="524" y="168" on="0"/>
        <pt x="599" y="78" on="0"/>
        <pt x="626" y="78" on="1"/>
        <pt x="641" y="78" on="0"/>
        <pt x="648" y="67" on="0"/>
        <pt x="648" y="57" on="1"/>
        <pt x="648" y="26" on="0"/>
        <pt x="611" y="-13" on="0"/>
        <pt x="585" y="-13" on="1"/>
        <pt x="544" y="-13" on="0"/>
        <pt x="495" y="53" on="1"/>
        <pt x="468" y="89" on="0"/>
      </contour>
    </TTGlyph>
    <TTGlyph name="Y" xMin="30" yMin="-10" xMax="577" yMax="760">
      <contour>
        <pt x="347" y="303" on="1"/>
        <pt x="347" y="223" on="0"/>
        <pt x="350" y="142" on="1"/>
        <pt x="352" y="61" on="1"/>
        <pt x="352" y="-10" on="0"/>
        <pt x="250" y="-10" on="0"/>
        <pt x="250" y="61" on="1"/>
        <pt x="252" y="144" on="1"/>
        <pt x="255" y="227" on="0"/>
        <pt x="255" y="304" on="1"/>
        <pt x="56" y="646" on="0"/>
        <pt x="30" y="700" on="0"/>
        <pt x="30" y="734" on="0"/>
        <pt x="54" y="760" on="0"/>
        <pt x="99" y="760" on="0"/>
        <pt x="131" y="717" on="0"/>
        <pt x="248" y="489" on="0"/>
        <pt x="306" y="401" on="1"/>
        <pt x="330" y="437" on="0"/>
        <pt x="451" y="661" on="0"/>
        <pt x="470" y="694" on="0"/>
        <pt x="478" y="709" on="0"/>
        <pt x="493" y="733" on="0"/>
        <pt x="502" y="744" on="0"/>
        <pt x="508" y="750" on="1"/>
        <pt x="518" y="760" on="0"/>
        <pt x="554" y="760" on="0"/>
        <pt x="577" y="736" on="0"/>
        <pt x="577" y="702" on="0"/>
        <pt x="548" y="647" on="0"/>
        <pt x="451" y="481" on="0"/>
        <pt x="423" y="434" on="0"/>
        <pt x="372" y="345" on="0"/>
      </contour>
    </TTGlyph>
    <TTGlyph name="Yacute" xMin="30" yMin="-10" xMax="577" yMax="990">
      <component glyphName="Y" x="0" y="0" flags="0x1004"/>
      <component glyphName="acute" x="168" y="250" flags="0x1004"/>
    </TTGlyph>
    <TTGlyph name="Z" xMin="49" yMin="-5" xMax="570" yMax="755">
      <contour>
        <pt x="295" y="750" on="1"/>
        <pt x="498" y="755" on="1"/>
        <pt x="555" y="755" on="0"/>
        <pt x="555" y="714" on="1"/>
        <pt x="555" y="689" on="0"/>
        <pt x="514" y="617" on="0"/>
        <pt x="397" y="444" on="0"/>
        <pt x="351" y="368" on="1"/>
        <pt x="180" y="87" on="1"/>
        <pt x="237" y="82" on="0"/>
        <pt x="378" y="82" on="0"/>
        <pt x="502" y="89" on="0"/>
        <pt x="537" y="89" on="0"/>
        <pt x="570" y="64" on="0"/>
        <pt x="570" y="20" on="0"/>
        <pt x="537" y="-5" on="0"/>
        <pt x="510" y="-5" on="1"/>
        <pt x="335" y="0" on="1"/>
        <pt x="106" y="-5" on="1"/>
        <pt x="49" y="-5" on="0"/>
        <pt x="49" y="38" on="1"/>
        <pt x="49" y="62" on="0"/>
        <pt x="98" y="145" on="0"/>
        <pt x="223" y="331" on="0"/>
        <pt x="273" y="413" on="1"/>
        <pt x="425" y="664" on="1"/>
        <pt x="380" y="668" on="0"/>
        <pt x="252" y="668" on="0"/>
        <pt x="128" y="661" on="0"/>
        <pt x="93" y="661" on="0"/>
        <pt x="60" y="686" on="0"/>
        <pt x="60" y="730" on="0"/>
        <pt x="93" y="755" on="0"/>
        <pt x="120" y="755" on="1"/>
      </contour>
    </TTGlyph>
    <TTGlyph name="a" xMin="72" yMin="-15" xMax="738" yMax="765">
      <contour>
        <pt x="648" y="367" on="1"/>
        <pt x="648" y="255" on="0"/>
        <pt x="677" y="100" on="0"/>
        <pt x="698" y="90" on="1"/>
        <pt x="706" y="86" on="0"/>
        <pt x="728" y="83" on="0"/>
        <pt x="738" y="77" on="0"/>
        <pt x="738" y="69" on="1"/>
        <pt x="738" y="33" on="0"/>
        <pt x="698" y="-13" on="0"/>
        <pt x="665" y="-13" on="1"/>
        <pt x="621" y="-13" on="0"/>
        <pt x="577" y="87" on="0"/>
        <pt x="577" y="165" on="1"/>
        <pt x="524" y="81" on="0"/>
        <pt x="407" y="-15" on="0"/>
        <pt x="262" y="-15" on="0"/>
        <pt x="162" y="54" on="0"/>
        <pt x="132" y="110" on="1"/>
        <pt x="72" y="225" on="0"/>
        <pt x="72" y="363" on="1"/>
        <pt x="72" y="527" on="0"/>
        <pt x="242" y="765" on="0"/>
        <pt x="377" y="765" on="1"/>
        <pt x="429" y="765" on="0"/>
        <pt x="528" y="726" on="0"/>
        <pt x="561" y="696" on="1"/>
        <pt x="561" y="765" on="0"/>
        <pt x="612" y="765" on="1"/>
        <pt x="675" y="765" on="0"/>
        <pt x="675" y="664" on="1"/>
        <pt x="675" y="589" on="0"/>
      </contour>
      <contour>
        <pt x="569" y="355" on="1"/>
        <pt x="563" y="600" on="1"/>
        <pt x="478" y="678" on="0"/>
        <pt x="377" y="678" on="1"/>
        <pt x="294" y="678" on="0"/>
        <pt x="168" y="499" on="0"/>
        <pt x="168" y="243" on="0"/>
        <pt x="255" y="72" on="0"/>
        <pt x="404" y="72" on="0"/>
        <pt x="555" y="262" on="0"/>
      </contour>
    </TTGlyph>
    <TTGlyph name="aacute" xMin="72" yMin="-15" xMax="738" yMax="990">
      <contour>
        <pt x="648" y="367" on="1"/>
        <pt x="648" y="255" on="0"/>
        <pt x="677" y="100" on="0"/>
        <pt x="698" y="90" on="1"/>
        <pt x="706" y="86" on="0"/>
        <pt x="728" y="83" on="0"/>
        <pt x="738" y="77" on="0"/>
        <pt x="738" y="69" on="1"/>
        <pt x="738" y="33" on="0"/>
        <pt x="698" y="-13" on="0"/>
        <pt x="665" y="-13" on="1"/>
        <pt x="621" y="-13" on="0"/>
        <pt x="577" y="87" on="0"/>
        <pt x="577" y="165" on="1"/>
        <pt x="524" y="81" on="0"/>
        <pt x="407" y="-15" on="0"/>
        <pt x="262" y="-15" on="0"/>
        <pt x="162" y="54" on="0"/>
        <pt x="132" y="110" on="1"/>
        <pt x="72" y="225" on="0"/>
        <pt x="72" y="363" on="1"/>
        <pt x="72" y="527" on="0"/>
        <pt x="242" y="765" on="0"/>
        <pt x="377" y="765" on="1"/>
        <pt x="429" y="765" on="0"/>
        <pt x="528" y="726" on="0"/>
        <pt x="561" y="696" on="1"/>
        <pt x="561" y="765" on="0"/>
        <pt x="612" y="765" on="1"/>
        <pt x="675" y="765" on="0"/>
        <pt x="675" y="664" on="1"/>
        <pt x="675" y="589" on="0"/>
      </contour>
      <contour>
        <pt x="569" y="355" on="1"/>
        <pt x="563" y="600" on="1"/>
        <pt x="478" y="678" on="0"/>
        <pt x="377" y="678" on="1"/>
        <pt x="294" y="678" on="0"/>
        <pt x="168" y="499" on="0"/>
        <pt x="168" y="243" on="0"/>
        <pt x="255" y="72" on="0"/>
        <pt x="404" y="72" on="0"/>
        <pt x="555" y="262" on="0"/>
      </contour>
      <contour>
        <pt x="507" y="946" on="1"/>
        <pt x="507" y="902" on="0"/>
        <pt x="412" y="813" on="0"/>
        <pt x="380" y="813" on="1"/>
        <pt x="364" y="813" on="0"/>
        <pt x="347" y="829" on="0"/>
        <pt x="347" y="853" on="0"/>
        <pt x="395" y="912" on="0"/>
        <pt x="413" y="952" on="0"/>
        <pt x="424" y="971" on="0"/>
        <pt x="449" y="990" on="0"/>
        <pt x="484" y="990" on="0"/>
        <pt x="507" y="963" on="0"/>
      </contour>
    </TTGlyph>
    <TTGlyph name="acircumflex" xMin="72" yMin="-15" xMax="738" yMax="1010">
      <component glyphName="a" x="0" y="0" flags="0x1004"/>
      <component glyphName="circumflex" x="169" y="250" flags="0x1004"/>
    </TTGlyph>
    <TTGlyph name="acute" xMin="85" yMin="563" xMax="245" yMax="740">
      <contour>
        <pt x="245" y="696" on="1"/>
        <pt x="245" y="652" on="0"/>
        <pt x="150" y="563" on="0"/>
        <pt x="118" y="563" on="1"/>
        <pt x="102" y="563" on="0"/>
        <pt x="85" y="579" on="0"/>
        <pt x="85" y="603" on="0"/>
        <pt x="133" y="662" on="0"/>
        <pt x="151" y="702" on="0"/>
        <pt x="162" y="721" on="0"/>
        <pt x="187" y="740" on="0"/>
        <pt x="222" y="740" on="0"/>
        <pt x="245" y="713" on="0"/>
      </contour>
    </TTGlyph>
    <TTGlyph name="adieresis" xMin="72" yMin="-15" xMax="738" yMax="967">
      <component glyphName="a" x="0" y="0" flags="0x1004"/>
      <component glyphName="dieresis" x="141" y="260" flags="0x1004"/>
    </TTGlyph>
    <TTGlyph name="ae" xMin="54" yMin="-14" xMax="1095" yMax="765">
      <contour>
        <pt x="150" y="239" on="1"/>
        <pt x="150" y="168" on="0"/>
        <pt x="246" y="74" on="0"/>
        <pt x="308" y="74" on="1"/>
        <pt x="392" y="74" on="0"/>
        <pt x="518" y="216" on="0"/>
        <pt x="518" y="343" on="1"/>
        <pt x="423" y="375" on="0"/>
        <pt x="244" y="375" on="0"/>
        <pt x="150" y="293" on="0"/>
      </contour>
      <contour>
        <pt x="631" y="226" on="0"/>
        <pt x="763" y="73" on="0"/>
        <pt x="924" y="73" on="0"/>
        <pt x="1008" y="123" on="1"/>
        <pt x="1040" y="141" on="0"/>
        <pt x="1064" y="141" on="0"/>
        <pt x="1083" y="122" on="0"/>
        <pt x="1083" y="108" on="1"/>
        <pt x="1083" y="73" on="0"/>
        <pt x="940" y="-14" on="0"/>
        <pt x="754" y="-14" on="0"/>
        <pt x="613" y="75" on="0"/>
        <pt x="572" y="150" on="1"/>
        <pt x="529" y="67" on="0"/>
        <pt x="389" y="-14" on="0"/>
        <pt x="304" y="-14" on="1"/>
        <pt x="198" y="-14" on="0"/>
        <pt x="54" y="129" on="0"/>
        <pt x="54" y="242" on="1"/>
        <pt x="54" y="333" on="0"/>
        <pt x="205" y="463" on="0"/>
        <pt x="310" y="463" on="1"/>
        <pt x="371" y="463" on="0"/>
        <pt x="454" y="448" on="0"/>
        <pt x="521" y="429" on="1"/>
        <pt x="521" y="563" on="0"/>
        <pt x="416" y="678" on="0"/>
        <pt x="335" y="678" on="1"/>
        <pt x="296" y="678" on="0"/>
        <pt x="230" y="652" on="0"/>
        <pt x="212" y="637" on="1"/>
        <pt x="165" y="596" on="0"/>
        <pt x="143" y="596" on="1"/>
        <pt x="97" y="596" on="0"/>
        <pt x="97" y="681" on="0"/>
        <pt x="240" y="765" on="0"/>
        <pt x="425" y="765" on="0"/>
        <pt x="556" y="683" on="0"/>
        <pt x="590" y="615" on="1"/>
        <pt x="689" y="765" on="0"/>
        <pt x="862" y="765" on="1"/>
        <pt x="958" y="765" on="0"/>
        <pt x="1095" y="643" on="0"/>
        <pt x="1095" y="469" on="0"/>
        <pt x="1052" y="414" on="1"/>
        <pt x="973" y="315" on="0"/>
        <pt x="803" y="315" on="1"/>
        <pt x="697" y="315" on="0"/>
        <pt x="622" y="329" on="1"/>
      </contour>
      <contour>
        <pt x="999" y="553" on="1"/>
        <pt x="999" y="600" on="0"/>
        <pt x="928" y="678" on="0"/>
        <pt x="862" y="678" on="1"/>
        <pt x="769" y="678" on="0"/>
        <pt x="642" y="521" on="0"/>
        <pt x="623" y="417" on="1"/>
        <pt x="692" y="400" on="0"/>
        <pt x="810" y="400" on="1"/>
        <pt x="890" y="400" on="0"/>
        <pt x="999" y="478" on="0"/>
      </contour>
    </TTGlyph>
    <TTGlyph name="agrave" xMin="72" yMin="-15" xMax="738" yMax="990">
      <component glyphName="a" x="0" y="0" flags="0x1004"/>
      <component glyphName="grave" x="181" y="250" flags="0x1004"/>
    </TTGlyph>
    <TTGlyph name="ampersand" xMin="62" yMin="-15" xMax="798" yMax="765">
      <contour>
        <pt x="455" y="370" on="1"/>
        <pt x="538" y="368" on="1"/>
        <pt x="706" y="368" on="0"/>
        <pt x="706" y="459" on="1"/>
        <pt x="706" y="490" on="0"/>
        <pt x="669" y="530" on="0"/>
        <pt x="647" y="538" on="1"/>
        <pt x="588" y="558" on="0"/>
        <pt x="588" y="593" on="1"/>
        <pt x="588" y="611" on="0"/>
        <pt x="612" y="634" on="0"/>
        <pt x="633" y="634" on="1"/>
        <pt x="690" y="634" on="0"/>
        <pt x="798" y="527" on="0"/>
        <pt x="798" y="461" on="1"/>
        <pt x="798" y="372" on="0"/>
        <pt x="671" y="289" on="0"/>
        <pt x="577" y="287" on="1"/>
        <pt x="595" y="245" on="0"/>
        <pt x="595" y="203" on="1"/>
        <pt x="595" y="113" on="0"/>
        <pt x="448" y="-15" on="0"/>
        <pt x="217" y="-15" on="0"/>
        <pt x="62" y="130" on="0"/>
        <pt x="62" y="239" on="1"/>
        <pt x="62" y="302" on="0"/>
        <pt x="124" y="421" on="0"/>
        <pt x="176" y="460" on="1"/>
        <pt x="112" y="520" on="0"/>
        <pt x="112" y="661" on="0"/>
        <pt x="213" y="765" on="0"/>
        <pt x="305" y="765" on="1"/>
        <pt x="362" y="765" on="0"/>
        <pt x="459" y="709" on="0"/>
        <pt x="459" y="677" on="1"/>
        <pt x="459" y="657" on="0"/>
        <pt x="435" y="635" on="0"/>
        <pt x="403" y="635" on="0"/>
        <pt x="342" y="678" on="0"/>
        <pt x="260" y="678" on="0"/>
        <pt x="205" y="631" on="0"/>
        <pt x="205" y="593" on="1"/>
        <pt x="205" y="536" on="0"/>
        <pt x="257" y="501" on="1"/>
        <pt x="301" y="505" on="0"/>
        <pt x="304" y="505" on="1"/>
        <pt x="334" y="505" on="0"/>
        <pt x="372" y="477" on="0"/>
        <pt x="372" y="428" on="0"/>
        <pt x="330" y="399" on="0"/>
        <pt x="269" y="399" on="0"/>
        <pt x="249" y="409" on="1"/>
        <pt x="207" y="384" on="0"/>
        <pt x="157" y="298" on="0"/>
        <pt x="157" y="247" on="1"/>
        <pt x="157" y="169" on="0"/>
        <pt x="255" y="72" on="0"/>
        <pt x="407" y="72" on="0"/>
        <pt x="502" y="151" on="0"/>
        <pt x="502" y="202" on="1"/>
        <pt x="502" y="280" on="0"/>
        <pt x="470" y="280" on="1"/>
        <pt x="452" y="280" on="0"/>
        <pt x="411" y="260" on="0"/>
        <pt x="374" y="260" on="0"/>
        <pt x="350" y="287" on="0"/>
        <pt x="350" y="306" on="1"/>
        <pt x="350" y="336" on="0"/>
        <pt x="409" y="370" on="0"/>
      </contour>
    </TTGlyph>
    <TTGlyph name="approxequal" xMin="93" yMin="219" xMax="568" yMax="534">
      <contour>
        <pt x="568" y="494" on="1"/>
        <pt x="568" y="465" on="0"/>
        <pt x="484" y="402" on="0"/>
        <pt x="397" y="402" on="0"/>
        <pt x="285" y="458" on="0"/>
        <pt x="233" y="458" on="0"/>
        <pt x="165" y="399" on="0"/>
        <pt x="117" y="399" on="0"/>
        <pt x="93" y="421" on="0"/>
        <pt x="93" y="439" on="1"/>
        <pt x="93" y="472" on="0"/>
        <pt x="189" y="534" on="0"/>
        <pt x="300" y="534" on="0"/>
        <pt x="414" y="477" on="0"/>
        <pt x="464" y="477" on="0"/>
        <pt x="517" y="526" on="0"/>
        <pt x="550" y="526" on="0"/>
        <pt x="568" y="507" on="0"/>
      </contour>
      <contour>
        <pt x="568" y="314" on="1"/>
        <pt x="568" y="285" on="0"/>
        <pt x="484" y="222" on="0"/>
        <pt x="397" y="222" on="0"/>
        <pt x="285" y="278" on="0"/>
        <pt x="233" y="278" on="0"/>
        <pt x="165" y="219" on="0"/>
        <pt x="117" y="219" on="0"/>
        <pt x="93" y="241" on="0"/>
        <pt x="93" y="259" on="1"/>
        <pt x="93" y="292" on="0"/>
        <pt x="189" y="354" on="0"/>
        <pt x="300" y="354" on="0"/>
        <pt x="414" y="297" on="0"/>
        <pt x="464" y="297" on="0"/>
        <pt x="517" y="346" on="0"/>
        <pt x="550" y="346" on="0"/>
        <pt x="568" y="327" on="0"/>
      </contour>
    </TTGlyph>
    <TTGlyph name="aring" xMin="72" yMin="-15" xMax="738" yMax="1016">
      <contour>
        <pt x="648" y="367" on="1"/>
        <pt x="648" y="255" on="0"/>
        <pt x="677" y="100" on="0"/>
        <pt x="698" y="90" on="1"/>
        <pt x="706" y="86" on="0"/>
        <pt x="728" y="83" on="0"/>
        <pt x="738" y="77" on="0"/>
        <pt x="738" y="69" on="1"/>
        <pt x="738" y="33" on="0"/>
        <pt x="698" y="-13" on="0"/>
        <pt x="665" y="-13" on="1"/>
        <pt x="621" y="-13" on="0"/>
        <pt x="577" y="87" on="0"/>
        <pt x="577" y="165" on="1"/>
        <pt x="524" y="81" on="0"/>
        <pt x="407" y="-15" on="0"/>
        <pt x="262" y="-15" on="0"/>
        <pt x="162" y="54" on="0"/>
        <pt x="132" y="110" on="1"/>
        <pt x="72" y="225" on="0"/>
        <pt x="72" y="363" on="1"/>
        <pt x="72" y="527" on="0"/>
        <pt x="242" y="765" on="0"/>
        <pt x="377" y="765" on="1"/>
        <pt x="429" y="765" on="0"/>
        <pt x="528" y="726" on="0"/>
        <pt x="561" y="696" on="1"/>
        <pt x="561" y="765" on="0"/>
        <pt x="612" y="765" on="1"/>
        <pt x="675" y="765" on="0"/>
        <pt x="675" y="664" on="1"/>
        <pt x="675" y="589" on="0"/>
      </contour>
      <contour>
        <pt x="569" y="355" on="1"/>
        <pt x="563" y="600" on="1"/>
        <pt x="478" y="678" on="0"/>
        <pt x="377" y="678" on="1"/>
        <pt x="294" y="678" on="0"/>
        <pt x="168" y="499" on="0"/>
        <pt x="168" y="243" on="0"/>
        <pt x="255" y="72" on="0"/>
        <pt x="404" y="72" on="0"/>
        <pt x="555" y="262" on="0"/>
      </contour>
      <contour>
        <pt x="455" y="1016" on="0"/>
        <pt x="514" y="956" on="0"/>
        <pt x="514" y="871" on="0"/>
        <pt x="457" y="815" on="0"/>
        <pt x="365" y="815" on="0"/>
        <pt x="308" y="871" on="0"/>
        <pt x="308" y="957" on="0"/>
        <pt x="367" y="1016" on="0"/>
      </contour>
      <contour>
        <pt x="449" y="899" on="0"/>
        <pt x="449" y="929" on="0"/>
        <pt x="425" y="955" on="0"/>
        <pt x="396" y="955" on="0"/>
        <pt x="373" y="930" on="0"/>
        <pt x="373" y="899" on="0"/>
        <pt x="395" y="875" on="0"/>
        <pt x="426" y="875" on="0"/>
      </contour>
    </TTGlyph>
    <TTGlyph name="arrowdown" xMin="32" yMin="-10" xMax="579" yMax="760">
      <contour>
        <pt x="351" y="700" on="1"/>
        <pt x="346" y="373" on="1"/>
        <pt x="346" y="121" on="1"/>
        <pt x="387" y="167" on="0"/>
        <pt x="499" y="303" on="1"/>
        <pt x="517" y="324" on="0"/>
        <pt x="555" y="324" on="0"/>
        <pt x="579" y="301" on="0"/>
        <pt x="579" y="274" on="0"/>
        <pt x="572" y="255" on="0"/>
        <pt x="549" y="227" on="0"/>
        <pt x="538" y="215" on="1"/>
        <pt x="490" y="166" on="0"/>
        <pt x="449" y="120" on="0"/>
        <pt x="378" y="43" on="0"/>
        <pt x="350" y="12" on="1"/>
        <pt x="326" y="-10" on="0"/>
        <pt x="285" y="-10" on="0"/>
        <pt x="261" y="12" on="1"/>
        <pt x="233" y="43" on="0"/>
        <pt x="162" y="120" on="0"/>
        <pt x="136" y="149" on="0"/>
        <pt x="85" y="203" on="0"/>
        <pt x="62" y="227" on="0"/>
        <pt x="50" y="241" on="1"/>
        <pt x="32" y="264" on="0"/>
        <pt x="32" y="301" on="0"/>
        <pt x="56" y="324" on="0"/>
        <pt x="94" y="324" on="0"/>
        <pt x="112" y="303" on="1"/>
        <pt x="224" y="167" on="0"/>
        <pt x="265" y="121" on="1"/>
        <pt x="265" y="373" on="1"/>
        <pt x="260" y="700" on="1"/>
        <pt x="260" y="726" on="0"/>
        <pt x="285" y="760" on="0"/>
        <pt x="325" y="760" on="0"/>
        <pt x="351" y="726" on="0"/>
      </contour>
    </TTGlyph>
    <TTGlyph name="arrowleft" xMin="31" yMin="103" xMax="792" yMax="650">
      <contour>
        <pt x="414" y="417" on="1"/>
        <pt x="732" y="422" on="1"/>
        <pt x="758" y="422" on="0"/>
        <pt x="792" y="397" on="0"/>
        <pt x="792" y="357" on="0"/>
        <pt x="758" y="331" on="0"/>
        <pt x="732" y="331" on="1"/>
        <pt x="414" y="336" on="1"/>
        <pt x="162" y="336" on="1"/>
        <pt x="208" y="295" on="0"/>
        <pt x="344" y="183" on="1"/>
        <pt x="365" y="165" on="0"/>
        <pt x="365" y="127" on="0"/>
        <pt x="342" y="103" on="0"/>
        <pt x="315" y="103" on="0"/>
        <pt x="296" y="110" on="0"/>
        <pt x="268" y="133" on="0"/>
        <pt x="256" y="144" on="1"/>
        <pt x="207" y="192" on="0"/>
        <pt x="161" y="233" on="0"/>
        <pt x="84" y="304" on="0"/>
        <pt x="53" y="332" on="1"/>
        <pt x="31" y="356" on="0"/>
        <pt x="31" y="397" on="0"/>
        <pt x="53" y="421" on="1"/>
        <pt x="84" y="449" on="0"/>
        <pt x="161" y="520" on="0"/>
        <pt x="190" y="546" on="0"/>
        <pt x="244" y="597" on="0"/>
        <pt x="268" y="620" on="0"/>
        <pt x="282" y="632" on="1"/>
        <pt x="305" y="650" on="0"/>
        <pt x="342" y="650" on="0"/>
        <pt x="365" y="626" on="0"/>
        <pt x="365" y="588" on="0"/>
        <pt x="344" y="570" on="1"/>
        <pt x="208" y="458" on="0"/>
        <pt x="162" y="417" on="1"/>
      </contour>
    </TTGlyph>
    <TTGlyph name="arrowright" xMin="52" yMin="103" xMax="813" yMax="650">
      <contour>
        <pt x="430" y="336" on="1"/>
        <pt x="112" y="331" on="1"/>
        <pt x="86" y="331" on="0"/>
        <pt x="52" y="357" on="0"/>
        <pt x="52" y="397" on="0"/>
        <pt x="86" y="422" on="0"/>
        <pt x="112" y="422" on="1"/>
        <pt x="430" y="417" on="1"/>
        <pt x="682" y="417" on="1"/>
        <pt x="636" y="458" on="0"/>
        <pt x="500" y="570" on="1"/>
        <pt x="479" y="588" on="0"/>
        <pt x="479" y="626" on="0"/>
        <pt x="502" y="650" on="0"/>
        <pt x="529" y="650" on="0"/>
        <pt x="548" y="643" on="0"/>
        <pt x="576" y="620" on="0"/>
        <pt x="588" y="608" on="1"/>
        <pt x="637" y="561" on="0"/>
        <pt x="683" y="520" on="0"/>
        <pt x="760" y="449" on="0"/>
        <pt x="791" y="421" on="1"/>
        <pt x="813" y="397" on="0"/>
        <pt x="813" y="356" on="0"/>
        <pt x="791" y="332" on="1"/>
        <pt x="760" y="304" on="0"/>
        <pt x="683" y="233" on="0"/>
        <pt x="654" y="207" on="0"/>
        <pt x="600" y="156" on="0"/>
        <pt x="576" y="133" on="0"/>
        <pt x="562" y="122" on="1"/>
        <pt x="539" y="103" on="0"/>
        <pt x="502" y="103" on="0"/>
        <pt x="479" y="127" on="0"/>
        <pt x="479" y="165" on="0"/>
        <pt x="500" y="183" on="1"/>
        <pt x="636" y="295" on="0"/>
        <pt x="682" y="336" on="1"/>
      </contour>
    </TTGlyph>
    <TTGlyph name="arrowup" xMin="25" yMin="-10" xMax="572" yMax="760">
      <contour>
        <pt x="339" y="377" on="1"/>
        <pt x="344" y="50" on="1"/>
        <pt x="344" y="24" on="0"/>
        <pt x="318" y="-10" on="0"/>
        <pt x="278" y="-10" on="0"/>
        <pt x="253" y="24" on="0"/>
        <pt x="253" y="50" on="1"/>
        <pt x="258" y="377" on="1"/>
        <pt x="258" y="629" on="1"/>
        <pt x="217" y="583" on="0"/>
        <pt x="105" y="447" on="1"/>
        <pt x="87" y="426" on="0"/>
        <pt x="49" y="426" on="0"/>
        <pt x="25" y="449" on="0"/>
        <pt x="25" y="476" on="0"/>
        <pt x="32" y="495" on="0"/>
        <pt x="55" y="523" on="0"/>
        <pt x="66" y="535" on="1"/>
        <pt x="114" y="584" on="0"/>
        <pt x="155" y="630" on="0"/>
        <pt x="226" y="707" on="0"/>
        <pt x="254" y="738" on="1"/>
        <pt x="278" y="760" on="0"/>
        <pt x="319" y="760" on="0"/>
        <pt x="343" y="738" on="1"/>
        <pt x="371" y="707" on="0"/>
        <pt x="442" y="630" on="0"/>
        <pt x="468" y="601" on="0"/>
        <pt x="519" y="547" on="0"/>
        <pt x="542" y="523" on="0"/>
        <pt x="554" y="509" on="1"/>
        <pt x="572" y="486" on="0"/>
        <pt x="572" y="449" on="0"/>
        <pt x="548" y="426" on="0"/>
        <pt x="510" y="426" on="0"/>
        <pt x="492" y="447" on="1"/>
        <pt x="380" y="583" on="0"/>
        <pt x="339" y="629" on="1"/>
      </contour>
    </TTGlyph>
    <TTGlyph name="asciicircum" xMin="57" yMin="364" xMax="536" yMax="760">
      <contour>
        <pt x="57" y="420" on="0"/>
        <pt x="101" y="496" on="0"/>
        <pt x="223" y="693" on="0"/>
        <pt x="264" y="760" on="0"/>
        <pt x="329" y="760" on="0"/>
        <pt x="350" y="725" on="1"/>
        <pt x="515" y="459" on="0"/>
        <pt x="536" y="415" on="0"/>
        <pt x="536" y="388" on="0"/>
        <pt x="512" y="364" on="0"/>
        <pt x="468" y="364" on="0"/>
        <pt x="454" y="391" on="1"/>
        <pt x="417" y="459" on="0"/>
        <pt x="301" y="660" on="0"/>
        <pt x="292" y="660" on="0"/>
        <pt x="177" y="461" on="0"/>
        <pt x="139" y="391" on="1"/>
        <pt x="133" y="379" on="0"/>
        <pt x="110" y="364" on="0"/>
        <pt x="81" y="364" on="0"/>
        <pt x="57" y="388" on="0"/>
      </contour>
    </TTGlyph>
    <TTGlyph name="asciitilde" xMin="74" yMin="309" xMax="549" yMax="444">
      <contour>
        <pt x="549" y="404" on="1"/>
        <pt x="549" y="375" on="0"/>
        <pt x="465" y="312" on="0"/>
        <pt x="378" y="312" on="0"/>
        <pt x="266" y="368" on="0"/>
        <pt x="214" y="368" on="0"/>
        <pt x="146" y="309" on="0"/>
        <pt x="98" y="309" on="0"/>
        <pt x="74" y="331" on="0"/>
        <pt x="74" y="349" on="1"/>
        <pt x="74" y="382" on="0"/>
        <pt x="170" y="444" on="0"/>
        <pt x="280" y="444" on="0"/>
        <pt x="394" y="387" on="0"/>
        <pt x="445" y="387" on="0"/>
        <pt x="498" y="436" on="0"/>
        <pt x="531" y="436" on="0"/>
        <pt x="549" y="417" on="0"/>
      </contour>
    </TTGlyph>
    <TTGlyph name="asterisk" xMin="78" yMin="410" xMax="398" yMax="765">
      <contour>
        <pt x="204" y="642" on="1"/>
        <pt x="194" y="716" on="1"/>
        <pt x="194" y="738" on="0"/>
        <pt x="218" y="765" on="0"/>
        <pt x="258" y="765" on="0"/>
        <pt x="282" y="738" on="0"/>
        <pt x="282" y="704" on="0"/>
        <pt x="272" y="655" on="0"/>
        <pt x="272" y="642" on="1"/>
        <pt x="279" y="647" on="0"/>
        <pt x="298" y="662" on="1"/>
        <pt x="338" y="694" on="0"/>
        <pt x="374" y="694" on="0"/>
        <pt x="398" y="672" on="0"/>
        <pt x="398" y="635" on="0"/>
        <pt x="365" y="610" on="0"/>
        <pt x="303" y="590" on="0"/>
        <pt x="298" y="587" on="1"/>
        <pt x="303" y="584" on="0"/>
        <pt x="365" y="564" on="0"/>
        <pt x="398" y="539" on="0"/>
        <pt x="398" y="501" on="0"/>
        <pt x="374" y="480" on="0"/>
        <pt x="345" y="480" on="0"/>
        <pt x="317" y="496" on="0"/>
        <pt x="278" y="527" on="0"/>
        <pt x="271" y="532" on="1"/>
        <pt x="282" y="460" on="1"/>
        <pt x="282" y="438" on="0"/>
        <pt x="258" y="410" on="0"/>
        <pt x="218" y="410" on="0"/>
        <pt x="194" y="438" on="0"/>
        <pt x="194" y="471" on="0"/>
        <pt x="205" y="520" on="0"/>
        <pt x="205" y="532" on="1"/>
        <pt x="198" y="527" on="0"/>
        <pt x="178" y="512" on="1"/>
        <pt x="139" y="480" on="0"/>
        <pt x="102" y="480" on="0"/>
        <pt x="78" y="501" on="0"/>
        <pt x="78" y="539" on="0"/>
        <pt x="111" y="564" on="0"/>
        <pt x="173" y="584" on="0"/>
        <pt x="178" y="587" on="1"/>
        <pt x="173" y="590" on="0"/>
        <pt x="111" y="610" on="0"/>
        <pt x="78" y="635" on="0"/>
        <pt x="78" y="672" on="0"/>
        <pt x="102" y="694" on="0"/>
        <pt x="130" y="694" on="0"/>
        <pt x="158" y="678" on="0"/>
        <pt x="197" y="647" on="0"/>
      </contour>
    </TTGlyph>
    <TTGlyph name="at" xMin="64" yMin="-55" xMax="864" yMax="765">
      <contour>
        <pt x="864" y="369" on="1"/>
        <pt x="864" y="266" on="0"/>
        <pt x="763" y="127" on="0"/>
        <pt x="692" y="127" on="1"/>
        <pt x="603" y="127" on="0"/>
        <pt x="575" y="210" on="1"/>
        <pt x="518" y="127" on="0"/>
        <pt x="429" y="127" on="1"/>
        <pt x="385" y="127" on="0"/>
        <pt x="315" y="169" on="0"/>
        <pt x="296" y="202" on="1"/>
        <pt x="257" y="267" on="0"/>
        <pt x="257" y="342" on="1"/>
        <pt x="257" y="437" on="0"/>
        <pt x="374" y="576" on="0"/>
        <pt x="465" y="576" on="1"/>
        <pt x="514" y="576" on="0"/>
        <pt x="564" y="540" on="1"/>
        <pt x="578" y="576" on="0"/>
        <pt x="610" y="576" on="1"/>
        <pt x="664" y="576" on="0"/>
        <pt x="664" y="496" on="1"/>
        <pt x="664" y="486" on="0"/>
        <pt x="644" y="356" on="0"/>
        <pt x="644" y="313" on="1"/>
        <pt x="644" y="209" on="0"/>
        <pt x="691" y="209" on="1"/>
        <pt x="723" y="209" on="0"/>
        <pt x="774" y="286" on="0"/>
        <pt x="774" y="371" on="1"/>
        <pt x="774" y="521" on="0"/>
        <pt x="597" y="678" on="0"/>
        <pt x="339" y="678" on="0"/>
        <pt x="159" y="484" on="0"/>
        <pt x="159" y="193" on="0"/>
        <pt x="313" y="26" on="0"/>
        <pt x="421" y="26" on="1"/>
        <pt x="474" y="26" on="0"/>
        <pt x="588" y="71" on="0"/>
        <pt x="592" y="71" on="1"/>
        <pt x="608" y="71" on="0"/>
        <pt x="628" y="52" on="0"/>
        <pt x="628" y="37" on="1"/>
        <pt x="628" y="10" on="0"/>
        <pt x="505" y="-55" on="0"/>
        <pt x="417" y="-55" on="1"/>
        <pt x="268" y="-55" on="0"/>
        <pt x="64" y="164" on="0"/>
        <pt x="64" y="513" on="0"/>
        <pt x="296" y="765" on="0"/>
        <pt x="639" y="765" on="0"/>
        <pt x="864" y="551" on="0"/>
      </contour>
      <contour>
        <pt x="561" y="334" on="1"/>
        <pt x="561" y="453" on="1"/>
        <pt x="512" y="489" on="0"/>
        <pt x="419" y="489" on="0"/>
        <pt x="352" y="406" on="0"/>
        <pt x="352" y="291" on="0"/>
        <pt x="392" y="213" on="0"/>
        <pt x="473" y="213" on="0"/>
        <pt x="538" y="283" on="0"/>
      </contour>
    </TTGlyph>
    <TTGlyph name="atilde" xMin="72" yMin="-15" xMax="738" yMax="965">
      <contour>
        <pt x="648" y="367" on="1"/>
        <pt x="648" y="255" on="0"/>
        <pt x="677" y="100" on="0"/>
        <pt x="698" y="90" on="1"/>
        <pt x="706" y="86" on="0"/>
        <pt x="728" y="83" on="0"/>
        <pt x="738" y="77" on="0"/>
        <pt x="738" y="69" on="1"/>
        <pt x="738" y="33" on="0"/>
        <pt x="698" y="-13" on="0"/>
        <pt x="665" y="-13" on="1"/>
        <pt x="621" y="-13" on="0"/>
        <pt x="577" y="87" on="0"/>
        <pt x="577" y="165" on="1"/>
        <pt x="524" y="81" on="0"/>
        <pt x="407" y="-15" on="0"/>
        <pt x="262" y="-15" on="0"/>
        <pt x="162" y="54" on="0"/>
        <pt x="132" y="110" on="1"/>
        <pt x="72" y="225" on="0"/>
        <pt x="72" y="363" on="1"/>
        <pt x="72" y="527" on="0"/>
        <pt x="242" y="765" on="0"/>
        <pt x="377" y="765" on="1"/>
        <pt x="429" y="765" on="0"/>
        <pt x="528" y="726" on="0"/>
        <pt x="561" y="696" on="1"/>
        <pt x="561" y="765" on="0"/>
        <pt x="612" y="765" on="1"/>
        <pt x="675" y="765" on="0"/>
        <pt x="675" y="664" on="1"/>
        <pt x="675" y="589" on="0"/>
      </contour>
      <contour>
        <pt x="569" y="355" on="1"/>
        <pt x="563" y="600" on="1"/>
        <pt x="478" y="678" on="0"/>
        <pt x="377" y="678" on="1"/>
        <pt x="294" y="678" on="0"/>
        <pt x="168" y="499" on="0"/>
        <pt x="168" y="243" on="0"/>
        <pt x="255" y="72" on="0"/>
        <pt x="404" y="72" on="0"/>
        <pt x="555" y="262" on="0"/>
      </contour>
      <contour>
        <pt x="598" y="925" on="1"/>
        <pt x="598" y="889" on="0"/>
        <pt x="536" y="835" on="0"/>
        <pt x="458" y="835" on="0"/>
        <pt x="404" y="866" on="1"/>
        <pt x="360" y="888" on="0"/>
        <pt x="316" y="888" on="0"/>
        <pt x="267" y="829" on="0"/>
        <pt x="226" y="829" on="0"/>
        <pt x="201" y="854" on="0"/>
        <pt x="201" y="872" on="1"/>
        <pt x="201" y="908" on="0"/>
        <pt x="275" y="965" on="0"/>
        <pt x="373" y="965" on="0"/>
        <pt x="479" y="910" on="0"/>
        <pt x="514" y="910" on="0"/>
        <pt x="555" y="960" on="0"/>
        <pt x="582" y="960" on="0"/>
        <pt x="598" y="939" on="0"/>
      </contour>
    </TTGlyph>
    <TTGlyph name="b" xMin="74" yMin="-15" xMax="662" yMax="765">
      <contour>
        <pt x="662" y="212" on="1"/>
        <pt x="662" y="109" on="0"/>
        <pt x="483" y="-15" on="0"/>
        <pt x="339" y="-15" on="1"/>
        <pt x="223" y="-15" on="0"/>
        <pt x="74" y="32" on="0"/>
        <pt x="74" y="106" on="0"/>
        <pt x="124" y="106" on="1"/>
        <pt x="127" y="209" on="0"/>
        <pt x="127" y="549" on="0"/>
        <pt x="123" y="621" on="1"/>
        <pt x="80" y="634" on="0"/>
        <pt x="80" y="667" on="1"/>
        <pt x="80" y="692" on="0"/>
        <pt x="140" y="732" on="0"/>
        <pt x="183" y="743" on="1"/>
        <pt x="269" y="765" on="0"/>
        <pt x="407" y="765" on="0"/>
        <pt x="516" y="728" on="0"/>
        <pt x="546" y="698" on="1"/>
        <pt x="608" y="639" on="0"/>
        <pt x="608" y="574" on="1"/>
        <pt x="608" y="468" on="0"/>
        <pt x="511" y="409" on="1"/>
        <pt x="577" y="385" on="0"/>
        <pt x="662" y="276" on="0"/>
      </contour>
      <contour>
        <pt x="336" y="72" on="1"/>
        <pt x="441" y="72" on="0"/>
        <pt x="565" y="147" on="0"/>
        <pt x="565" y="218" on="1"/>
        <pt x="565" y="274" on="0"/>
        <pt x="456" y="349" on="0"/>
        <pt x="394" y="359" on="1"/>
        <pt x="333" y="345" on="0"/>
        <pt x="247" y="345" on="0"/>
        <pt x="218" y="349" on="1"/>
        <pt x="218" y="166" on="0"/>
        <pt x="221" y="85" on="1"/>
        <pt x="263" y="72" on="0"/>
      </contour>
      <contour>
        <pt x="336" y="679" on="1"/>
        <pt x="274" y="679" on="0"/>
        <pt x="221" y="659" on="1"/>
        <pt x="218" y="608" on="0"/>
        <pt x="218" y="439" on="1"/>
        <pt x="259" y="448" on="0"/>
        <pt x="343" y="448" on="0"/>
        <pt x="380" y="440" on="1"/>
        <pt x="420" y="442" on="0"/>
        <pt x="517" y="514" on="0"/>
        <pt x="517" y="573" on="1"/>
        <pt x="517" y="614" on="0"/>
        <pt x="428" y="679" on="0"/>
      </contour>
    </TTGlyph>
    <TTGlyph name="backslash" xMin="71" yMin="-84" xMax="361" yMax="835">
      <contour>
        <pt x="71" y="805" on="0"/>
        <pt x="94" y="835" on="0"/>
        <pt x="134" y="835" on="0"/>
        <pt x="161" y="809" on="0"/>
        <pt x="165" y="787" on="1"/>
        <pt x="243" y="439" on="0"/>
        <pt x="290" y="256" on="1"/>
        <pt x="361" y="-20" on="0"/>
        <pt x="361" y="-56" on="0"/>
        <pt x="336" y="-84" on="0"/>
        <pt x="292" y="-84" on="0"/>
        <pt x="269" y="-51" on="0"/>
        <pt x="262" y="-20" on="1"/>
        <pt x="198" y="274" on="0"/>
        <pt x="148" y="468" on="1"/>
        <pt x="71" y="772" on="0"/>
      </contour>
    </TTGlyph>
    <TTGlyph name="bar" xMin="90" yMin="-84" xMax="178" yMax="760">
      <contour>
        <pt x="173" y="324" on="1"/>
        <pt x="178" y="-28" on="1"/>
        <pt x="178" y="-84" on="0"/>
        <pt x="90" y="-84" on="0"/>
        <pt x="90" y="-28" on="1"/>
        <pt x="95" y="324" on="1"/>
        <pt x="91" y="704" on="1"/>
        <pt x="91" y="760" on="0"/>
        <pt x="177" y="760" on="0"/>
        <pt x="177" y="704" on="1"/>
      </contour>
    </TTGlyph>
    <TTGlyph name="braceleft" xMin="29" yMin="-83" xMax="323" yMax="835">
      <contour>
        <pt x="293" y="3" on="0"/>
        <pt x="322" y="-18" on="0"/>
        <pt x="322" y="-58" on="0"/>
        <pt x="298" y="-83" on="0"/>
        <pt x="277" y="-83" on="1"/>
        <pt x="219" y="-83" on="0"/>
        <pt x="132" y="-19" on="0"/>
        <pt x="132" y="39" on="1"/>
        <pt x="132" y="66" on="0"/>
        <pt x="147" y="179" on="0"/>
        <pt x="147" y="210" on="1"/>
        <pt x="147" y="303" on="0"/>
        <pt x="125" y="322" on="1"/>
        <pt x="108" y="315" on="0"/>
        <pt x="65" y="315" on="0"/>
        <pt x="29" y="344" on="0"/>
        <pt x="29" y="404" on="0"/>
        <pt x="66" y="433" on="0"/>
        <pt x="109" y="433" on="0"/>
        <pt x="126" y="426" on="1"/>
        <pt x="148" y="445" on="0"/>
        <pt x="148" y="538" on="1"/>
        <pt x="148" y="569" on="0"/>
        <pt x="133" y="686" on="0"/>
        <pt x="133" y="713" on="1"/>
        <pt x="133" y="771" on="0"/>
        <pt x="220" y="835" on="0"/>
        <pt x="278" y="835" on="1"/>
        <pt x="299" y="835" on="0"/>
        <pt x="323" y="810" on="0"/>
        <pt x="323" y="770" on="0"/>
        <pt x="294" y="749" on="0"/>
        <pt x="260" y="745" on="0"/>
        <pt x="231" y="724" on="0"/>
        <pt x="231" y="687" on="0"/>
        <pt x="245" y="580" on="0"/>
        <pt x="245" y="487" on="0"/>
        <pt x="230" y="420" on="0"/>
        <pt x="216" y="396" on="0"/>
        <pt x="199" y="376" on="1"/>
        <pt x="215" y="357" on="0"/>
        <pt x="222" y="344" on="1"/>
        <pt x="244" y="305" on="0"/>
        <pt x="244" y="210" on="1"/>
        <pt x="244" y="168" on="0"/>
        <pt x="230" y="65" on="0"/>
        <pt x="230" y="28" on="0"/>
        <pt x="259" y="7" on="0"/>
      </contour>
    </TTGlyph>
    <TTGlyph name="braceright" xMin="56" yMin="-83" xMax="340" yMax="835">
      <contour>
        <pt x="180" y="376" on="1"/>
        <pt x="163" y="396" on="0"/>
        <pt x="149" y="420" on="0"/>
        <pt x="134" y="487" on="0"/>
        <pt x="134" y="580" on="0"/>
        <pt x="148" y="687" on="0"/>
        <pt x="148" y="724" on="0"/>
        <pt x="119" y="745" on="0"/>
        <pt x="85" y="749" on="0"/>
        <pt x="56" y="770" on="0"/>
        <pt x="56" y="810" on="0"/>
        <pt x="80" y="835" on="0"/>
        <pt x="101" y="835" on="1"/>
        <pt x="155" y="835" on="0"/>
        <pt x="236" y="771" on="0"/>
        <pt x="236" y="713" on="1"/>
        <pt x="236" y="686" on="0"/>
        <pt x="221" y="569" on="0"/>
        <pt x="221" y="538" on="1"/>
        <pt x="221" y="445" on="0"/>
        <pt x="243" y="426" on="1"/>
        <pt x="260" y="433" on="0"/>
        <pt x="303" y="433" on="0"/>
        <pt x="340" y="404" on="0"/>
        <pt x="340" y="344" on="0"/>
        <pt x="304" y="315" on="0"/>
        <pt x="262" y="315" on="0"/>
        <pt x="244" y="322" on="1"/>
        <pt x="222" y="303" on="0"/>
        <pt x="222" y="210" on="1"/>
        <pt x="222" y="179" on="0"/>
        <pt x="237" y="66" on="0"/>
        <pt x="237" y="39" on="1"/>
        <pt x="237" y="-19" on="0"/>
        <pt x="156" y="-83" on="0"/>
        <pt x="102" y="-83" on="1"/>
        <pt x="81" y="-83" on="0"/>
        <pt x="57" y="-58" on="0"/>
        <pt x="57" y="-18" on="0"/>
        <pt x="86" y="3" on="0"/>
        <pt x="120" y="7" on="0"/>
        <pt x="149" y="28" on="0"/>
        <pt x="149" y="65" on="0"/>
        <pt x="135" y="168" on="0"/>
        <pt x="135" y="261" on="0"/>
        <pt x="149" y="330" on="0"/>
        <pt x="164" y="357" on="0"/>
      </contour>
    </TTGlyph>
    <TTGlyph name="bracketleft" xMin="91" yMin="-87" xMax="397" yMax="839">
      <contour>
        <pt x="193" y="0" on="1"/>
        <pt x="337" y="3" on="1"/>
        <pt x="364" y="3" on="0"/>
        <pt x="397" y="-21" on="0"/>
        <pt x="397" y="-62" on="0"/>
        <pt x="364" y="-86" on="0"/>
        <pt x="337" y="-86" on="1"/>
        <pt x="243" y="-83" on="1"/>
        <pt x="146" y="-87" on="1"/>
        <pt x="122" y="-87" on="0"/>
        <pt x="92" y="-62" on="0"/>
        <pt x="92" y="-30" on="0"/>
        <pt x="98" y="239" on="0"/>
        <pt x="98" y="511" on="0"/>
        <pt x="91" y="770" on="0"/>
        <pt x="91" y="810" on="0"/>
        <pt x="121" y="839" on="0"/>
        <pt x="146" y="839" on="1"/>
        <pt x="243" y="835" on="1"/>
        <pt x="337" y="838" on="1"/>
        <pt x="363" y="838" on="0"/>
        <pt x="397" y="813" on="0"/>
        <pt x="397" y="773" on="0"/>
        <pt x="363" y="748" on="0"/>
        <pt x="337" y="748" on="1"/>
        <pt x="332" y="748" on="0"/>
        <pt x="314" y="749" on="1"/>
        <pt x="278" y="751" on="0"/>
        <pt x="193" y="751" on="1"/>
        <pt x="193" y="748" on="0"/>
        <pt x="187" y="489" on="0"/>
        <pt x="187" y="264" on="0"/>
        <pt x="193" y="8" on="0"/>
      </contour>
    </TTGlyph>
    <TTGlyph name="bracketright" xMin="41" yMin="-87" xMax="347" yMax="839">
      <contour>
        <pt x="245" y="752" on="1"/>
        <pt x="101" y="749" on="1"/>
        <pt x="74" y="749" on="0"/>
        <pt x="41" y="773" on="0"/>
        <pt x="41" y="814" on="0"/>
        <pt x="74" y="838" on="0"/>
        <pt x="101" y="838" on="1"/>
        <pt x="195" y="835" on="1"/>
        <pt x="292" y="839" on="1"/>
        <pt x="316" y="839" on="0"/>
        <pt x="346" y="814" on="0"/>
        <pt x="346" y="782" on="0"/>
        <pt x="340" y="513" on="0"/>
        <pt x="340" y="241" on="0"/>
        <pt x="347" y="-18" on="0"/>
        <pt x="347" y="-58" on="0"/>
        <pt x="317" y="-87" on="0"/>
        <pt x="292" y="-87" on="1"/>
        <pt x="195" y="-83" on="1"/>
        <pt x="101" y="-86" on="1"/>
        <pt x="75" y="-86" on="0"/>
        <pt x="41" y="-61" on="0"/>
        <pt x="41" y="-21" on="0"/>
        <pt x="75" y="4" on="0"/>
        <pt x="101" y="4" on="1"/>
        <pt x="245" y="1" on="1"/>
        <pt x="245" y="4" on="0"/>
        <pt x="251" y="263" on="0"/>
        <pt x="251" y="488" on="0"/>
        <pt x="245" y="744" on="0"/>
      </contour>
    </TTGlyph>
    <TTGlyph name="breve" xMin="47" yMin="590" xMax="372" yMax="762">
      <contour>
        <pt x="333" y="762" on="1"/>
        <pt x="372" y="762" on="0"/>
        <pt x="372" y="677" on="0"/>
        <pt x="280" y="590" on="0"/>
        <pt x="138" y="590" on="0"/>
        <pt x="47" y="677" on="0"/>
        <pt x="47" y="762" on="0"/>
        <pt x="85" y="762" on="1"/>
        <pt x="102" y="762" on="0"/>
        <pt x="122" y="742" on="0"/>
        <pt x="143" y="703" on="0"/>
        <pt x="157" y="685" on="0"/>
        <pt x="189" y="666" on="0"/>
        <pt x="229" y="666" on="0"/>
        <pt x="262" y="685" on="0"/>
        <pt x="275" y="703" on="0"/>
        <pt x="286" y="721" on="1"/>
        <pt x="306" y="762" on="0"/>
      </contour>
    </TTGlyph>
    <TTGlyph name="brokenbar" xMin="96" yMin="-10" xMax="183" yMax="760">
      <contour>
        <pt x="178" y="603" on="1"/>
        <pt x="183" y="499" on="1"/>
        <pt x="183" y="475" on="0"/>
        <pt x="159" y="446" on="0"/>
        <pt x="138" y="446" on="1"/>
        <pt x="96" y="446" on="0"/>
        <pt x="96" y="499" on="1"/>
        <pt x="100" y="603" on="1"/>
        <pt x="97" y="707" on="1"/>
        <pt x="97" y="760" on="0"/>
        <pt x="138" y="760" on="1"/>
        <pt x="159" y="760" on="0"/>
        <pt x="182" y="731" on="0"/>
        <pt x="182" y="707" on="1"/>
      </contour>
      <contour>
        <pt x="178" y="147" on="1"/>
        <pt x="183" y="43" on="1"/>
        <pt x="183" y="19" on="0"/>
        <pt x="159" y="-10" on="0"/>
        <pt x="138" y="-10" on="1"/>
        <pt x="96" y="-10" on="0"/>
        <pt x="96" y="43" on="1"/>
        <pt x="100" y="147" on="1"/>
        <pt x="97" y="251" on="1"/>
        <pt x="97" y="304" on="0"/>
        <pt x="138" y="304" on="1"/>
        <pt x="159" y="304" on="0"/>
        <pt x="182" y="275" on="0"/>
        <pt x="182" y="251" on="1"/>
      </contour>
    </TTGlyph>
    <TTGlyph name="bullet" xMin="66" yMin="268" xMax="268" yMax="510">
      <contour>
        <pt x="221" y="510" on="0"/>
        <pt x="268" y="446" on="0"/>
        <pt x="268" y="348" on="0"/>
        <pt x="206" y="268" on="0"/>
        <pt x="116" y="268" on="0"/>
        <pt x="66" y="335" on="0"/>
        <pt x="66" y="432" on="0"/>
        <pt x="128" y="510" on="0"/>
      </contour>
    </TTGlyph>
    <TTGlyph name="c" xMin="72" yMin="-15" xMax="655" yMax="765">
      <contour>
        <pt x="655" y="106" on="1"/>
        <pt x="655" y="70" on="0"/>
        <pt x="506" y="-15" on="0"/>
        <pt x="405" y="-15" on="1"/>
        <pt x="262" y="-15" on="0"/>
        <pt x="72" y="213" on="0"/>
        <pt x="72" y="539" on="0"/>
        <pt x="263" y="765" on="0"/>
        <pt x="407" y="765" on="1"/>
        <pt x="495" y="765" on="0"/>
        <pt x="634" y="699" on="0"/>
        <pt x="634" y="658" on="1"/>
        <pt x="634" y="638" on="0"/>
        <pt x="610" y="614" on="0"/>
        <pt x="569" y="614" on="0"/>
        <pt x="535" y="637" on="1"/>
        <pt x="471" y="678" on="0"/>
        <pt x="407" y="678" on="1"/>
        <pt x="303" y="678" on="0"/>
        <pt x="168" y="499" on="0"/>
        <pt x="168" y="254" on="0"/>
        <pt x="303" y="72" on="0"/>
        <pt x="499" y="72" on="0"/>
        <pt x="580" y="121" on="1"/>
        <pt x="613" y="139" on="0"/>
        <pt x="636" y="139" on="0"/>
        <pt x="655" y="120" on="0"/>
      </contour>
    </TTGlyph>
    <TTGlyph name="caron" xMin="75" yMin="567" xMax="405" yMax="760">
      <contour>
        <pt x="160" y="731" on="1"/>
        <pt x="224" y="654" on="0"/>
        <pt x="238" y="654" on="1"/>
        <pt x="254" y="654" on="0"/>
        <pt x="323" y="734" on="1"/>
        <pt x="345" y="760" on="0"/>
        <pt x="383" y="760" on="0"/>
        <pt x="405" y="739" on="0"/>
        <pt x="405" y="703" on="0"/>
        <pt x="352" y="659" on="0"/>
        <pt x="300" y="599" on="0"/>
        <pt x="261" y="567" on="0"/>
        <pt x="218" y="567" on="0"/>
        <pt x="180" y="599" on="0"/>
        <pt x="127" y="659" on="0"/>
        <pt x="75" y="702" on="0"/>
        <pt x="75" y="739" on="0"/>
        <pt x="97" y="760" on="0"/>
        <pt x="121" y="760" on="0"/>
        <pt x="132" y="756" on="0"/>
        <pt x="140" y="752" on="0"/>
        <pt x="145" y="747" on="1"/>
        <pt x="152" y="740" on="1"/>
        <pt x="155" y="737" on="0"/>
      </contour>
    </TTGlyph>
    <TTGlyph name="ccedilla" xMin="72" yMin="-230" xMax="655" yMax="765">
      <contour>
        <pt x="515" y="-133" on="1"/>
        <pt x="515" y="-175" on="0"/>
        <pt x="440" y="-230" on="0"/>
        <pt x="336" y="-230" on="0"/>
        <pt x="273" y="-181" on="0"/>
        <pt x="273" y="-155" on="1"/>
        <pt x="273" y="-146" on="0"/>
        <pt x="288" y="-130" on="0"/>
        <pt x="311" y="-130" on="0"/>
        <pt x="362" y="-154" on="0"/>
        <pt x="400" y="-154" on="0"/>
        <pt x="424" y="-140" on="0"/>
        <pt x="424" y="-122" on="0"/>
        <pt x="395" y="-101" on="0"/>
        <pt x="361" y="-80" on="0"/>
        <pt x="331" y="-35" on="0"/>
        <pt x="331" y="-6" on="1"/>
        <pt x="215" y="22" on="0"/>
        <pt x="72" y="235" on="0"/>
        <pt x="72" y="376" on="1"/>
        <pt x="72" y="539" on="0"/>
        <pt x="263" y="765" on="0"/>
        <pt x="407" y="765" on="1"/>
        <pt x="495" y="765" on="0"/>
        <pt x="634" y="699" on="0"/>
        <pt x="634" y="658" on="1"/>
        <pt x="634" y="638" on="0"/>
        <pt x="610" y="614" on="0"/>
        <pt x="571" y="614" on="0"/>
        <pt x="535" y="637" on="1"/>
        <pt x="477" y="678" on="0"/>
        <pt x="407" y="678" on="1"/>
        <pt x="303" y="678" on="0"/>
        <pt x="168" y="499" on="0"/>
        <pt x="168" y="254" on="0"/>
        <pt x="303" y="72" on="0"/>
        <pt x="499" y="72" on="0"/>
        <pt x="580" y="121" on="1"/>
        <pt x="613" y="139" on="0"/>
        <pt x="636" y="139" on="0"/>
        <pt x="655" y="120" on="0"/>
        <pt x="655" y="106" on="1"/>
        <pt x="655" y="71" on="0"/>
        <pt x="511" y="-13" on="0"/>
        <pt x="412" y="-15" on="1"/>
        <pt x="415" y="-32" on="0"/>
        <pt x="467" y="-66" on="0"/>
        <pt x="515" y="-106" on="0"/>
      </contour>
    </TTGlyph>
    <TTGlyph name="cedilla" xMin="39" yMin="-230" xMax="281" yMax="19">
      <contour>
        <pt x="281" y="-133" on="1"/>
        <pt x="281" y="-175" on="0"/>
        <pt x="206" y="-230" on="0"/>
        <pt x="102" y="-230" on="0"/>
        <pt x="39" y="-181" on="0"/>
        <pt x="39" y="-155" on="1"/>
        <pt x="39" y="-146" on="0"/>
        <pt x="54" y="-130" on="0"/>
        <pt x="77" y="-130" on="0"/>
        <pt x="128" y="-154" on="0"/>
        <pt x="166" y="-154" on="0"/>
        <pt x="190" y="-140" on="0"/>
        <pt x="190" y="-121" on="0"/>
        <pt x="161" y="-100" on="0"/>
        <pt x="126" y="-80" on="0"/>
        <pt x="97" y="-45" on="0"/>
        <pt x="97" y="-24" on="1"/>
        <pt x="97" y="19" on="1"/>
        <pt x="178" y="19" on="1"/>
        <pt x="178" y="-9" on="1"/>
        <pt x="178" y="-24" on="0"/>
        <pt x="210" y="-54" on="0"/>
        <pt x="249" y="-75" on="0"/>
        <pt x="281" y="-111" on="0"/>
      </contour>
    </TTGlyph>
    <TTGlyph name="cent" xMin="72" yMin="-82" xMax="665" yMax="787">
      <contour>
        <pt x="665" y="112" on="1"/>
        <pt x="665" y="82" on="0"/>
        <pt x="544" y="-1" on="0"/>
        <pt x="462" y="-11" on="1"/>
        <pt x="462" y="-82" on="0"/>
        <pt x="370" y="-82" on="0"/>
        <pt x="370" y="-7" on="1"/>
        <pt x="238" y="12" on="0"/>
        <pt x="72" y="215" on="0"/>
        <pt x="72" y="490" on="0"/>
        <pt x="236" y="690" on="0"/>
        <pt x="369" y="713" on="1"/>
        <pt x="369" y="787" on="0"/>
        <pt x="461" y="787" on="0"/>
        <pt x="461" y="716" on="1"/>
        <pt x="542" y="711" on="0"/>
        <pt x="653" y="652" on="0"/>
        <pt x="653" y="615" on="1"/>
        <pt x="653" y="597" on="0"/>
        <pt x="629" y="575" on="0"/>
        <pt x="588" y="575" on="0"/>
        <pt x="501" y="628" on="0"/>
        <pt x="459" y="635" on="1"/>
        <pt x="455" y="507" on="0"/>
        <pt x="455" y="200" on="0"/>
        <pt x="459" y="72" on="1"/>
        <pt x="529" y="81" on="0"/>
        <pt x="592" y="130" on="1"/>
        <pt x="613" y="145" on="0"/>
        <pt x="628" y="145" on="1"/>
        <pt x="665" y="145" on="0"/>
      </contour>
      <contour>
        <pt x="372" y="74" on="1"/>
        <pt x="375" y="266" on="0"/>
        <pt x="375" y="377" on="0"/>
        <pt x="371" y="633" on="1"/>
        <pt x="281" y="615" on="0"/>
        <pt x="167" y="454" on="0"/>
        <pt x="167" y="255" on="0"/>
        <pt x="282" y="92" on="0"/>
      </contour>
    </TTGlyph>
    <TTGlyph name="circumflex" xMin="75" yMin="567" xMax="405" yMax="760">
      <contour>
        <pt x="323" y="592" on="1"/>
        <pt x="254" y="673" on="0"/>
        <pt x="240" y="673" on="1"/>
        <pt x="224" y="673" on="0"/>
        <pt x="160" y="596" on="1"/>
        <pt x="155" y="590" on="0"/>
        <pt x="152" y="588" on="1"/>
        <pt x="145" y="580" on="1"/>
        <pt x="132" y="567" on="0"/>
        <pt x="97" y="567" on="0"/>
        <pt x="75" y="588" on="0"/>
        <pt x="75" y="625" on="0"/>
        <pt x="127" y="668" on="0"/>
        <pt x="180" y="728" on="0"/>
        <pt x="218" y="760" on="0"/>
        <pt x="261" y="760" on="0"/>
        <pt x="300" y="728" on="0"/>
        <pt x="352" y="668" on="0"/>
        <pt x="405" y="624" on="0"/>
        <pt x="405" y="588" on="0"/>
        <pt x="383" y="567" on="0"/>
        <pt x="357" y="567" on="0"/>
        <pt x="348" y="572" on="1"/>
        <pt x="335" y="579" on="0"/>
      </contour>
    </TTGlyph>
    <TTGlyph name="colon" xMin="81" yMin="-10" xMax="192" yMax="504">
      <contour>
        <pt x="165" y="504" on="0"/>
        <pt x="192" y="470" on="0"/>
        <pt x="192" y="418" on="0"/>
        <pt x="158" y="375" on="0"/>
        <pt x="109" y="375" on="0"/>
        <pt x="81" y="411" on="0"/>
        <pt x="81" y="463" on="0"/>
        <pt x="114" y="504" on="0"/>
      </contour>
      <contour>
        <pt x="165" y="119" on="0"/>
        <pt x="192" y="85" on="0"/>
        <pt x="192" y="32" on="0"/>
        <pt x="158" y="-10" on="0"/>
        <pt x="109" y="-10" on="0"/>
        <pt x="81" y="26" on="0"/>
        <pt x="81" y="78" on="0"/>
        <pt x="114" y="119" on="0"/>
      </contour>
    </TTGlyph>
    <TTGlyph name="comma" xMin="43" yMin="-148" xMax="177" yMax="104">
      <contour>
        <pt x="177" y="36" on="1"/>
        <pt x="177" y="-18" on="0"/>
        <pt x="105" y="-148" on="0"/>
        <pt x="43" y="-148" on="0"/>
        <pt x="43" y="-122" on="1"/>
        <pt x="43" y="-108" on="0"/>
        <pt x="74" y="-57" on="0"/>
        <pt x="74" y="-18" on="0"/>
        <pt x="66" y="18" on="0"/>
        <pt x="66" y="63" on="0"/>
        <pt x="98" y="104" on="0"/>
        <pt x="149" y="104" on="0"/>
        <pt x="177" y="67" on="0"/>
      </contour>
    </TTGlyph>
    <TTGlyph name="commaaccent" xMin="29" yMin="-236" xMax="170" yMax="-47">
      <contour>
        <pt x="76" y="-80" on="0"/>
        <pt x="100" y="-47" on="0"/>
        <pt x="145" y="-47" on="0"/>
        <pt x="170" y="-76" on="0"/>
        <pt x="170" y="-97" on="1"/>
        <pt x="170" y="-141" on="0"/>
        <pt x="88" y="-236" on="0"/>
        <pt x="61" y="-236" on="1"/>
        <pt x="47" y="-236" on="0"/>
        <pt x="29" y="-220" on="0"/>
        <pt x="29" y="-201" on="0"/>
        <pt x="58" y="-148" on="1"/>
        <pt x="63" y="-139" on="0"/>
      </contour>
    </TTGlyph>
    <TTGlyph name="copyright" xMin="79" yMin="133" xMax="707" yMax="765">
      <contour>
        <pt x="398" y="644" on="1"/>
        <pt x="443" y="644" on="0"/>
        <pt x="517" y="607" on="0"/>
        <pt x="517" y="583" on="1"/>
        <pt x="517" y="548" on="0"/>
        <pt x="481" y="548" on="1"/>
        <pt x="467" y="548" on="0"/>
        <pt x="450" y="560" on="1"/>
        <pt x="424" y="575" on="0"/>
        <pt x="403" y="575" on="1"/>
        <pt x="351" y="575" on="0"/>
        <pt x="294" y="499" on="0"/>
        <pt x="294" y="396" on="0"/>
        <pt x="357" y="322" on="0"/>
        <pt x="403" y="322" on="1"/>
        <pt x="433" y="322" on="0"/>
        <pt x="482" y="347" on="0"/>
        <pt x="494" y="347" on="1"/>
        <pt x="525" y="347" on="0"/>
        <pt x="525" y="316" on="1"/>
        <pt x="525" y="299" on="0"/>
        <pt x="451" y="253" on="0"/>
        <pt x="398" y="253" on="1"/>
        <pt x="321" y="253" on="0"/>
        <pt x="215" y="369" on="0"/>
        <pt x="215" y="530" on="0"/>
        <pt x="318" y="644" on="0"/>
      </contour>
      <contour>
        <pt x="707" y="580" on="0"/>
        <pt x="707" y="318" on="0"/>
        <pt x="523" y="133" on="0"/>
        <pt x="263" y="133" on="0"/>
        <pt x="79" y="318" on="0"/>
        <pt x="79" y="580" on="0"/>
        <pt x="263" y="765" on="0"/>
        <pt x="523" y="765" on="0"/>
      </contour>
      <contour>
        <pt x="490" y="204" on="0"/>
        <pt x="629" y="347" on="0"/>
        <pt x="629" y="552" on="0"/>
        <pt x="490" y="694" on="0"/>
        <pt x="295" y="694" on="0"/>
        <pt x="157" y="552" on="0"/>
        <pt x="157" y="347" on="0"/>
        <pt x="295" y="204" on="0"/>
      </contour>
    </TTGlyph>
    <TTGlyph name="currency" xMin="77" yMin="119" xMax="623" yMax="625">
      <contour>
        <pt x="487" y="189" on="1"/>
        <pt x="432" y="147" on="0"/>
        <pt x="268" y="147" on="0"/>
        <pt x="213" y="189" on="1"/>
        <pt x="205" y="180" on="0"/>
        <pt x="182" y="156" on="0"/>
        <pt x="173" y="146" on="0"/>
        <pt x="158" y="131" on="0"/>
        <pt x="151" y="126" on="0"/>
        <pt x="146" y="124" on="1"/>
        <pt x="136" y="119" on="0"/>
        <pt x="105" y="119" on="0"/>
        <pt x="77" y="145" on="0"/>
        <pt x="77" y="179" on="0"/>
        <pt x="101" y="208" on="0"/>
        <pt x="156" y="256" on="1"/>
        <pt x="128" y="309" on="0"/>
        <pt x="128" y="433" on="0"/>
        <pt x="157" y="488" on="1"/>
        <pt x="102" y="536" on="0"/>
        <pt x="78" y="565" on="0"/>
        <pt x="78" y="599" on="0"/>
        <pt x="106" y="625" on="0"/>
        <pt x="131" y="625" on="0"/>
        <pt x="141" y="623" on="0"/>
        <pt x="152" y="618" on="0"/>
        <pt x="159" y="613" on="0"/>
        <pt x="174" y="598" on="0"/>
        <pt x="183" y="588" on="0"/>
        <pt x="206" y="564" on="0"/>
        <pt x="214" y="555" on="1"/>
        <pt x="268" y="596" on="0"/>
        <pt x="432" y="596" on="0"/>
        <pt x="486" y="555" on="1"/>
        <pt x="539" y="611" on="0"/>
        <pt x="561" y="625" on="0"/>
        <pt x="594" y="625" on="0"/>
        <pt x="622" y="599" on="0"/>
        <pt x="622" y="565" on="0"/>
        <pt x="598" y="536" on="0"/>
        <pt x="543" y="488" on="1"/>
        <pt x="572" y="433" on="0"/>
        <pt x="572" y="306" on="0"/>
        <pt x="544" y="256" on="1"/>
        <pt x="599" y="208" on="0"/>
        <pt x="623" y="179" on="0"/>
        <pt x="623" y="145" on="0"/>
        <pt x="596" y="119" on="0"/>
        <pt x="574" y="119" on="0"/>
        <pt x="566" y="120" on="0"/>
        <pt x="557" y="123" on="0"/>
        <pt x="551" y="126" on="0"/>
        <pt x="541" y="134" on="0"/>
        <pt x="535" y="140" on="0"/>
        <pt x="521" y="153" on="0"/>
        <pt x="512" y="162" on="0"/>
        <pt x="494" y="182" on="0"/>
      </contour>
      <contour>
        <pt x="486" y="432" on="0"/>
        <pt x="405" y="518" on="0"/>
        <pt x="295" y="518" on="0"/>
        <pt x="214" y="432" on="0"/>
        <pt x="214" y="312" on="0"/>
        <pt x="294" y="226" on="0"/>
        <pt x="406" y="226" on="0"/>
        <pt x="486" y="312" on="0"/>
      </contour>
    </TTGlyph>
    <TTGlyph name="d" xMin="75" yMin="-15" xMax="687" yMax="764">
      <contour>
        <pt x="128" y="376" on="1"/>
        <pt x="123" y="636" on="1"/>
        <pt x="79" y="640" on="0"/>
        <pt x="79" y="715" on="0"/>
        <pt x="237" y="764" on="0"/>
        <pt x="406" y="764" on="0"/>
        <pt x="552" y="698" on="0"/>
        <pt x="596" y="642" on="1"/>
        <pt x="687" y="528" on="0"/>
        <pt x="687" y="372" on="1"/>
        <pt x="687" y="220" on="0"/>
        <pt x="600" y="108" on="1"/>
        <pt x="557" y="52" on="0"/>
        <pt x="415" y="-15" on="0"/>
        <pt x="219" y="-15" on="0"/>
        <pt x="75" y="35" on="0"/>
        <pt x="75" y="74" on="1"/>
        <pt x="75" y="111" on="0"/>
        <pt x="125" y="111" on="1"/>
      </contour>
      <contour>
        <pt x="591" y="501" on="0"/>
        <pt x="448" y="678" on="0"/>
        <pt x="313" y="678" on="1"/>
        <pt x="256" y="678" on="0"/>
        <pt x="222" y="661" on="1"/>
        <pt x="219" y="599" on="0"/>
        <pt x="219" y="182" on="0"/>
        <pt x="224" y="85" on="1"/>
        <pt x="260" y="72" on="0"/>
        <pt x="390" y="72" on="0"/>
        <pt x="495" y="124" on="0"/>
        <pt x="526" y="168" on="1"/>
        <pt x="591" y="258" on="0"/>
      </contour>
    </TTGlyph>
    <TTGlyph name="dagger" xMin="55" yMin="-83" xMax="541" yMax="760">
      <contour>
        <pt x="335" y="539" on="1"/>
        <pt x="492" y="542" on="1"/>
        <pt x="514" y="542" on="0"/>
        <pt x="541" y="521" on="0"/>
        <pt x="541" y="484" on="0"/>
        <pt x="514" y="463" on="0"/>
        <pt x="492" y="463" on="1"/>
        <pt x="334" y="466" on="1"/>
        <pt x="339" y="-26" on="1"/>
        <pt x="339" y="-52" on="0"/>
        <pt x="315" y="-83" on="0"/>
        <pt x="274" y="-83" on="0"/>
        <pt x="250" y="-52" on="0"/>
        <pt x="250" y="-26" on="1"/>
        <pt x="254" y="466" on="1"/>
        <pt x="105" y="463" on="1"/>
        <pt x="83" y="463" on="0"/>
        <pt x="55" y="484" on="0"/>
        <pt x="55" y="520" on="0"/>
        <pt x="83" y="542" on="0"/>
        <pt x="105" y="542" on="1"/>
        <pt x="253" y="539" on="1"/>
        <pt x="250" y="703" on="1"/>
        <pt x="250" y="729" on="0"/>
        <pt x="274" y="760" on="0"/>
        <pt x="315" y="760" on="0"/>
        <pt x="339" y="729" on="0"/>
        <pt x="339" y="703" on="1"/>
      </contour>
    </TTGlyph>
    <TTGlyph name="daggerdbl" xMin="65" yMin="-84" xMax="552" yMax="761">
      <contour>
        <pt x="345" y="295" on="1"/>
        <pt x="502" y="298" on="1"/>
        <pt x="524" y="298" on="0"/>
        <pt x="551" y="276" on="0"/>
        <pt x="551" y="240" on="0"/>
        <pt x="524" y="218" on="0"/>
        <pt x="502" y="218" on="1"/>
        <pt x="345" y="221" on="1"/>
        <pt x="350" y="-27" on="1"/>
        <pt x="350" y="-53" on="0"/>
        <pt x="326" y="-84" on="0"/>
        <pt x="284" y="-84" on="0"/>
        <pt x="260" y="-54" on="0"/>
        <pt x="260" y="-28" on="1"/>
        <pt x="265" y="221" on="1"/>
        <pt x="115" y="218" on="1"/>
        <pt x="93" y="218" on="0"/>
        <pt x="65" y="240" on="0"/>
        <pt x="65" y="276" on="0"/>
        <pt x="93" y="298" on="0"/>
        <pt x="115" y="298" on="1"/>
        <pt x="266" y="295" on="1"/>
        <pt x="266" y="428" on="0"/>
        <pt x="265" y="467" on="1"/>
        <pt x="116" y="464" on="1"/>
        <pt x="94" y="464" on="0"/>
        <pt x="66" y="485" on="0"/>
        <pt x="66" y="521" on="0"/>
        <pt x="94" y="543" on="0"/>
        <pt x="116" y="543" on="1"/>
        <pt x="264" y="540" on="1"/>
        <pt x="261" y="704" on="1"/>
        <pt x="261" y="730" on="0"/>
        <pt x="285" y="761" on="0"/>
        <pt x="326" y="761" on="0"/>
        <pt x="350" y="730" on="0"/>
        <pt x="350" y="704" on="1"/>
        <pt x="346" y="540" on="1"/>
        <pt x="503" y="543" on="1"/>
        <pt x="525" y="543" on="0"/>
        <pt x="552" y="522" on="0"/>
        <pt x="552" y="485" on="0"/>
        <pt x="525" y="464" on="0"/>
        <pt x="503" y="464" on="1"/>
        <pt x="345" y="467" on="1"/>
      </contour>
    </TTGlyph>
    <TTGlyph name="degree" xMin="64" yMin="464" xMax="338" yMax="763">
      <contour>
        <pt x="262" y="763" on="0"/>
        <pt x="338" y="676" on="0"/>
        <pt x="338" y="551" on="0"/>
        <pt x="262" y="464" on="0"/>
        <pt x="140" y="464" on="0"/>
        <pt x="64" y="550" on="0"/>
        <pt x="64" y="676" on="0"/>
        <pt x="140" y="763" on="0"/>
      </contour>
      <contour>
        <pt x="260" y="578" on="0"/>
        <pt x="260" y="648" on="0"/>
        <pt x="229" y="694" on="0"/>
        <pt x="173" y="694" on="0"/>
        <pt x="141" y="648" on="0"/>
        <pt x="141" y="579" on="0"/>
        <pt x="173" y="533" on="0"/>
        <pt x="229" y="533" on="0"/>
      </contour>
    </TTGlyph>
    <TTGlyph name="dieresis" xMin="85" yMin="578" xMax="391" yMax="707">
      <contour>
        <pt x="364" y="707" on="0"/>
        <pt x="391" y="673" on="0"/>
        <pt x="391" y="620" on="0"/>
        <pt x="357" y="578" on="0"/>
        <pt x="308" y="578" on="0"/>
        <pt x="280" y="614" on="0"/>
        <pt x="280" y="666" on="0"/>
        <pt x="313" y="707" on="0"/>
      </contour>
      <contour>
        <pt x="169" y="707" on="0"/>
        <pt x="196" y="673" on="0"/>
        <pt x="196" y="620" on="0"/>
        <pt x="162" y="578" on="0"/>
        <pt x="113" y="578" on="0"/>
        <pt x="85" y="614" on="0"/>
        <pt x="85" y="666" on="0"/>
        <pt x="118" y="707" on="0"/>
      </contour>
    </TTGlyph>
    <TTGlyph name="divide" xMin="76" yMin="133" xMax="552" yMax="615">
      <contour>
        <pt x="314" y="406" on="1"/>
        <pt x="511" y="409" on="1"/>
        <pt x="529" y="409" on="0"/>
        <pt x="552" y="389" on="0"/>
        <pt x="552" y="359" on="0"/>
        <pt x="529" y="339" on="0"/>
        <pt x="511" y="339" on="1"/>
        <pt x="314" y="342" on="1"/>
        <pt x="117" y="339" on="1"/>
        <pt x="99" y="339" on="0"/>
        <pt x="76" y="359" on="0"/>
        <pt x="76" y="389" on="0"/>
        <pt x="99" y="409" on="0"/>
        <pt x="117" y="409" on="1"/>
        <pt x="117" y="409" on="0"/>
      </contour>
      <contour>
        <pt x="342" y="615" on="0"/>
        <pt x="369" y="581" on="0"/>
        <pt x="369" y="528" on="0"/>
        <pt x="335" y="486" on="0"/>
        <pt x="286" y="486" on="0"/>
        <pt x="258" y="522" on="0"/>
        <pt x="258" y="574" on="0"/>
        <pt x="291" y="615" on="0"/>
      </contour>
      <contour>
        <pt x="344" y="262" on="0"/>
        <pt x="371" y="228" on="0"/>
        <pt x="371" y="176" on="0"/>
        <pt x="337" y="133" on="0"/>
        <pt x="288" y="133" on="0"/>
        <pt x="260" y="169" on="0"/>
        <pt x="260" y="221" on="0"/>
        <pt x="293" y="262" on="0"/>
      </contour>
    </TTGlyph>
    <TTGlyph name="dollar" xMin="67" yMin="-85" xMax="558" yMax="802">
      <contour>
        <pt x="558" y="117" on="0"/>
        <pt x="452" y="11" on="0"/>
        <pt x="366" y="-4" on="1"/>
        <pt x="366" y="-85" on="0"/>
        <pt x="274" y="-85" on="0"/>
        <pt x="274" y="-7" on="1"/>
        <pt x="195" y="0" on="0"/>
        <pt x="67" y="79" on="0"/>
        <pt x="67" y="115" on="1"/>
        <pt x="67" y="133" on="0"/>
        <pt x="91" y="157" on="0"/>
        <pt x="126" y="157" on="0"/>
        <pt x="162" y="135" on="0"/>
        <pt x="190" y="108" on="0"/>
        <pt x="244" y="82" on="0"/>
        <pt x="276" y="78" on="1"/>
        <pt x="279" y="267" on="0"/>
        <pt x="279" y="345" on="1"/>
        <pt x="199" y="389" on="0"/>
        <pt x="122" y="453" on="0"/>
        <pt x="93" y="511" on="0"/>
        <pt x="93" y="545" on="1"/>
        <pt x="93" y="607" on="0"/>
        <pt x="194" y="703" on="0"/>
        <pt x="273" y="715" on="1"/>
        <pt x="273" y="802" on="0"/>
        <pt x="365" y="802" on="0"/>
        <pt x="365" y="715" on="1"/>
        <pt x="429" y="707" on="0"/>
        <pt x="518" y="653" on="0"/>
        <pt x="518" y="622" on="1"/>
        <pt x="518" y="603" on="0"/>
        <pt x="494" y="581" on="0"/>
        <pt x="452" y="581" on="0"/>
        <pt x="388" y="623" on="0"/>
        <pt x="362" y="630" on="1"/>
        <pt x="359" y="456" on="0"/>
        <pt x="359" y="400" on="1"/>
        <pt x="405" y="375" on="0"/>
        <pt x="460" y="341" on="0"/>
        <pt x="493" y="314" on="1"/>
        <pt x="558" y="261" on="0"/>
      </contour>
      <contour>
        <pt x="462" y="188" on="1"/>
        <pt x="462" y="243" on="0"/>
        <pt x="359" y="301" on="1"/>
        <pt x="359" y="299" on="0"/>
        <pt x="363" y="83" on="1"/>
        <pt x="407" y="95" on="0"/>
        <pt x="462" y="149" on="0"/>
      </contour>
      <contour>
        <pt x="238" y="621" on="0"/>
        <pt x="189" y="575" on="0"/>
        <pt x="189" y="517" on="0"/>
        <pt x="234" y="471" on="0"/>
        <pt x="279" y="443" on="1"/>
        <pt x="275" y="623" on="0"/>
        <pt x="275" y="630" on="1"/>
      </contour>
    </TTGlyph>
    <TTGlyph name="dotaccent" xMin="65" yMin="631" xMax="176" yMax="760">
      <contour>
        <pt x="149" y="760" on="0"/>
        <pt x="176" y="726" on="0"/>
        <pt x="176" y="674" on="0"/>
        <pt x="142" y="631" on="0"/>
        <pt x="93" y="631" on="0"/>
        <pt x="65" y="667" on="0"/>
        <pt x="65" y="719" on="0"/>
        <pt x="98" y="760" on="0"/>
      </contour>
    </TTGlyph>
    <TTGlyph name="dotlessi" xMin="52" yMin="-7" xMax="450" yMax="756">
      <contour>
        <pt x="390" y="661" on="1"/>
        <pt x="300" y="665" on="1"/>
        <pt x="296" y="568" on="0"/>
        <pt x="296" y="205" on="0"/>
        <pt x="301" y="83" on="1"/>
        <pt x="390" y="88" on="1"/>
        <pt x="417" y="88" on="0"/>
        <pt x="450" y="63" on="0"/>
        <pt x="450" y="19" on="0"/>
        <pt x="417" y="-6" on="0"/>
        <pt x="390" y="-6" on="1"/>
        <pt x="390" y="-6" on="0"/>
        <pt x="251" y="0" on="1"/>
        <pt x="251" y="0" on="0"/>
        <pt x="112" y="-7" on="1"/>
        <pt x="85" y="-7" on="0"/>
        <pt x="52" y="18" on="0"/>
        <pt x="52" y="62" on="0"/>
        <pt x="85" y="87" on="0"/>
        <pt x="112" y="87" on="1"/>
        <pt x="201" y="82" on="1"/>
        <pt x="206" y="204" on="0"/>
        <pt x="206" y="568" on="0"/>
        <pt x="202" y="665" on="1"/>
        <pt x="112" y="661" on="1"/>
        <pt x="85" y="661" on="0"/>
        <pt x="52" y="686" on="0"/>
        <pt x="52" y="730" on="0"/>
        <pt x="85" y="755" on="0"/>
        <pt x="112" y="755" on="1"/>
        <pt x="251" y="750" on="1"/>
        <pt x="390" y="756" on="1"/>
        <pt x="417" y="756" on="0"/>
        <pt x="450" y="731" on="0"/>
        <pt x="450" y="687" on="0"/>
        <pt x="417" y="661" on="0"/>
      </contour>
    </TTGlyph>
    <TTGlyph name="e" xMin="42" yMin="-15" xMax="692" yMax="765">
      <contour>
        <pt x="596" y="553" on="1"/>
        <pt x="596" y="600" on="0"/>
        <pt x="519" y="678" on="0"/>
        <pt x="385" y="678" on="0"/>
        <pt x="334" y="638" on="1"/>
        <pt x="240" y="565" on="0"/>
        <pt x="213" y="421" on="1"/>
        <pt x="289" y="400" on="0"/>
        <pt x="480" y="400" on="0"/>
        <pt x="596" y="480" on="0"/>
      </contour>
      <contour>
        <pt x="668" y="71" on="0"/>
        <pt x="526" y="-15" on="0"/>
        <pt x="362" y="-15" on="0"/>
        <pt x="240" y="47" on="0"/>
        <pt x="201" y="99" on="1"/>
        <pt x="120" y="207" on="0"/>
        <pt x="114" y="352" on="1"/>
        <pt x="42" y="374" on="0"/>
        <pt x="42" y="423" on="1"/>
        <pt x="42" y="443" on="0"/>
        <pt x="65" y="466" on="0"/>
        <pt x="95" y="466" on="0"/>
        <pt x="122" y="454" on="1"/>
        <pt x="153" y="588" on="0"/>
        <pt x="324" y="765" on="0"/>
        <pt x="448" y="765" on="1"/>
        <pt x="549" y="765" on="0"/>
        <pt x="692" y="643" on="0"/>
        <pt x="692" y="471" on="0"/>
        <pt x="648" y="416" on="1"/>
        <pt x="565" y="315" on="0"/>
        <pt x="390" y="315" on="1"/>
        <pt x="318" y="315" on="0"/>
        <pt x="211" y="335" on="1"/>
        <pt x="220" y="227" on="0"/>
        <pt x="345" y="72" on="0"/>
        <pt x="518" y="72" on="0"/>
        <pt x="593" y="121" on="1"/>
        <pt x="626" y="139" on="0"/>
        <pt x="649" y="139" on="0"/>
        <pt x="668" y="120" on="0"/>
        <pt x="668" y="106" on="1"/>
      </contour>
    </TTGlyph>
    <TTGlyph name="eacute" xMin="42" yMin="-15" xMax="692" yMax="990">
      <contour>
        <pt x="596" y="553" on="1"/>
        <pt x="596" y="600" on="0"/>
        <pt x="519" y="678" on="0"/>
        <pt x="385" y="678" on="0"/>
        <pt x="334" y="638" on="1"/>
        <pt x="240" y="565" on="0"/>
        <pt x="213" y="421" on="1"/>
        <pt x="289" y="400" on="0"/>
        <pt x="480" y="400" on="0"/>
        <pt x="596" y="480" on="0"/>
      </contour>
      <contour>
        <pt x="668" y="71" on="0"/>
        <pt x="526" y="-15" on="0"/>
        <pt x="362" y="-15" on="0"/>
        <pt x="240" y="47" on="0"/>
        <pt x="201" y="99" on="1"/>
        <pt x="120" y="207" on="0"/>
        <pt x="114" y="352" on="1"/>
        <pt x="42" y="374" on="0"/>
        <pt x="42" y="423" on="1"/>
        <pt x="42" y="443" on="0"/>
        <pt x="65" y="466" on="0"/>
        <pt x="95" y="466" on="0"/>
        <pt x="122" y="454" on="1"/>
        <pt x="153" y="588" on="0"/>
        <pt x="324" y="765" on="0"/>
        <pt x="448" y="765" on="1"/>
        <pt x="549" y="765" on="0"/>
        <pt x="692" y="643" on="0"/>
        <pt x="692" y="471" on="0"/>
        <pt x="648" y="416" on="1"/>
        <pt x="565" y="315" on="0"/>
        <pt x="390" y="315" on="1"/>
        <pt x="318" y="315" on="0"/>
        <pt x="211" y="335" on="1"/>
        <pt x="220" y="227" on="0"/>
        <pt x="345" y="72" on="0"/>
        <pt x="518" y="72" on="0"/>
        <pt x="593" y="121" on="1"/>
        <pt x="626" y="139" on="0"/>
        <pt x="649" y="139" on="0"/>
        <pt x="668" y="120" on="0"/>
        <pt x="668" y="106" on="1"/>
      </contour>
      <contour>
        <pt x="546" y="946" on="1"/>
        <pt x="546" y="902" on="0"/>
        <pt x="451" y="813" on="0"/>
        <pt x="419" y="813" on="1"/>
        <pt x="403" y="813" on="0"/>
        <pt x="386" y="829" on="0"/>
        <pt x="386" y="853" on="0"/>
        <pt x="434" y="912" on="0"/>
        <pt x="452" y="952" on="0"/>
        <pt x="463" y="971" on="0"/>
        <pt x="488" y="990" on="0"/>
        <pt x="523" y="990" on="0"/>
        <pt x="546" y="963" on="0"/>
      </contour>
    </TTGlyph>
    <TTGlyph name="ecircumflex" xMin="42" yMin="-15" xMax="692" yMax="1010">
      <component glyphName="e" x="0" y="0" flags="0x1004"/>
      <component glyphName="circumflex" x="199" y="250" flags="0x1004"/>
    </TTGlyph>
    <TTGlyph name="edieresis" xMin="42" yMin="-15" xMax="692" yMax="967">
      <contour>
        <pt x="596" y="553" on="1"/>
        <pt x="596" y="600" on="0"/>
        <pt x="519" y="678" on="0"/>
        <pt x="385" y="678" on="0"/>
        <pt x="334" y="638" on="1"/>
        <pt x="240" y="565" on="0"/>
        <pt x="213" y="421" on="1"/>
        <pt x="289" y="400" on="0"/>
        <pt x="480" y="400" on="0"/>
        <pt x="596" y="480" on="0"/>
      </contour>
      <contour>
        <pt x="668" y="71" on="0"/>
        <pt x="526" y="-15" on="0"/>
        <pt x="362" y="-15" on="0"/>
        <pt x="240" y="47" on="0"/>
        <pt x="201" y="99" on="1"/>
        <pt x="120" y="207" on="0"/>
        <pt x="114" y="352" on="1"/>
        <pt x="42" y="374" on="0"/>
        <pt x="42" y="423" on="1"/>
        <pt x="42" y="443" on="0"/>
        <pt x="65" y="466" on="0"/>
        <pt x="95" y="466" on="0"/>
        <pt x="122" y="454" on="1"/>
        <pt x="153" y="588" on="0"/>
        <pt x="324" y="765" on="0"/>
        <pt x="448" y="765" on="1"/>
        <pt x="549" y="765" on="0"/>
        <pt x="692" y="643" on="0"/>
        <pt x="692" y="471" on="0"/>
        <pt x="648" y="416" on="1"/>
        <pt x="565" y="315" on="0"/>
        <pt x="390" y="315" on="1"/>
        <pt x="318" y="315" on="0"/>
        <pt x="211" y="335" on="1"/>
        <pt x="220" y="227" on="0"/>
        <pt x="345" y="72" on="0"/>
        <pt x="518" y="72" on="0"/>
        <pt x="593" y="121" on="1"/>
        <pt x="626" y="139" on="0"/>
        <pt x="649" y="139" on="0"/>
        <pt x="668" y="120" on="0"/>
        <pt x="668" y="106" on="1"/>
      </contour>
      <contour>
        <pt x="571" y="967" on="0"/>
        <pt x="598" y="933" on="0"/>
        <pt x="598" y="881" on="0"/>
        <pt x="564" y="838" on="0"/>
        <pt x="515" y="838" on="0"/>
        <pt x="487" y="874" on="0"/>
        <pt x="487" y="926" on="0"/>
        <pt x="520" y="967" on="0"/>
      </contour>
      <contour>
        <pt x="376" y="967" on="0"/>
        <pt x="403" y="933" on="0"/>
        <pt x="403" y="881" on="0"/>
        <pt x="369" y="838" on="0"/>
        <pt x="320" y="838" on="0"/>
        <pt x="292" y="874" on="0"/>
        <pt x="292" y="926" on="0"/>
        <pt x="325" y="967" on="0"/>
      </contour>
    </TTGlyph>
    <TTGlyph name="egrave" xMin="42" yMin="-15" xMax="692" yMax="990">
      <component glyphName="e" x="0" y="0" flags="0x1004"/>
      <component glyphName="grave" x="240" y="250" flags="0x1004"/>
    </TTGlyph>
    <TTGlyph name="eight" xMin="74" yMin="-15" xMax="572" yMax="766">
      <contour>
        <pt x="572" y="204" on="1"/>
        <pt x="572" y="113" on="0"/>
        <pt x="432" y="-15" on="0"/>
        <pt x="214" y="-15" on="0"/>
        <pt x="74" y="113" on="0"/>
        <pt x="74" y="204" on="1"/>
        <pt x="74" y="337" on="0"/>
        <pt x="237" y="419" on="1"/>
        <pt x="114" y="491" on="0"/>
        <pt x="114" y="590" on="1"/>
        <pt x="114" y="662" on="0"/>
        <pt x="233" y="766" on="0"/>
        <pt x="412" y="766" on="0"/>
        <pt x="532" y="662" on="0"/>
        <pt x="532" y="590" on="1"/>
        <pt x="532" y="494" on="0"/>
        <pt x="416" y="419" on="1"/>
        <pt x="572" y="336" on="0"/>
      </contour>
      <contour>
        <pt x="476" y="204" on="1"/>
        <pt x="476" y="304" on="0"/>
        <pt x="323" y="371" on="1"/>
        <pt x="170" y="304" on="0"/>
        <pt x="170" y="204" on="1"/>
        <pt x="170" y="145" on="0"/>
        <pt x="258" y="72" on="0"/>
        <pt x="388" y="72" on="0"/>
        <pt x="476" y="145" on="0"/>
      </contour>
      <contour>
        <pt x="439" y="553" on="0"/>
        <pt x="439" y="627" on="0"/>
        <pt x="368" y="679" on="0"/>
        <pt x="279" y="679" on="0"/>
        <pt x="207" y="627" on="0"/>
        <pt x="207" y="554" on="0"/>
        <pt x="269" y="496" on="0"/>
        <pt x="325" y="464" on="1"/>
        <pt x="379" y="494" on="0"/>
      </contour>
    </TTGlyph>
    <TTGlyph name="ellipsis" xMin="71" yMin="-10" xMax="584" yMax="119">
      <contour>
        <pt x="155" y="119" on="0"/>
        <pt x="182" y="85" on="0"/>
        <pt x="182" y="32" on="0"/>
        <pt x="148" y="-10" on="0"/>
        <pt x="99" y="-10" on="0"/>
        <pt x="71" y="26" on="0"/>
        <pt x="71" y="78" on="0"/>
        <pt x="104" y="119" on="0"/>
      </contour>
      <contour>
        <pt x="557" y="119" on="0"/>
        <pt x="584" y="85" on="0"/>
        <pt x="584" y="32" on="0"/>
        <pt x="550" y="-10" on="0"/>
        <pt x="501" y="-10" on="0"/>
        <pt x="473" y="26" on="0"/>
        <pt x="473" y="78" on="0"/>
        <pt x="506" y="119" on="0"/>
      </contour>
      <contour>
        <pt x="361" y="119" on="0"/>
        <pt x="388" y="85" on="0"/>
        <pt x="388" y="32" on="0"/>
        <pt x="354" y="-10" on="0"/>
        <pt x="305" y="-10" on="0"/>
        <pt x="277" y="26" on="0"/>
        <pt x="277" y="78" on="0"/>
        <pt x="310" y="119" on="0"/>
      </contour>
    </TTGlyph>
    <TTGlyph name="emdash" xMin="71" yMin="333" xMax="809" yMax="417">
      <contour>
        <pt x="440" y="336" on="1"/>
        <pt x="120" y="333" on="1"/>
        <pt x="98" y="333" on="0"/>
        <pt x="71" y="357" on="0"/>
        <pt x="71" y="393" on="0"/>
        <pt x="98" y="417" on="0"/>
        <pt x="120" y="417" on="1"/>
        <pt x="440" y="414" on="1"/>
        <pt x="760" y="417" on="1"/>
        <pt x="782" y="417" on="0"/>
        <pt x="809" y="393" on="0"/>
        <pt x="809" y="357" on="0"/>
        <pt x="782" y="333" on="0"/>
        <pt x="760" y="333" on="1"/>
        <pt x="760" y="333" on="0"/>
      </contour>
    </TTGlyph>
    <TTGlyph name="endash" xMin="81" yMin="333" xMax="539" yMax="417">
      <contour>
        <pt x="310" y="336" on="1"/>
        <pt x="130" y="333" on="1"/>
        <pt x="108" y="333" on="0"/>
        <pt x="81" y="357" on="0"/>
        <pt x="81" y="393" on="0"/>
        <pt x="108" y="417" on="0"/>
        <pt x="130" y="417" on="1"/>
        <pt x="310" y="414" on="1"/>
        <pt x="490" y="417" on="1"/>
        <pt x="512" y="417" on="0"/>
        <pt x="539" y="393" on="0"/>
        <pt x="539" y="357" on="0"/>
        <pt x="512" y="333" on="0"/>
        <pt x="490" y="333" on="1"/>
        <pt x="490" y="333" on="0"/>
      </contour>
    </TTGlyph>
    <TTGlyph name="equal" xMin="93" yMin="255" xMax="569" yMax="493">
      <contour>
        <pt x="326" y="412" on="1"/>
        <pt x="142" y="409" on="1"/>
        <pt x="120" y="409" on="0"/>
        <pt x="93" y="433" on="0"/>
        <pt x="93" y="469" on="0"/>
        <pt x="120" y="493" on="0"/>
        <pt x="142" y="493" on="1"/>
        <pt x="326" y="490" on="1"/>
        <pt x="520" y="493" on="1"/>
        <pt x="542" y="493" on="0"/>
        <pt x="569" y="469" on="0"/>
        <pt x="569" y="433" on="0"/>
        <pt x="542" y="409" on="0"/>
        <pt x="520" y="409" on="1"/>
      </contour>
      <contour>
        <pt x="326" y="258" on="1"/>
        <pt x="142" y="255" on="1"/>
        <pt x="120" y="255" on="0"/>
        <pt x="93" y="279" on="0"/>
        <pt x="93" y="315" on="0"/>
        <pt x="120" y="339" on="0"/>
        <pt x="142" y="339" on="1"/>
        <pt x="326" y="336" on="1"/>
        <pt x="520" y="339" on="1"/>
        <pt x="542" y="339" on="0"/>
        <pt x="569" y="315" on="0"/>
        <pt x="569" y="279" on="0"/>
        <pt x="542" y="255" on="0"/>
        <pt x="520" y="255" on="1"/>
      </contour>
    </TTGlyph>
    <TTGlyph name="eth" xMin="63" yMin="-15" xMax="544" yMax="760">
      <contour>
        <pt x="544" y="300" on="1"/>
        <pt x="544" y="164" on="0"/>
        <pt x="419" y="-15" on="0"/>
        <pt x="298" y="-15" on="1"/>
        <pt x="192" y="-15" on="0"/>
        <pt x="63" y="131" on="0"/>
        <pt x="63" y="330" on="0"/>
        <pt x="191" y="489" on="0"/>
        <pt x="293" y="489" on="1"/>
        <pt x="374" y="489" on="0"/>
        <pt x="440" y="432" on="1"/>
        <pt x="410" y="533" on="0"/>
        <pt x="338" y="595" on="1"/>
        <pt x="336" y="593" on="0"/>
        <pt x="296" y="546" on="0"/>
        <pt x="266" y="526" on="0"/>
        <pt x="232" y="526" on="0"/>
        <pt x="209" y="547" on="0"/>
        <pt x="209" y="572" on="0"/>
        <pt x="226" y="595" on="0"/>
        <pt x="243" y="610" on="0"/>
        <pt x="276" y="634" on="0"/>
        <pt x="279" y="637" on="1"/>
        <pt x="256" y="650" on="0"/>
        <pt x="182" y="659" on="0"/>
        <pt x="168" y="664" on="1"/>
        <pt x="138" y="672" on="0"/>
        <pt x="138" y="701" on="1"/>
        <pt x="138" y="717" on="0"/>
        <pt x="167" y="741" on="0"/>
        <pt x="194" y="741" on="1"/>
        <pt x="267" y="741" on="0"/>
        <pt x="341" y="696" on="1"/>
        <pt x="384" y="739" on="0"/>
        <pt x="413" y="760" on="0"/>
        <pt x="446" y="760" on="0"/>
        <pt x="469" y="740" on="0"/>
        <pt x="469" y="711" on="0"/>
        <pt x="453" y="687" on="0"/>
        <pt x="439" y="674" on="0"/>
        <pt x="406" y="651" on="0"/>
        <pt x="403" y="648" on="1"/>
        <pt x="472" y="587" on="0"/>
        <pt x="544" y="401" on="0"/>
      </contour>
      <contour>
        <pt x="360" y="72" on="0"/>
        <pt x="442" y="168" on="0"/>
        <pt x="442" y="305" on="0"/>
        <pt x="369" y="402" on="0"/>
        <pt x="243" y="402" on="0"/>
        <pt x="159" y="302" on="0"/>
        <pt x="159" y="161" on="0"/>
        <pt x="238" y="72" on="0"/>
      </contour>
    </TTGlyph>
    <TTGlyph name="exclam" xMin="90" yMin="-15" xMax="199" yMax="760">
      <contour>
        <pt x="173" y="112" on="0"/>
        <pt x="199" y="78" on="0"/>
        <pt x="199" y="27" on="0"/>
        <pt x="165" y="-15" on="0"/>
        <pt x="117" y="-15" on="0"/>
        <pt x="90" y="22" on="0"/>
        <pt x="90" y="72" on="0"/>
        <pt x="123" y="112" on="0"/>
      </contour>
      <contour>
        <pt x="188" y="467" on="1"/>
        <pt x="189" y="266" on="1"/>
        <pt x="189" y="240" on="0"/>
        <pt x="165" y="210" on="0"/>
        <pt x="123" y="210" on="0"/>
        <pt x="99" y="240" on="0"/>
        <pt x="99" y="266" on="1"/>
        <pt x="101" y="467" on="1"/>
        <pt x="93" y="695" on="1"/>
        <pt x="93" y="725" on="0"/>
        <pt x="120" y="760" on="0"/>
        <pt x="168" y="760" on="0"/>
        <pt x="195" y="725" on="0"/>
        <pt x="195" y="695" on="1"/>
      </contour>
    </TTGlyph>
    <TTGlyph name="exclamdown" xMin="79" yMin="-85" xMax="188" yMax="690">
      <contour>
        <pt x="161" y="690" on="0"/>
        <pt x="188" y="653" on="0"/>
        <pt x="188" y="603" on="0"/>
        <pt x="155" y="563" on="0"/>
        <pt x="105" y="563" on="0"/>
        <pt x="79" y="597" on="0"/>
        <pt x="79" y="648" on="0"/>
        <pt x="113" y="690" on="0"/>
      </contour>
      <contour>
        <pt x="177" y="208" on="1"/>
        <pt x="185" y="-20" on="1"/>
        <pt x="185" y="-50" on="0"/>
        <pt x="158" y="-85" on="0"/>
        <pt x="110" y="-85" on="0"/>
        <pt x="83" y="-50" on="0"/>
        <pt x="83" y="-20" on="1"/>
        <pt x="90" y="208" on="1"/>
        <pt x="89" y="409" on="1"/>
        <pt x="89" y="435" on="0"/>
        <pt x="113" y="465" on="0"/>
        <pt x="155" y="465" on="0"/>
        <pt x="179" y="435" on="0"/>
        <pt x="179" y="409" on="1"/>
      </contour>
    </TTGlyph>
    <TTGlyph name="f" xMin="60" yMin="-10" xMax="575" yMax="756">
      <contour>
        <pt x="284" y="440" on="1"/>
        <pt x="454" y="445" on="1"/>
        <pt x="481" y="445" on="0"/>
        <pt x="513" y="420" on="0"/>
        <pt x="513" y="399" on="1"/>
        <pt x="513" y="355" on="0"/>
        <pt x="454" y="355" on="1"/>
        <pt x="284" y="359" on="1"/>
        <pt x="240" y="359" on="0"/>
        <pt x="217" y="358" on="1"/>
        <pt x="217" y="227" on="0"/>
        <pt x="223" y="69" on="0"/>
        <pt x="223" y="61" on="1"/>
        <pt x="223" y="-10" on="0"/>
        <pt x="121" y="-10" on="0"/>
        <pt x="121" y="61" on="1"/>
        <pt x="121" y="69" on="0"/>
        <pt x="122" y="108" on="1"/>
        <pt x="127" y="225" on="0"/>
        <pt x="127" y="355" on="1"/>
        <pt x="60" y="355" on="0"/>
        <pt x="60" y="399" on="1"/>
        <pt x="60" y="422" on="0"/>
        <pt x="98" y="445" on="0"/>
        <pt x="127" y="445" on="1"/>
        <pt x="125" y="632" on="0"/>
        <pt x="120" y="670" on="1"/>
        <pt x="108" y="689" on="0"/>
        <pt x="108" y="710" on="1"/>
        <pt x="108" y="755" on="0"/>
        <pt x="170" y="755" on="1"/>
        <pt x="355" y="750" on="1"/>
        <pt x="515" y="756" on="1"/>
        <pt x="542" y="756" on="0"/>
        <pt x="575" y="731" on="0"/>
        <pt x="575" y="687" on="0"/>
        <pt x="542" y="662" on="0"/>
        <pt x="515" y="662" on="1"/>
        <pt x="355" y="668" on="1"/>
        <pt x="277" y="668" on="0"/>
        <pt x="217" y="663" on="1"/>
        <pt x="217" y="441" on="1"/>
        <pt x="236" y="440" on="0"/>
      </contour>
    </TTGlyph>
    <TTGlyph name="five" xMin="79" yMin="-15" xMax="577" yMax="755">
      <contour>
        <pt x="325" y="750" on="1"/>
        <pt x="477" y="755" on="1"/>
        <pt x="504" y="755" on="0"/>
        <pt x="537" y="730" on="0"/>
        <pt x="537" y="686" on="0"/>
        <pt x="504" y="661" on="0"/>
        <pt x="471" y="661" on="0"/>
        <pt x="362" y="669" on="0"/>
        <pt x="300" y="669" on="0"/>
        <pt x="211" y="665" on="0"/>
        <pt x="193" y="665" on="1"/>
        <pt x="198" y="628" on="0"/>
        <pt x="198" y="560" on="1"/>
        <pt x="193" y="454" on="1"/>
        <pt x="261" y="498" on="0"/>
        <pt x="337" y="498" on="1"/>
        <pt x="451" y="498" on="0"/>
        <pt x="577" y="357" on="0"/>
        <pt x="577" y="142" on="0"/>
        <pt x="435" y="-15" on="0"/>
        <pt x="314" y="-15" on="1"/>
        <pt x="213" y="-15" on="0"/>
        <pt x="79" y="98" on="0"/>
        <pt x="79" y="150" on="1"/>
        <pt x="79" y="168" on="0"/>
        <pt x="104" y="195" on="0"/>
        <pt x="133" y="195" on="0"/>
        <pt x="151" y="185" on="0"/>
        <pt x="160" y="174" on="0"/>
        <pt x="168" y="162" on="1"/>
        <pt x="228" y="72" on="0"/>
        <pt x="321" y="72" on="1"/>
        <pt x="390" y="72" on="0"/>
        <pt x="482" y="180" on="0"/>
        <pt x="482" y="322" on="0"/>
        <pt x="401" y="415" on="0"/>
        <pt x="332" y="415" on="1"/>
        <pt x="267" y="415" on="0"/>
        <pt x="188" y="359" on="1"/>
        <pt x="162" y="340" on="0"/>
        <pt x="146" y="340" on="1"/>
        <pt x="96" y="340" on="0"/>
        <pt x="96" y="390" on="1"/>
        <pt x="96" y="403" on="0"/>
        <pt x="110" y="519" on="0"/>
        <pt x="110" y="600" on="0"/>
        <pt x="98" y="682" on="0"/>
        <pt x="98" y="699" on="1"/>
        <pt x="98" y="754" on="0"/>
        <pt x="164" y="754" on="1"/>
      </contour>
    </TTGlyph>
    <TTGlyph name="four" xMin="40" yMin="-9" xMax="594" yMax="760">
      <contour>
        <pt x="482" y="329" on="1"/>
        <pt x="533" y="332" on="1"/>
        <pt x="561" y="332" on="0"/>
        <pt x="594" y="307" on="0"/>
        <pt x="594" y="267" on="0"/>
        <pt x="561" y="242" on="0"/>
        <pt x="533" y="242" on="1"/>
        <pt x="482" y="243" on="1"/>
        <pt x="488" y="50" on="1"/>
        <pt x="488" y="23" on="0"/>
        <pt x="462" y="-9" on="0"/>
        <pt x="415" y="-9" on="0"/>
        <pt x="389" y="23" on="0"/>
        <pt x="389" y="50" on="1"/>
        <pt x="393" y="243" on="1"/>
        <pt x="324" y="243" on="1"/>
        <pt x="96" y="242" on="1"/>
        <pt x="70" y="242" on="0"/>
        <pt x="40" y="270" on="0"/>
        <pt x="40" y="313" on="0"/>
        <pt x="77" y="370" on="0"/>
        <pt x="137" y="446" on="1"/>
        <pt x="341" y="708" on="1"/>
        <pt x="382" y="760" on="0"/>
        <pt x="425" y="760" on="1"/>
        <pt x="451" y="760" on="0"/>
        <pt x="488" y="727" on="0"/>
        <pt x="488" y="690" on="1"/>
        <pt x="488" y="681" on="0"/>
        <pt x="486" y="634" on="1"/>
        <pt x="482" y="491" on="0"/>
      </contour>
      <contour>
        <pt x="157" y="327" on="1"/>
        <pt x="394" y="327" on="1"/>
        <pt x="394" y="373" on="0"/>
        <pt x="391" y="612" on="0"/>
        <pt x="391" y="629" on="1"/>
        <pt x="279" y="496" on="0"/>
      </contour>
    </TTGlyph>
    <TTGlyph name="fraction" xMin="30" yMin="-10" xMax="361" yMax="760">
      <contour>
        <pt x="332" y="620" on="0"/>
        <pt x="262" y="442" on="0"/>
        <pt x="213" y="307" on="0"/>
        <pt x="126" y="47" on="1"/>
        <pt x="115" y="15" on="0"/>
        <pt x="90" y="-10" on="0"/>
        <pt x="56" y="-10" on="0"/>
        <pt x="30" y="12" on="0"/>
        <pt x="30" y="49" on="0"/>
        <pt x="59" y="129" on="0"/>
        <pt x="128" y="304" on="0"/>
        <pt x="179" y="446" on="0"/>
        <pt x="265" y="703" on="1"/>
        <pt x="276" y="735" on="0"/>
        <pt x="301" y="760" on="0"/>
        <pt x="335" y="760" on="0"/>
        <pt x="361" y="738" on="0"/>
        <pt x="361" y="701" on="0"/>
      </contour>
    </TTGlyph>
    <TTGlyph name="g" xMin="72" yMin="-15" xMax="712" yMax="765">
      <contour>
        <pt x="526" y="398" on="1"/>
        <pt x="652" y="404" on="1"/>
        <pt x="679" y="404" on="0"/>
        <pt x="712" y="378" on="0"/>
        <pt x="712" y="353" on="1"/>
        <pt x="712" y="183" on="0"/>
        <pt x="541" y="-15" on="0"/>
        <pt x="262" y="-15" on="0"/>
        <pt x="72" y="213" on="0"/>
        <pt x="72" y="539" on="0"/>
        <pt x="268" y="765" on="0"/>
        <pt x="418" y="765" on="1"/>
        <pt x="511" y="765" on="0"/>
        <pt x="664" y="691" on="0"/>
        <pt x="664" y="648" on="1"/>
        <pt x="664" y="629" on="0"/>
        <pt x="641" y="607" on="0"/>
        <pt x="596" y="607" on="0"/>
        <pt x="558" y="634" on="1"/>
        <pt x="497" y="678" on="0"/>
        <pt x="418" y="678" on="1"/>
        <pt x="310" y="678" on="0"/>
        <pt x="168" y="500" on="0"/>
        <pt x="168" y="255" on="0"/>
        <pt x="304" y="72" on="0"/>
        <pt x="407" y="72" on="1"/>
        <pt x="492" y="72" on="0"/>
        <pt x="606" y="198" on="0"/>
        <pt x="610" y="314" on="1"/>
        <pt x="577" y="317" on="0"/>
        <pt x="526" y="317" on="1"/>
        <pt x="391" y="312" on="1"/>
        <pt x="364" y="312" on="0"/>
        <pt x="334" y="336" on="0"/>
        <pt x="334" y="377" on="0"/>
        <pt x="364" y="403" on="0"/>
        <pt x="391" y="403" on="1"/>
      </contour>
    </TTGlyph>
    <TTGlyph name="germandbls" xMin="35" yMin="-15" xMax="570" yMax="760">
      <contour>
        <pt x="122" y="426" on="1"/>
        <pt x="82" y="425" on="1"/>
        <pt x="62" y="425" on="0"/>
        <pt x="35" y="445" on="0"/>
        <pt x="35" y="483" on="0"/>
        <pt x="62" y="502" on="0"/>
        <pt x="91" y="502" on="0"/>
        <pt x="121" y="500" on="1"/>
        <pt x="121" y="575" on="1"/>
        <pt x="121" y="670" on="0"/>
        <pt x="225" y="760" on="0"/>
        <pt x="388" y="760" on="0"/>
        <pt x="482" y="669" on="0"/>
        <pt x="482" y="604" on="1"/>
        <pt x="482" y="560" on="0"/>
        <pt x="422" y="474" on="0"/>
        <pt x="363" y="408" on="0"/>
        <pt x="363" y="363" on="0"/>
        <pt x="428" y="307" on="0"/>
        <pt x="505" y="262" on="0"/>
        <pt x="570" y="182" on="0"/>
        <pt x="570" y="135" on="1"/>
        <pt x="570" y="70" on="0"/>
        <pt x="479" y="-15" on="0"/>
        <pt x="403" y="-15" on="1"/>
        <pt x="349" y="-15" on="0"/>
        <pt x="255" y="35" on="0"/>
        <pt x="255" y="64" on="1"/>
        <pt x="255" y="105" on="0"/>
        <pt x="297" y="105" on="1"/>
        <pt x="310" y="105" on="0"/>
        <pt x="379" y="64" on="0"/>
        <pt x="432" y="64" on="0"/>
        <pt x="475" y="102" on="0"/>
        <pt x="475" y="163" on="0"/>
        <pt x="432" y="209" on="0"/>
        <pt x="372" y="245" on="0"/>
        <pt x="311" y="284" on="0"/>
        <pt x="268" y="347" on="0"/>
        <pt x="268" y="417" on="0"/>
        <pt x="305" y="479" on="0"/>
        <pt x="349" y="523" on="0"/>
        <pt x="386" y="579" on="0"/>
        <pt x="386" y="636" on="0"/>
        <pt x="340" y="678" on="0"/>
        <pt x="264" y="678" on="0"/>
        <pt x="214" y="626" on="0"/>
        <pt x="214" y="566" on="1"/>
        <pt x="215" y="48" on="1"/>
        <pt x="215" y="22" on="0"/>
        <pt x="187" y="-10" on="0"/>
        <pt x="142" y="-10" on="0"/>
        <pt x="116" y="21" on="0"/>
        <pt x="116" y="45" on="1"/>
      </contour>
    </TTGlyph>
    <TTGlyph name="grave" xMin="85" yMin="563" xMax="245" yMax="740">
      <contour>
        <pt x="85" y="696" on="1"/>
        <pt x="85" y="713" on="0"/>
        <pt x="108" y="740" on="0"/>
        <pt x="143" y="740" on="0"/>
        <pt x="168" y="721" on="0"/>
        <pt x="179" y="702" on="0"/>
        <pt x="197" y="662" on="0"/>
        <pt x="245" y="603" on="0"/>
        <pt x="245" y="579" on="0"/>
        <pt x="228" y="563" on="0"/>
        <pt x="212" y="563" on="1"/>
        <pt x="180" y="563" on="0"/>
        <pt x="85" y="652" on="0"/>
      </contour>
    </TTGlyph>
    <TTGlyph name="greater" xMin="55" yMin="159" xMax="535" yMax="593">
      <contour>
        <pt x="535" y="394" on="0"/>
        <pt x="535" y="358" on="0"/>
        <pt x="518" y="330" on="0"/>
        <pt x="472" y="303" on="0"/>
        <pt x="437" y="287" on="0"/>
        <pt x="350" y="254" on="0"/>
        <pt x="297" y="232" on="0"/>
        <pt x="221" y="200" on="0"/>
        <pt x="182" y="183" on="0"/>
        <pt x="159" y="174" on="1"/>
        <pt x="117" y="159" on="0"/>
        <pt x="80" y="159" on="0"/>
        <pt x="56" y="180" on="0"/>
        <pt x="56" y="196" on="1"/>
        <pt x="56" y="223" on="0"/>
        <pt x="90" y="238" on="1"/>
        <pt x="127" y="253" on="0"/>
        <pt x="243" y="296" on="0"/>
        <pt x="267" y="306" on="1"/>
        <pt x="418" y="366" on="0"/>
        <pt x="418" y="376" on="1"/>
        <pt x="418" y="384" on="0"/>
        <pt x="304" y="430" on="1"/>
        <pt x="266" y="446" on="1"/>
        <pt x="242" y="456" on="0"/>
        <pt x="126" y="499" on="0"/>
        <pt x="89" y="514" on="1"/>
        <pt x="55" y="529" on="0"/>
        <pt x="55" y="556" on="1"/>
        <pt x="55" y="572" on="0"/>
        <pt x="79" y="593" on="0"/>
        <pt x="106" y="593" on="0"/>
        <pt x="135" y="586" on="0"/>
        <pt x="181" y="569" on="0"/>
        <pt x="200" y="560" on="1"/>
        <pt x="310" y="513" on="0"/>
        <pt x="436" y="465" on="0"/>
        <pt x="472" y="449" on="0"/>
        <pt x="518" y="422" on="0"/>
      </contour>
    </TTGlyph>
    <TTGlyph name="greaterequal" xMin="82" yMin="86" xMax="562" yMax="674">
      <contour>
        <pt x="82" y="439" on="0"/>
        <pt x="82" y="475" on="0"/>
        <pt x="99" y="503" on="0"/>
        <pt x="145" y="530" on="0"/>
        <pt x="181" y="546" on="0"/>
        <pt x="268" y="579" on="0"/>
        <pt x="321" y="601" on="0"/>
        <pt x="397" y="633" on="0"/>
        <pt x="436" y="650" on="0"/>
        <pt x="459" y="658" on="1"/>
        <pt x="501" y="674" on="0"/>
        <pt x="538" y="674" on="0"/>
        <pt x="562" y="653" on="0"/>
        <pt x="562" y="637" on="1"/>
        <pt x="562" y="610" on="0"/>
        <pt x="528" y="595" on="1"/>
        <pt x="491" y="580" on="0"/>
        <pt x="375" y="537" on="0"/>
        <pt x="351" y="527" on="1"/>
        <pt x="199" y="467" on="0"/>
        <pt x="199" y="457" on="1"/>
        <pt x="199" y="449" on="0"/>
        <pt x="312" y="402" on="1"/>
        <pt x="350" y="387" on="1"/>
        <pt x="374" y="377" on="0"/>
        <pt x="490" y="334" on="0"/>
        <pt x="527" y="319" on="1"/>
        <pt x="561" y="304" on="0"/>
        <pt x="561" y="277" on="1"/>
        <pt x="561" y="261" on="0"/>
        <pt x="537" y="240" on="0"/>
        <pt x="510" y="240" on="0"/>
        <pt x="481" y="247" on="0"/>
        <pt x="435" y="264" on="0"/>
        <pt x="416" y="272" on="1"/>
        <pt x="306" y="320" on="0"/>
        <pt x="180" y="368" on="0"/>
        <pt x="145" y="384" on="0"/>
        <pt x="99" y="411" on="0"/>
      </contour>
      <contour>
        <pt x="321" y="167" on="1"/>
        <pt x="511" y="170" on="1"/>
        <pt x="533" y="170" on="0"/>
        <pt x="560" y="146" on="0"/>
        <pt x="560" y="110" on="0"/>
        <pt x="533" y="86" on="0"/>
        <pt x="511" y="86" on="1"/>
        <pt x="321" y="89" on="1"/>
        <pt x="131" y="86" on="1"/>
        <pt x="109" y="86" on="0"/>
        <pt x="82" y="110" on="0"/>
        <pt x="82" y="146" on="0"/>
        <pt x="109" y="170" on="0"/>
        <pt x="131" y="170" on="1"/>
      </contour>
    </TTGlyph>
    <TTGlyph name="guillemotleft" xMin="59" yMin="212" xMax="528" yMax="540">
      <contour>
        <pt x="150" y="384" on="0"/>
        <pt x="150" y="368" on="0"/>
        <pt x="207" y="327" on="1"/>
        <pt x="215" y="321" on="0"/>
        <pt x="251" y="298" on="0"/>
        <pt x="260" y="291" on="1"/>
        <pt x="288" y="271" on="0"/>
        <pt x="288" y="235" on="0"/>
        <pt x="264" y="212" on="0"/>
        <pt x="229" y="212" on="0"/>
        <pt x="202" y="228" on="0"/>
        <pt x="166" y="262" on="0"/>
        <pt x="91" y="323" on="0"/>
        <pt x="59" y="359" on="0"/>
        <pt x="59" y="393" on="0"/>
        <pt x="91" y="429" on="0"/>
        <pt x="166" y="490" on="0"/>
        <pt x="195" y="517" on="0"/>
        <pt x="203" y="524" on="1"/>
        <pt x="223" y="540" on="0"/>
        <pt x="264" y="540" on="0"/>
        <pt x="288" y="517" on="0"/>
        <pt x="288" y="486" on="0"/>
        <pt x="267" y="464" on="0"/>
        <pt x="211" y="428" on="0"/>
        <pt x="207" y="425" on="1"/>
      </contour>
      <contour>
        <pt x="390" y="384" on="0"/>
        <pt x="390" y="368" on="0"/>
        <pt x="447" y="327" on="1"/>
        <pt x="455" y="321" on="0"/>
        <pt x="491" y="298" on="0"/>
        <pt x="500" y="291" on="1"/>
        <pt x="528" y="271" on="0"/>
        <pt x="528" y="235" on="0"/>
        <pt x="504" y="212" on="0"/>
        <pt x="469" y="212" on="0"/>
        <pt x="442" y="228" on="0"/>
        <pt x="406" y="262" on="0"/>
        <pt x="331" y="323" on="0"/>
        <pt x="299" y="359" on="0"/>
        <pt x="299" y="393" on="0"/>
        <pt x="331" y="429" on="0"/>
        <pt x="406" y="490" on="0"/>
        <pt x="435" y="517" on="0"/>
        <pt x="443" y="524" on="1"/>
        <pt x="463" y="540" on="0"/>
        <pt x="504" y="540" on="0"/>
        <pt x="528" y="517" on="0"/>
        <pt x="528" y="486" on="0"/>
        <pt x="507" y="464" on="0"/>
        <pt x="451" y="428" on="0"/>
        <pt x="447" y="425" on="1"/>
      </contour>
    </TTGlyph>
</ttFont>
